<?xml version="1.0" encoding="utf-8" standalone="no"?>
<!DOCTYPE svg PUBLIC "-//W3C//DTD SVG 1.1//EN"
  "http://www.w3.org/Graphics/SVG/1.1/DTD/svg11.dtd">
<svg xmlns:xlink="http://www.w3.org/1999/xlink" width="543.138938pt" height="321.955625pt" viewBox="0 0 543.138938 321.955625" xmlns="http://www.w3.org/2000/svg" version="1.1">
 <metadata>
  <rdf:RDF xmlns:dc="http://purl.org/dc/elements/1.1/" xmlns:cc="http://creativecommons.org/ns#" xmlns:rdf="http://www.w3.org/1999/02/22-rdf-syntax-ns#">
   <cc:Work>
    <dc:type rdf:resource="http://purl.org/dc/dcmitype/StillImage"/>
    <dc:date>2025-05-03T14:03:49.118513</dc:date>
    <dc:format>image/svg+xml</dc:format>
    <dc:creator>
     <cc:Agent>
      <dc:title>Matplotlib v3.10.1, https://matplotlib.org/</dc:title>
     </cc:Agent>
    </dc:creator>
   </cc:Work>
  </rdf:RDF>
 </metadata>
 <defs>
  <style type="text/css">*{stroke-linejoin: round; stroke-linecap: butt}</style>
 </defs>
 <g id="figure_1">
  <g id="patch_1">
   <path d="M 0 321.955625 
L 543.138938 321.955625 
L 543.138938 0 
L 0 0 
z
" style="fill: #ffffff"/>
  </g>
  <g id="axes_1">
   <g id="patch_2">
    <path d="M 105.9175 250.73625 
L 352.183438 250.73625 
L 352.183438 31.43625 
L 105.9175 31.43625 
z
" style="fill: #ffffff"/>
   </g>
   <g id="matplotlib.axis_1">
    <g id="xtick_1">
     <g id="line2d_1">
      <path d="M 117.111406 250.73625 
L 117.111406 31.43625 
" clip-path="url(#p94f1775aaa)" style="fill: none; stroke: #cccccc; stroke-width: 2; stroke-linecap: round"/>
     </g>
     <g id="text_1">
      <!-- 1 -->
      <g style="fill: #262626" transform="translate(110.112656 282.952812) scale(0.22 -0.22)">
       <defs>
        <path id="DejaVuSans-31" d="M 794 531 
L 1825 531 
L 1825 4091 
L 703 3866 
L 703 4441 
L 1819 4666 
L 2450 4666 
L 2450 531 
L 3481 531 
L 3481 0 
L 794 0 
L 794 531 
z
" transform="scale(0.015625)"/>
       </defs>
       <use xlink:href="#DejaVuSans-31"/>
      </g>
     </g>
    </g>
    <g id="xtick_2">
     <g id="line2d_2">
      <path d="M 179.797281 250.73625 
L 179.797281 31.43625 
" clip-path="url(#p94f1775aaa)" style="fill: none; stroke: #cccccc; stroke-width: 2; stroke-linecap: round"/>
     </g>
     <g id="text_2">
      <!-- 8 -->
      <g style="fill: #262626" transform="translate(172.798531 282.952812) scale(0.22 -0.22)">
       <defs>
        <path id="DejaVuSans-38" d="M 2034 2216 
Q 1584 2216 1326 1975 
Q 1069 1734 1069 1313 
Q 1069 891 1326 650 
Q 1584 409 2034 409 
Q 2484 409 2743 651 
Q 3003 894 3003 1313 
Q 3003 1734 2745 1975 
Q 2488 2216 2034 2216 
z
M 1403 2484 
Q 997 2584 770 2862 
Q 544 3141 544 3541 
Q 544 4100 942 4425 
Q 1341 4750 2034 4750 
Q 2731 4750 3128 4425 
Q 3525 4100 3525 3541 
Q 3525 3141 3298 2862 
Q 3072 2584 2669 2484 
Q 3125 2378 3379 2068 
Q 3634 1759 3634 1313 
Q 3634 634 3220 271 
Q 2806 -91 2034 -91 
Q 1263 -91 848 271 
Q 434 634 434 1313 
Q 434 1759 690 2068 
Q 947 2378 1403 2484 
z
M 1172 3481 
Q 1172 3119 1398 2916 
Q 1625 2713 2034 2713 
Q 2441 2713 2670 2916 
Q 2900 3119 2900 3481 
Q 2900 3844 2670 4047 
Q 2441 4250 2034 4250 
Q 1625 4250 1398 4047 
Q 1172 3844 1172 3481 
z
" transform="scale(0.015625)"/>
       </defs>
       <use xlink:href="#DejaVuSans-38"/>
      </g>
     </g>
    </g>
    <g id="xtick_3">
     <g id="line2d_3">
      <path d="M 251.438281 250.73625 
L 251.438281 31.43625 
" clip-path="url(#p94f1775aaa)" style="fill: none; stroke: #cccccc; stroke-width: 2; stroke-linecap: round"/>
     </g>
     <g id="text_3">
      <!-- 16 -->
      <g style="fill: #262626" transform="translate(237.440781 282.952812) scale(0.22 -0.22)">
       <defs>
        <path id="DejaVuSans-36" d="M 2113 2584 
Q 1688 2584 1439 2293 
Q 1191 2003 1191 1497 
Q 1191 994 1439 701 
Q 1688 409 2113 409 
Q 2538 409 2786 701 
Q 3034 994 3034 1497 
Q 3034 2003 2786 2293 
Q 2538 2584 2113 2584 
z
M 3366 4563 
L 3366 3988 
Q 3128 4100 2886 4159 
Q 2644 4219 2406 4219 
Q 1781 4219 1451 3797 
Q 1122 3375 1075 2522 
Q 1259 2794 1537 2939 
Q 1816 3084 2150 3084 
Q 2853 3084 3261 2657 
Q 3669 2231 3669 1497 
Q 3669 778 3244 343 
Q 2819 -91 2113 -91 
Q 1303 -91 875 529 
Q 447 1150 447 2328 
Q 447 3434 972 4092 
Q 1497 4750 2381 4750 
Q 2619 4750 2861 4703 
Q 3103 4656 3366 4563 
z
" transform="scale(0.015625)"/>
       </defs>
       <use xlink:href="#DejaVuSans-31"/>
       <use xlink:href="#DejaVuSans-36" transform="translate(63.623047 0)"/>
      </g>
     </g>
    </g>
    <g id="xtick_4">
     <g id="line2d_4">
      <path d="M 323.079281 250.73625 
L 323.079281 31.43625 
" clip-path="url(#p94f1775aaa)" style="fill: none; stroke: #cccccc; stroke-width: 2; stroke-linecap: round"/>
     </g>
    </g>
    <g id="xtick_5">
     <g id="line2d_5">
      <path d="M 340.989531 250.73625 
L 340.989531 31.43625 
" clip-path="url(#p94f1775aaa)" style="fill: none; stroke: #cccccc; stroke-width: 2; stroke-linecap: round"/>
     </g>
     <g id="text_4">
      <!-- 26 -->
      <g style="fill: #262626" transform="translate(326.992031 282.952812) scale(0.22 -0.22)">
       <defs>
        <path id="DejaVuSans-32" d="M 1228 531 
L 3431 531 
L 3431 0 
L 469 0 
L 469 531 
Q 828 903 1448 1529 
Q 2069 2156 2228 2338 
Q 2531 2678 2651 2914 
Q 2772 3150 2772 3378 
Q 2772 3750 2511 3984 
Q 2250 4219 1831 4219 
Q 1534 4219 1204 4116 
Q 875 4013 500 3803 
L 500 4441 
Q 881 4594 1212 4672 
Q 1544 4750 1819 4750 
Q 2544 4750 2975 4387 
Q 3406 4025 3406 3419 
Q 3406 3131 3298 2873 
Q 3191 2616 2906 2266 
Q 2828 2175 2409 1742 
Q 1991 1309 1228 531 
z
" transform="scale(0.015625)"/>
       </defs>
       <use xlink:href="#DejaVuSans-32"/>
       <use xlink:href="#DejaVuSans-36" transform="translate(63.623047 0)"/>
      </g>
     </g>
    </g>
    <g id="xtick_6">
     <g id="line2d_6">
      <path d="M 108.156281 250.73625 
L 108.156281 31.43625 
" clip-path="url(#p94f1775aaa)" style="fill: none; stroke: #cccccc; stroke-opacity: 0.3; stroke-width: 2; stroke-linecap: round"/>
     </g>
    </g>
    <g id="xtick_7">
     <g id="line2d_7">
      <path d="M 126.066531 250.73625 
L 126.066531 31.43625 
" clip-path="url(#p94f1775aaa)" style="fill: none; stroke: #cccccc; stroke-opacity: 0.3; stroke-width: 2; stroke-linecap: round"/>
     </g>
    </g>
    <g id="xtick_8">
     <g id="line2d_8">
      <path d="M 143.976781 250.73625 
L 143.976781 31.43625 
" clip-path="url(#p94f1775aaa)" style="fill: none; stroke: #cccccc; stroke-opacity: 0.3; stroke-width: 2; stroke-linecap: round"/>
     </g>
    </g>
    <g id="xtick_9">
     <g id="line2d_9">
      <path d="M 161.887031 250.73625 
L 161.887031 31.43625 
" clip-path="url(#p94f1775aaa)" style="fill: none; stroke: #cccccc; stroke-opacity: 0.3; stroke-width: 2; stroke-linecap: round"/>
     </g>
    </g>
    <g id="xtick_10">
     <g id="line2d_10">
      <path d="M 197.707531 250.73625 
L 197.707531 31.43625 
" clip-path="url(#p94f1775aaa)" style="fill: none; stroke: #cccccc; stroke-opacity: 0.3; stroke-width: 2; stroke-linecap: round"/>
     </g>
    </g>
    <g id="xtick_11">
     <g id="line2d_11">
      <path d="M 215.617781 250.73625 
L 215.617781 31.43625 
" clip-path="url(#p94f1775aaa)" style="fill: none; stroke: #cccccc; stroke-opacity: 0.3; stroke-width: 2; stroke-linecap: round"/>
     </g>
    </g>
    <g id="xtick_12">
     <g id="line2d_12">
      <path d="M 233.528031 250.73625 
L 233.528031 31.43625 
" clip-path="url(#p94f1775aaa)" style="fill: none; stroke: #cccccc; stroke-opacity: 0.3; stroke-width: 2; stroke-linecap: round"/>
     </g>
    </g>
    <g id="xtick_13">
     <g id="line2d_13">
      <path d="M 269.348531 250.73625 
L 269.348531 31.43625 
" clip-path="url(#p94f1775aaa)" style="fill: none; stroke: #cccccc; stroke-opacity: 0.3; stroke-width: 2; stroke-linecap: round"/>
     </g>
    </g>
    <g id="xtick_14">
     <g id="line2d_14">
      <path d="M 287.258781 250.73625 
L 287.258781 31.43625 
" clip-path="url(#p94f1775aaa)" style="fill: none; stroke: #cccccc; stroke-opacity: 0.3; stroke-width: 2; stroke-linecap: round"/>
     </g>
    </g>
    <g id="xtick_15">
     <g id="line2d_15">
      <path d="M 305.169031 250.73625 
L 305.169031 31.43625 
" clip-path="url(#p94f1775aaa)" style="fill: none; stroke: #cccccc; stroke-opacity: 0.3; stroke-width: 2; stroke-linecap: round"/>
     </g>
    </g>
    <g id="text_5">
     <!-- Threads -->
     <g style="fill: #262626" transform="translate(180.846094 309.764375) scale(0.24 -0.24)">
      <defs>
       <path id="DejaVuSans-54" d="M -19 4666 
L 3928 4666 
L 3928 4134 
L 2272 4134 
L 2272 0 
L 1638 0 
L 1638 4134 
L -19 4134 
L -19 4666 
z
" transform="scale(0.015625)"/>
       <path id="DejaVuSans-68" d="M 3513 2113 
L 3513 0 
L 2938 0 
L 2938 2094 
Q 2938 2591 2744 2837 
Q 2550 3084 2163 3084 
Q 1697 3084 1428 2787 
Q 1159 2491 1159 1978 
L 1159 0 
L 581 0 
L 581 4863 
L 1159 4863 
L 1159 2956 
Q 1366 3272 1645 3428 
Q 1925 3584 2291 3584 
Q 2894 3584 3203 3211 
Q 3513 2838 3513 2113 
z
" transform="scale(0.015625)"/>
       <path id="DejaVuSans-72" d="M 2631 2963 
Q 2534 3019 2420 3045 
Q 2306 3072 2169 3072 
Q 1681 3072 1420 2755 
Q 1159 2438 1159 1844 
L 1159 0 
L 581 0 
L 581 3500 
L 1159 3500 
L 1159 2956 
Q 1341 3275 1631 3429 
Q 1922 3584 2338 3584 
Q 2397 3584 2469 3576 
Q 2541 3569 2628 3553 
L 2631 2963 
z
" transform="scale(0.015625)"/>
       <path id="DejaVuSans-65" d="M 3597 1894 
L 3597 1613 
L 953 1613 
Q 991 1019 1311 708 
Q 1631 397 2203 397 
Q 2534 397 2845 478 
Q 3156 559 3463 722 
L 3463 178 
Q 3153 47 2828 -22 
Q 2503 -91 2169 -91 
Q 1331 -91 842 396 
Q 353 884 353 1716 
Q 353 2575 817 3079 
Q 1281 3584 2069 3584 
Q 2775 3584 3186 3129 
Q 3597 2675 3597 1894 
z
M 3022 2063 
Q 3016 2534 2758 2815 
Q 2500 3097 2075 3097 
Q 1594 3097 1305 2825 
Q 1016 2553 972 2059 
L 3022 2063 
z
" transform="scale(0.015625)"/>
       <path id="DejaVuSans-61" d="M 2194 1759 
Q 1497 1759 1228 1600 
Q 959 1441 959 1056 
Q 959 750 1161 570 
Q 1363 391 1709 391 
Q 2188 391 2477 730 
Q 2766 1069 2766 1631 
L 2766 1759 
L 2194 1759 
z
M 3341 1997 
L 3341 0 
L 2766 0 
L 2766 531 
Q 2569 213 2275 61 
Q 1981 -91 1556 -91 
Q 1019 -91 701 211 
Q 384 513 384 1019 
Q 384 1609 779 1909 
Q 1175 2209 1959 2209 
L 2766 2209 
L 2766 2266 
Q 2766 2663 2505 2880 
Q 2244 3097 1772 3097 
Q 1472 3097 1187 3025 
Q 903 2953 641 2809 
L 641 3341 
Q 956 3463 1253 3523 
Q 1550 3584 1831 3584 
Q 2591 3584 2966 3190 
Q 3341 2797 3341 1997 
z
" transform="scale(0.015625)"/>
       <path id="DejaVuSans-64" d="M 2906 2969 
L 2906 4863 
L 3481 4863 
L 3481 0 
L 2906 0 
L 2906 525 
Q 2725 213 2448 61 
Q 2172 -91 1784 -91 
Q 1150 -91 751 415 
Q 353 922 353 1747 
Q 353 2572 751 3078 
Q 1150 3584 1784 3584 
Q 2172 3584 2448 3432 
Q 2725 3281 2906 2969 
z
M 947 1747 
Q 947 1113 1208 752 
Q 1469 391 1925 391 
Q 2381 391 2643 752 
Q 2906 1113 2906 1747 
Q 2906 2381 2643 2742 
Q 2381 3103 1925 3103 
Q 1469 3103 1208 2742 
Q 947 2381 947 1747 
z
" transform="scale(0.015625)"/>
       <path id="DejaVuSans-73" d="M 2834 3397 
L 2834 2853 
Q 2591 2978 2328 3040 
Q 2066 3103 1784 3103 
Q 1356 3103 1142 2972 
Q 928 2841 928 2578 
Q 928 2378 1081 2264 
Q 1234 2150 1697 2047 
L 1894 2003 
Q 2506 1872 2764 1633 
Q 3022 1394 3022 966 
Q 3022 478 2636 193 
Q 2250 -91 1575 -91 
Q 1294 -91 989 -36 
Q 684 19 347 128 
L 347 722 
Q 666 556 975 473 
Q 1284 391 1588 391 
Q 1994 391 2212 530 
Q 2431 669 2431 922 
Q 2431 1156 2273 1281 
Q 2116 1406 1581 1522 
L 1381 1569 
Q 847 1681 609 1914 
Q 372 2147 372 2553 
Q 372 3047 722 3315 
Q 1072 3584 1716 3584 
Q 2034 3584 2315 3537 
Q 2597 3491 2834 3397 
z
" transform="scale(0.015625)"/>
      </defs>
      <use xlink:href="#DejaVuSans-54"/>
      <use xlink:href="#DejaVuSans-68" transform="translate(61.083984 0)"/>
      <use xlink:href="#DejaVuSans-72" transform="translate(124.462891 0)"/>
      <use xlink:href="#DejaVuSans-65" transform="translate(163.326172 0)"/>
      <use xlink:href="#DejaVuSans-61" transform="translate(224.849609 0)"/>
      <use xlink:href="#DejaVuSans-64" transform="translate(286.128906 0)"/>
      <use xlink:href="#DejaVuSans-73" transform="translate(349.605469 0)"/>
     </g>
    </g>
   </g>
   <g id="matplotlib.axis_2">
    <g id="ytick_1">
     <g id="line2d_16">
      <path d="M 105.9175 250.73625 
L 352.183438 250.73625 
" clip-path="url(#p94f1775aaa)" style="fill: none; stroke: #cccccc; stroke-width: 2; stroke-linecap: round"/>
     </g>
     <g id="text_6">
      <!-- 0 -->
      <g style="fill: #262626" transform="translate(76.42 259.094531) scale(0.22 -0.22)">
       <defs>
        <path id="DejaVuSans-30" d="M 2034 4250 
Q 1547 4250 1301 3770 
Q 1056 3291 1056 2328 
Q 1056 1369 1301 889 
Q 1547 409 2034 409 
Q 2525 409 2770 889 
Q 3016 1369 3016 2328 
Q 3016 3291 2770 3770 
Q 2525 4250 2034 4250 
z
M 2034 4750 
Q 2819 4750 3233 4129 
Q 3647 3509 3647 2328 
Q 3647 1150 3233 529 
Q 2819 -91 2034 -91 
Q 1250 -91 836 529 
Q 422 1150 422 2328 
Q 422 3509 836 4129 
Q 1250 4750 2034 4750 
z
" transform="scale(0.015625)"/>
       </defs>
       <use xlink:href="#DejaVuSans-30"/>
      </g>
     </g>
    </g>
    <g id="ytick_2">
     <g id="line2d_17">
      <path d="M 105.9175 166.389285 
L 352.183438 166.389285 
" clip-path="url(#p94f1775aaa)" style="fill: none; stroke: #cccccc; stroke-width: 2; stroke-linecap: round"/>
     </g>
     <g id="text_7">
      <!-- 500 -->
      <g style="fill: #262626" transform="translate(48.425 174.747566) scale(0.22 -0.22)">
       <defs>
        <path id="DejaVuSans-35" d="M 691 4666 
L 3169 4666 
L 3169 4134 
L 1269 4134 
L 1269 2991 
Q 1406 3038 1543 3061 
Q 1681 3084 1819 3084 
Q 2600 3084 3056 2656 
Q 3513 2228 3513 1497 
Q 3513 744 3044 326 
Q 2575 -91 1722 -91 
Q 1428 -91 1123 -41 
Q 819 9 494 109 
L 494 744 
Q 775 591 1075 516 
Q 1375 441 1709 441 
Q 2250 441 2565 725 
Q 2881 1009 2881 1497 
Q 2881 1984 2565 2268 
Q 2250 2553 1709 2553 
Q 1456 2553 1204 2497 
Q 953 2441 691 2322 
L 691 4666 
z
" transform="scale(0.015625)"/>
       </defs>
       <use xlink:href="#DejaVuSans-35"/>
       <use xlink:href="#DejaVuSans-30" transform="translate(63.623047 0)"/>
       <use xlink:href="#DejaVuSans-30" transform="translate(127.246094 0)"/>
      </g>
     </g>
    </g>
    <g id="ytick_3">
     <g id="line2d_18">
      <path d="M 105.9175 82.04232 
L 352.183438 82.04232 
" clip-path="url(#p94f1775aaa)" style="fill: none; stroke: #cccccc; stroke-width: 2; stroke-linecap: round"/>
     </g>
     <g id="text_8">
      <!-- 1000 -->
      <g style="fill: #262626" transform="translate(34.4275 90.400602) scale(0.22 -0.22)">
       <use xlink:href="#DejaVuSans-31"/>
       <use xlink:href="#DejaVuSans-30" transform="translate(63.623047 0)"/>
       <use xlink:href="#DejaVuSans-30" transform="translate(127.246094 0)"/>
       <use xlink:href="#DejaVuSans-30" transform="translate(190.869141 0)"/>
      </g>
     </g>
    </g>
    <g id="text_9">
     <!-- Avg. time (ns) -->
     <g style="fill: #262626" transform="translate(25.43625 225.0825) rotate(-90) scale(0.24 -0.24)">
      <defs>
       <path id="DejaVuSans-41" d="M 2188 4044 
L 1331 1722 
L 3047 1722 
L 2188 4044 
z
M 1831 4666 
L 2547 4666 
L 4325 0 
L 3669 0 
L 3244 1197 
L 1141 1197 
L 716 0 
L 50 0 
L 1831 4666 
z
" transform="scale(0.015625)"/>
       <path id="DejaVuSans-76" d="M 191 3500 
L 800 3500 
L 1894 563 
L 2988 3500 
L 3597 3500 
L 2284 0 
L 1503 0 
L 191 3500 
z
" transform="scale(0.015625)"/>
       <path id="DejaVuSans-67" d="M 2906 1791 
Q 2906 2416 2648 2759 
Q 2391 3103 1925 3103 
Q 1463 3103 1205 2759 
Q 947 2416 947 1791 
Q 947 1169 1205 825 
Q 1463 481 1925 481 
Q 2391 481 2648 825 
Q 2906 1169 2906 1791 
z
M 3481 434 
Q 3481 -459 3084 -895 
Q 2688 -1331 1869 -1331 
Q 1566 -1331 1297 -1286 
Q 1028 -1241 775 -1147 
L 775 -588 
Q 1028 -725 1275 -790 
Q 1522 -856 1778 -856 
Q 2344 -856 2625 -561 
Q 2906 -266 2906 331 
L 2906 616 
Q 2728 306 2450 153 
Q 2172 0 1784 0 
Q 1141 0 747 490 
Q 353 981 353 1791 
Q 353 2603 747 3093 
Q 1141 3584 1784 3584 
Q 2172 3584 2450 3431 
Q 2728 3278 2906 2969 
L 2906 3500 
L 3481 3500 
L 3481 434 
z
" transform="scale(0.015625)"/>
       <path id="DejaVuSans-2e" d="M 684 794 
L 1344 794 
L 1344 0 
L 684 0 
L 684 794 
z
" transform="scale(0.015625)"/>
       <path id="DejaVuSans-20" transform="scale(0.015625)"/>
       <path id="DejaVuSans-74" d="M 1172 4494 
L 1172 3500 
L 2356 3500 
L 2356 3053 
L 1172 3053 
L 1172 1153 
Q 1172 725 1289 603 
Q 1406 481 1766 481 
L 2356 481 
L 2356 0 
L 1766 0 
Q 1100 0 847 248 
Q 594 497 594 1153 
L 594 3053 
L 172 3053 
L 172 3500 
L 594 3500 
L 594 4494 
L 1172 4494 
z
" transform="scale(0.015625)"/>
       <path id="DejaVuSans-69" d="M 603 3500 
L 1178 3500 
L 1178 0 
L 603 0 
L 603 3500 
z
M 603 4863 
L 1178 4863 
L 1178 4134 
L 603 4134 
L 603 4863 
z
" transform="scale(0.015625)"/>
       <path id="DejaVuSans-6d" d="M 3328 2828 
Q 3544 3216 3844 3400 
Q 4144 3584 4550 3584 
Q 5097 3584 5394 3201 
Q 5691 2819 5691 2113 
L 5691 0 
L 5113 0 
L 5113 2094 
Q 5113 2597 4934 2840 
Q 4756 3084 4391 3084 
Q 3944 3084 3684 2787 
Q 3425 2491 3425 1978 
L 3425 0 
L 2847 0 
L 2847 2094 
Q 2847 2600 2669 2842 
Q 2491 3084 2119 3084 
Q 1678 3084 1418 2786 
Q 1159 2488 1159 1978 
L 1159 0 
L 581 0 
L 581 3500 
L 1159 3500 
L 1159 2956 
Q 1356 3278 1631 3431 
Q 1906 3584 2284 3584 
Q 2666 3584 2933 3390 
Q 3200 3197 3328 2828 
z
" transform="scale(0.015625)"/>
       <path id="DejaVuSans-28" d="M 1984 4856 
Q 1566 4138 1362 3434 
Q 1159 2731 1159 2009 
Q 1159 1288 1364 580 
Q 1569 -128 1984 -844 
L 1484 -844 
Q 1016 -109 783 600 
Q 550 1309 550 2009 
Q 550 2706 781 3412 
Q 1013 4119 1484 4856 
L 1984 4856 
z
" transform="scale(0.015625)"/>
       <path id="DejaVuSans-6e" d="M 3513 2113 
L 3513 0 
L 2938 0 
L 2938 2094 
Q 2938 2591 2744 2837 
Q 2550 3084 2163 3084 
Q 1697 3084 1428 2787 
Q 1159 2491 1159 1978 
L 1159 0 
L 581 0 
L 581 3500 
L 1159 3500 
L 1159 2956 
Q 1366 3272 1645 3428 
Q 1925 3584 2291 3584 
Q 2894 3584 3203 3211 
Q 3513 2838 3513 2113 
z
" transform="scale(0.015625)"/>
       <path id="DejaVuSans-29" d="M 513 4856 
L 1013 4856 
Q 1481 4119 1714 3412 
Q 1947 2706 1947 2009 
Q 1947 1309 1714 600 
Q 1481 -109 1013 -844 
L 513 -844 
Q 928 -128 1133 580 
Q 1338 1288 1338 2009 
Q 1338 2731 1133 3434 
Q 928 4138 513 4856 
z
" transform="scale(0.015625)"/>
      </defs>
      <use xlink:href="#DejaVuSans-41"/>
      <use xlink:href="#DejaVuSans-76" transform="translate(62.533203 0)"/>
      <use xlink:href="#DejaVuSans-67" transform="translate(121.712891 0)"/>
      <use xlink:href="#DejaVuSans-2e" transform="translate(185.189453 0)"/>
      <use xlink:href="#DejaVuSans-20" transform="translate(216.976562 0)"/>
      <use xlink:href="#DejaVuSans-74" transform="translate(248.763672 0)"/>
      <use xlink:href="#DejaVuSans-69" transform="translate(287.972656 0)"/>
      <use xlink:href="#DejaVuSans-6d" transform="translate(315.755859 0)"/>
      <use xlink:href="#DejaVuSans-65" transform="translate(413.167969 0)"/>
      <use xlink:href="#DejaVuSans-20" transform="translate(474.691406 0)"/>
      <use xlink:href="#DejaVuSans-28" transform="translate(506.478516 0)"/>
      <use xlink:href="#DejaVuSans-6e" transform="translate(545.492188 0)"/>
      <use xlink:href="#DejaVuSans-73" transform="translate(608.871094 0)"/>
      <use xlink:href="#DejaVuSans-29" transform="translate(660.970703 0)"/>
     </g>
    </g>
   </g>
   <g id="FillBetweenPolyCollection_1">
    <defs>
     <path id="m72dab1ebe4" d="M 117.111406 -85.220971 
L 117.111406 -85.094451 
L 126.066531 -85.094451 
L 135.021656 -85.220971 
L 143.976781 -85.220971 
L 152.931906 -85.220971 
L 161.887031 -85.389665 
L 170.842156 -85.389665 
L 179.797281 -85.558359 
L 188.752406 -85.727053 
L 197.707531 -85.895747 
L 206.662656 -86.106614 
L 215.617781 -86.275308 
L 224.572906 -86.401829 
L 233.528031 -86.612696 
L 242.483156 -86.992257 
L 251.438281 -87.245298 
L 260.393406 -87.540513 
L 269.348531 -87.920074 
L 278.303656 -88.257462 
L 287.258781 -88.468329 
L 296.213906 -89.016585 
L 305.169031 -89.353972 
L 314.124156 -89.860054 
L 323.079281 -89.944401 
L 332.034406 -90.492656 
L 340.989531 -90.745697 
L 340.989531 -91.715687 
L 340.989531 -91.715687 
L 332.034406 -90.745697 
L 323.079281 -90.198496 
L 314.124156 -90.366136 
L 305.169031 -89.733534 
L 296.213906 -89.353972 
L 287.258781 -88.72137 
L 278.303656 -88.383982 
L 269.348531 -87.920074 
L 260.393406 -88.130941 
L 251.438281 -87.371819 
L 242.483156 -87.245298 
L 233.528031 -86.992257 
L 224.572906 -86.570523 
L 215.617781 -86.401829 
L 206.662656 -86.233135 
L 197.707531 -86.064441 
L 188.752406 -85.980094 
L 179.797281 -85.727053 
L 170.842156 -85.558359 
L 161.887031 -85.389665 
L 152.931906 -85.347492 
L 143.976781 -85.220971 
L 135.021656 -85.220971 
L 126.066531 -85.220971 
L 117.111406 -85.220971 
z
" style="stroke: #0173b2; stroke-opacity: 0.2; stroke-width: 2"/>
    </defs>
    <g clip-path="url(#p94f1775aaa)">
     <use xlink:href="#m72dab1ebe4" x="0" y="321.955625" style="fill: #0173b2; fill-opacity: 0.2; stroke: #0173b2; stroke-opacity: 0.2; stroke-width: 2"/>
    </g>
   </g>
   <g id="FillBetweenPolyCollection_2">
    <defs>
     <path id="m78d7664db6" d="M 117.111406 -86.739217 
L 117.111406 -86.739217 
L 126.066531 -86.570523 
L 135.021656 -86.570523 
L 143.976781 -87.076604 
L 152.931906 -87.118778 
L 161.887031 -87.076604 
L 170.842156 -86.950084 
L 179.797281 -86.950084 
L 188.752406 -86.90791 
L 197.707531 -86.90791 
L 206.662656 -86.90791 
L 215.617781 -86.90791 
L 224.572906 -86.90791 
L 233.528031 -86.90791 
L 242.483156 -86.90791 
L 251.438281 -86.90791 
L 260.393406 -86.90791 
L 269.348531 -86.90791 
L 278.303656 -86.90791 
L 287.258781 -87.076604 
L 296.213906 -87.076604 
L 305.169031 -87.076604 
L 314.124156 -87.076604 
L 323.079281 -87.076604 
L 332.034406 -87.118778 
L 340.989531 -87.118778 
L 340.989531 -87.245298 
L 340.989531 -87.245298 
L 332.034406 -87.245298 
L 323.079281 -87.245298 
L 314.124156 -87.203125 
L 305.169031 -87.076604 
L 296.213906 -87.076604 
L 287.258781 -87.076604 
L 278.303656 -86.90791 
L 269.348531 -87.034431 
L 260.393406 -86.90791 
L 251.438281 -87.034431 
L 242.483156 -87.034431 
L 233.528031 -87.034431 
L 224.572906 -87.034431 
L 215.617781 -86.90791 
L 206.662656 -86.90791 
L 197.707531 -86.90791 
L 188.752406 -87.034431 
L 179.797281 -87.076604 
L 170.842156 -87.076604 
L 161.887031 -87.203125 
L 152.931906 -87.245298 
L 143.976781 -87.076604 
L 135.021656 -86.739217 
L 126.066531 -86.697043 
L 117.111406 -86.739217 
z
" style="stroke: #0173b2; stroke-opacity: 0.2; stroke-width: 2"/>
    </defs>
    <g clip-path="url(#p94f1775aaa)">
     <use xlink:href="#m78d7664db6" x="0" y="321.955625" style="fill: #0173b2; fill-opacity: 0.2; stroke: #0173b2; stroke-opacity: 0.2; stroke-width: 2"/>
    </g>
   </g>
   <g id="FillBetweenPolyCollection_3">
    <defs>
     <path id="m39b49db49b" d="M 117.111406 -87.203125 
L 117.111406 -86.950084 
L 126.066531 -88.763544 
L 135.021656 -90.450483 
L 143.976781 -96.354771 
L 152.931906 -103.102528 
L 161.887031 -109.217683 
L 170.842156 -115.754572 
L 179.797281 -121.363646 
L 188.752406 -128.448791 
L 197.707531 -134.648293 
L 206.662656 -141.058662 
L 215.617781 -147.131643 
L 224.572906 -153.584186 
L 233.528031 -160.458464 
L 242.483156 -166.868833 
L 251.438281 -172.098345 
L 260.393406 -179.689572 
L 269.348531 -185.931247 
L 278.303656 -192.341617 
L 287.258781 -198.245904 
L 296.213906 -204.656273 
L 305.169031 -211.066643 
L 314.124156 -217.645706 
L 323.079281 -223.254779 
L 332.034406 -230.635139 
L 340.989531 -237.045508 
L 340.989531 -237.298549 
L 340.989531 -237.298549 
L 332.034406 -230.761659 
L 323.079281 -223.50782 
L 314.124156 -217.898747 
L 305.169031 -211.235337 
L 296.213906 -204.909314 
L 287.258781 -198.414598 
L 278.303656 -192.51031 
L 269.348531 -185.931247 
L 260.393406 -179.816092 
L 251.438281 -172.267039 
L 242.483156 -166.995354 
L 233.528031 -160.627158 
L 224.572906 -153.837227 
L 215.617781 -147.131643 
L 206.662656 -141.058662 
L 197.707531 -134.816987 
L 188.752406 -128.575311 
L 179.797281 -121.490166 
L 170.842156 -116.134134 
L 161.887031 -109.344203 
L 152.931906 -103.355569 
L 143.976781 -96.607811 
L 135.021656 -90.450483 
L 126.066531 -88.932238 
L 117.111406 -87.203125 
z
" style="stroke: #de8f05; stroke-opacity: 0.2; stroke-width: 2"/>
    </defs>
    <g clip-path="url(#p94f1775aaa)">
     <use xlink:href="#m39b49db49b" x="0" y="321.955625" style="fill: #de8f05; fill-opacity: 0.2; stroke: #de8f05; stroke-opacity: 0.2; stroke-width: 2"/>
    </g>
   </g>
   <g id="FillBetweenPolyCollection_4">
    <defs>
     <path id="mf237479852" d="M 117.111406 -86.528349 
L 117.111406 -86.401829 
L 126.066531 -87.413992 
L 135.021656 -92.643504 
L 143.976781 -100.10821 
L 152.931906 -107.404223 
L 161.887031 -114.911103 
L 170.842156 -123.177105 
L 179.797281 -130.13573 
L 188.752406 -138.359559 
L 197.707531 -145.866439 
L 206.662656 -154.512003 
L 215.617781 -160.711505 
L 224.572906 -169.357069 
L 233.528031 -178.086979 
L 242.483156 -187.196452 
L 251.438281 -194.19725 
L 260.393406 -203.686283 
L 269.348531 -210.813602 
L 278.303656 -220.176115 
L 287.258781 -228.399944 
L 296.213906 -235.86465 
L 305.169031 -244.889776 
L 314.124156 -253.66186 
L 323.079281 -261.632648 
L 332.034406 -270.991998 
L 340.989531 -280.484195 
L 340.989531 -280.737236 
L 340.989531 -280.737236 
L 332.034406 -272.007325 
L 323.079281 -262.686985 
L 314.124156 -254.420983 
L 305.169031 -245.733245 
L 296.213906 -238.226365 
L 287.258781 -228.779505 
L 278.303656 -220.808717 
L 269.348531 -212.2475 
L 260.393406 -204.065845 
L 251.438281 -194.787679 
L 242.483156 -187.53384 
L 233.528031 -179.099143 
L 224.572906 -170.833141 
L 215.617781 -161.38628 
L 206.662656 -155.018085 
L 197.707531 -146.203827 
L 188.752406 -138.949988 
L 179.797281 -131.358761 
L 170.842156 -123.683187 
L 161.887031 -115.332838 
L 152.931906 -107.994652 
L 143.976781 -100.572119 
L 135.021656 -93.276106 
L 126.066531 -87.540513 
L 117.111406 -86.528349 
z
" style="stroke: #de8f05; stroke-opacity: 0.2; stroke-width: 2"/>
    </defs>
    <g clip-path="url(#p94f1775aaa)">
     <use xlink:href="#mf237479852" x="0" y="321.955625" style="fill: #de8f05; fill-opacity: 0.2; stroke: #de8f05; stroke-opacity: 0.2; stroke-width: 2"/>
    </g>
   </g>
   <g id="line2d_19">
    <path d="M 117.111406 236.776827 
L 126.066531 236.776827 
L 135.021656 236.734654 
L 143.976781 236.734654 
L 152.931906 236.69248 
L 161.887031 236.56596 
L 170.842156 236.481613 
L 179.797281 236.312919 
L 188.752406 236.102052 
L 197.707531 235.975531 
L 206.662656 235.764664 
L 215.617781 235.59597 
L 224.572906 235.469449 
L 233.528031 235.174235 
L 242.483156 234.794674 
L 251.438281 234.668153 
L 260.393406 234.119898 
L 269.348531 234.035551 
L 278.303656 233.65599 
L 287.258781 233.360775 
L 296.213906 232.770346 
L 305.169031 232.390785 
L 314.124156 231.884703 
L 323.079281 231.884703 
L 332.034406 231.336448 
L 340.989531 230.788193 
" clip-path="url(#p94f1775aaa)" style="fill: none; stroke: #0173b2; stroke-width: 3; stroke-linecap: round"/>
   </g>
   <g id="line2d_20">
    <path d="M 117.111406 235.216408 
L 126.066531 235.342929 
L 135.021656 235.300755 
L 143.976781 234.879021 
L 152.931906 234.7525 
L 161.887031 234.836847 
L 170.842156 234.921194 
L 179.797281 234.921194 
L 188.752406 235.005541 
L 197.707531 235.047715 
L 206.662656 235.047715 
L 215.617781 235.047715 
L 224.572906 235.005541 
L 233.528031 235.005541 
L 242.483156 235.005541 
L 251.438281 235.005541 
L 260.393406 235.047715 
L 269.348531 235.005541 
L 278.303656 235.047715 
L 287.258781 234.879021 
L 296.213906 234.879021 
L 305.169031 234.879021 
L 314.124156 234.836847 
L 323.079281 234.794674 
L 332.034406 234.7525 
L 340.989531 234.7525 
" clip-path="url(#p94f1775aaa)" style="fill: none; stroke-dasharray: 12,4.5; stroke-dashoffset: 0; stroke: #0173b2; stroke-width: 3"/>
   </g>
   <g id="line2d_21">
    <path d="M 117.111406 234.879021 
L 126.066531 233.107734 
L 135.021656 231.505142 
L 143.976781 225.474334 
L 152.931906 218.76875 
L 161.887031 212.653595 
L 170.842156 206.074532 
L 179.797281 200.507632 
L 188.752406 193.422487 
L 197.707531 187.222985 
L 206.662656 180.896963 
L 215.617781 174.823982 
L 224.572906 168.244918 
L 233.528031 161.412814 
L 242.483156 155.044618 
L 251.438281 149.772933 
L 260.393406 142.22388 
L 269.348531 136.024378 
L 278.303656 129.529661 
L 287.258781 123.625374 
L 296.213906 117.172831 
L 305.169031 110.804635 
L 314.124156 104.183399 
L 323.079281 98.574325 
L 332.034406 91.278313 
L 340.989531 84.783597 
" clip-path="url(#p94f1775aaa)" style="fill: none; stroke: #de8f05; stroke-width: 3; stroke-linecap: round"/>
   </g>
   <g id="line2d_22">
    <path d="M 117.111406 235.511623 
L 126.066531 234.499459 
L 135.021656 229.05908 
L 143.976781 221.636547 
L 152.931906 214.298361 
L 161.887031 206.833655 
L 170.842156 198.441132 
L 179.797281 191.102946 
L 188.752406 183.300852 
L 197.707531 175.920492 
L 206.662656 167.148408 
L 215.617781 160.906732 
L 224.572906 151.839434 
L 233.528031 143.278217 
L 242.483156 134.590479 
L 251.438281 127.463161 
L 260.393406 118.058474 
L 269.348531 110.298553 
L 278.303656 101.399949 
L 287.258781 93.344814 
L 296.213906 84.741423 
L 305.169031 76.601941 
L 314.124156 67.914204 
L 323.079281 59.648201 
L 332.034406 50.454382 
L 340.989531 41.34491 
" clip-path="url(#p94f1775aaa)" style="fill: none; stroke-dasharray: 12,4.5; stroke-dashoffset: 0; stroke: #de8f05; stroke-width: 3"/>
   </g>
   <g id="line2d_23"/>
   <g id="line2d_24"/>
   <g id="line2d_25"/>
   <g id="line2d_26"/>
   <g id="line2d_27"/>
   <g id="line2d_28"/>
   <g id="patch_3">
    <path d="M 105.9175 250.73625 
L 105.9175 31.43625 
" style="fill: none; stroke: #cccccc; stroke-width: 2.5; stroke-linejoin: miter; stroke-linecap: square"/>
   </g>
   <g id="patch_4">
    <path d="M 105.9175 250.73625 
L 352.183438 250.73625 
" style="fill: none; stroke: #cccccc; stroke-width: 2.5; stroke-linejoin: miter; stroke-linecap: square"/>
   </g>
   <g id="text_10">
    <!-- Frames -->
    <g style="fill: #262626" transform="translate(185.407969 25.43625) scale(0.24 -0.24)">
     <defs>
      <path id="DejaVuSans-46" d="M 628 4666 
L 3309 4666 
L 3309 4134 
L 1259 4134 
L 1259 2759 
L 3109 2759 
L 3109 2228 
L 1259 2228 
L 1259 0 
L 628 0 
L 628 4666 
z
" transform="scale(0.015625)"/>
     </defs>
     <use xlink:href="#DejaVuSans-46"/>
     <use xlink:href="#DejaVuSans-72" transform="translate(50.269531 0)"/>
     <use xlink:href="#DejaVuSans-61" transform="translate(91.382812 0)"/>
     <use xlink:href="#DejaVuSans-6d" transform="translate(152.662109 0)"/>
     <use xlink:href="#DejaVuSans-65" transform="translate(250.074219 0)"/>
     <use xlink:href="#DejaVuSans-73" transform="translate(311.597656 0)"/>
    </g>
   </g>
  </g>
  <g id="legend_1">
   <g id="line2d_29">
    <path d="M 352.251125 78.61875 
L 374.251125 78.61875 
L 396.251125 78.61875 
" style="fill: none"/>
   </g>
   <g id="text_11">
    <!-- Allocator -->
    <g style="fill: #262626" transform="translate(413.851125 86.31875) scale(0.22 -0.22)">
     <defs>
      <path id="DejaVuSans-6c" d="M 603 4863 
L 1178 4863 
L 1178 0 
L 603 0 
L 603 4863 
z
" transform="scale(0.015625)"/>
      <path id="DejaVuSans-6f" d="M 1959 3097 
Q 1497 3097 1228 2736 
Q 959 2375 959 1747 
Q 959 1119 1226 758 
Q 1494 397 1959 397 
Q 2419 397 2687 759 
Q 2956 1122 2956 1747 
Q 2956 2369 2687 2733 
Q 2419 3097 1959 3097 
z
M 1959 3584 
Q 2709 3584 3137 3096 
Q 3566 2609 3566 1747 
Q 3566 888 3137 398 
Q 2709 -91 1959 -91 
Q 1206 -91 779 398 
Q 353 888 353 1747 
Q 353 2609 779 3096 
Q 1206 3584 1959 3584 
z
" transform="scale(0.015625)"/>
      <path id="DejaVuSans-63" d="M 3122 3366 
L 3122 2828 
Q 2878 2963 2633 3030 
Q 2388 3097 2138 3097 
Q 1578 3097 1268 2742 
Q 959 2388 959 1747 
Q 959 1106 1268 751 
Q 1578 397 2138 397 
Q 2388 397 2633 464 
Q 2878 531 3122 666 
L 3122 134 
Q 2881 22 2623 -34 
Q 2366 -91 2075 -91 
Q 1284 -91 818 406 
Q 353 903 353 1747 
Q 353 2603 823 3093 
Q 1294 3584 2113 3584 
Q 2378 3584 2631 3529 
Q 2884 3475 3122 3366 
z
" transform="scale(0.015625)"/>
     </defs>
     <use xlink:href="#DejaVuSans-41"/>
     <use xlink:href="#DejaVuSans-6c" transform="translate(68.408203 0)"/>
     <use xlink:href="#DejaVuSans-6c" transform="translate(96.191406 0)"/>
     <use xlink:href="#DejaVuSans-6f" transform="translate(123.974609 0)"/>
     <use xlink:href="#DejaVuSans-63" transform="translate(185.15625 0)"/>
     <use xlink:href="#DejaVuSans-61" transform="translate(240.136719 0)"/>
     <use xlink:href="#DejaVuSans-74" transform="translate(301.416016 0)"/>
     <use xlink:href="#DejaVuSans-6f" transform="translate(340.625 0)"/>
     <use xlink:href="#DejaVuSans-72" transform="translate(401.806641 0)"/>
    </g>
   </g>
   <g id="line2d_30">
    <path d="M 352.251125 110.910625 
L 374.251125 110.910625 
L 396.251125 110.910625 
" style="fill: none; stroke: #0173b2; stroke-width: 3; stroke-linecap: round"/>
   </g>
   <g id="text_12">
    <!-- LLFree -->
    <g style="fill: #262626" transform="translate(413.851125 118.610625) scale(0.22 -0.22)">
     <defs>
      <path id="DejaVuSans-4c" d="M 628 4666 
L 1259 4666 
L 1259 531 
L 3531 531 
L 3531 0 
L 628 0 
L 628 4666 
z
" transform="scale(0.015625)"/>
     </defs>
     <use xlink:href="#DejaVuSans-4c"/>
     <use xlink:href="#DejaVuSans-4c" transform="translate(55.712891 0)"/>
     <use xlink:href="#DejaVuSans-46" transform="translate(111.425781 0)"/>
     <use xlink:href="#DejaVuSans-72" transform="translate(161.695312 0)"/>
     <use xlink:href="#DejaVuSans-65" transform="translate(200.558594 0)"/>
     <use xlink:href="#DejaVuSans-65" transform="translate(262.082031 0)"/>
    </g>
   </g>
   <g id="line2d_31">
    <path d="M 352.251125 143.2025 
L 374.251125 143.2025 
L 396.251125 143.2025 
" style="fill: none; stroke: #de8f05; stroke-width: 3; stroke-linecap: round"/>
   </g>
   <g id="text_13">
    <!-- Buddy -->
    <g style="fill: #262626" transform="translate(413.851125 150.9025) scale(0.22 -0.22)">
     <defs>
      <path id="DejaVuSans-42" d="M 1259 2228 
L 1259 519 
L 2272 519 
Q 2781 519 3026 730 
Q 3272 941 3272 1375 
Q 3272 1813 3026 2020 
Q 2781 2228 2272 2228 
L 1259 2228 
z
M 1259 4147 
L 1259 2741 
L 2194 2741 
Q 2656 2741 2882 2914 
Q 3109 3088 3109 3444 
Q 3109 3797 2882 3972 
Q 2656 4147 2194 4147 
L 1259 4147 
z
M 628 4666 
L 2241 4666 
Q 2963 4666 3353 4366 
Q 3744 4066 3744 3513 
Q 3744 3084 3544 2831 
Q 3344 2578 2956 2516 
Q 3422 2416 3680 2098 
Q 3938 1781 3938 1306 
Q 3938 681 3513 340 
Q 3088 0 2303 0 
L 628 0 
L 628 4666 
z
" transform="scale(0.015625)"/>
      <path id="DejaVuSans-75" d="M 544 1381 
L 544 3500 
L 1119 3500 
L 1119 1403 
Q 1119 906 1312 657 
Q 1506 409 1894 409 
Q 2359 409 2629 706 
Q 2900 1003 2900 1516 
L 2900 3500 
L 3475 3500 
L 3475 0 
L 2900 0 
L 2900 538 
Q 2691 219 2414 64 
Q 2138 -91 1772 -91 
Q 1169 -91 856 284 
Q 544 659 544 1381 
z
M 1991 3584 
L 1991 3584 
z
" transform="scale(0.015625)"/>
      <path id="DejaVuSans-79" d="M 2059 -325 
Q 1816 -950 1584 -1140 
Q 1353 -1331 966 -1331 
L 506 -1331 
L 506 -850 
L 844 -850 
Q 1081 -850 1212 -737 
Q 1344 -625 1503 -206 
L 1606 56 
L 191 3500 
L 800 3500 
L 1894 763 
L 2988 3500 
L 3597 3500 
L 2059 -325 
z
" transform="scale(0.015625)"/>
     </defs>
     <use xlink:href="#DejaVuSans-42"/>
     <use xlink:href="#DejaVuSans-75" transform="translate(68.603516 0)"/>
     <use xlink:href="#DejaVuSans-64" transform="translate(131.982422 0)"/>
     <use xlink:href="#DejaVuSans-64" transform="translate(195.458984 0)"/>
     <use xlink:href="#DejaVuSans-79" transform="translate(258.935547 0)"/>
    </g>
   </g>
   <g id="line2d_32">
    <path d="M 352.251125 175.494375 
L 374.251125 175.494375 
L 396.251125 175.494375 
" style="fill: none"/>
   </g>
   <g id="text_14">
    <!-- Operation -->
    <g style="fill: #262626" transform="translate(413.851125 183.194375) scale(0.22 -0.22)">
     <defs>
      <path id="DejaVuSans-4f" d="M 2522 4238 
Q 1834 4238 1429 3725 
Q 1025 3213 1025 2328 
Q 1025 1447 1429 934 
Q 1834 422 2522 422 
Q 3209 422 3611 934 
Q 4013 1447 4013 2328 
Q 4013 3213 3611 3725 
Q 3209 4238 2522 4238 
z
M 2522 4750 
Q 3503 4750 4090 4092 
Q 4678 3434 4678 2328 
Q 4678 1225 4090 567 
Q 3503 -91 2522 -91 
Q 1538 -91 948 565 
Q 359 1222 359 2328 
Q 359 3434 948 4092 
Q 1538 4750 2522 4750 
z
" transform="scale(0.015625)"/>
      <path id="DejaVuSans-70" d="M 1159 525 
L 1159 -1331 
L 581 -1331 
L 581 3500 
L 1159 3500 
L 1159 2969 
Q 1341 3281 1617 3432 
Q 1894 3584 2278 3584 
Q 2916 3584 3314 3078 
Q 3713 2572 3713 1747 
Q 3713 922 3314 415 
Q 2916 -91 2278 -91 
Q 1894 -91 1617 61 
Q 1341 213 1159 525 
z
M 3116 1747 
Q 3116 2381 2855 2742 
Q 2594 3103 2138 3103 
Q 1681 3103 1420 2742 
Q 1159 2381 1159 1747 
Q 1159 1113 1420 752 
Q 1681 391 2138 391 
Q 2594 391 2855 752 
Q 3116 1113 3116 1747 
z
" transform="scale(0.015625)"/>
     </defs>
     <use xlink:href="#DejaVuSans-4f"/>
     <use xlink:href="#DejaVuSans-70" transform="translate(78.710938 0)"/>
     <use xlink:href="#DejaVuSans-65" transform="translate(142.1875 0)"/>
     <use xlink:href="#DejaVuSans-72" transform="translate(203.710938 0)"/>
     <use xlink:href="#DejaVuSans-61" transform="translate(244.824219 0)"/>
     <use xlink:href="#DejaVuSans-74" transform="translate(306.103516 0)"/>
     <use xlink:href="#DejaVuSans-69" transform="translate(345.3125 0)"/>
     <use xlink:href="#DejaVuSans-6f" transform="translate(373.095703 0)"/>
     <use xlink:href="#DejaVuSans-6e" transform="translate(434.277344 0)"/>
    </g>
   </g>
   <g id="line2d_33">
    <path d="M 352.251125 207.78625 
L 374.251125 207.78625 
L 396.251125 207.78625 
" style="fill: none; stroke: #333333; stroke-width: 3; stroke-linecap: round"/>
   </g>
   <g id="text_15">
    <!-- alloc -->
    <g style="fill: #262626" transform="translate(413.851125 215.48625) scale(0.22 -0.22)">
     <use xlink:href="#DejaVuSans-61"/>
     <use xlink:href="#DejaVuSans-6c" transform="translate(61.279297 0)"/>
     <use xlink:href="#DejaVuSans-6c" transform="translate(89.0625 0)"/>
     <use xlink:href="#DejaVuSans-6f" transform="translate(116.845703 0)"/>
     <use xlink:href="#DejaVuSans-63" transform="translate(178.027344 0)"/>
    </g>
   </g>
   <g id="line2d_34">
    <path d="M 352.251125 240.078125 
L 374.251125 240.078125 
L 396.251125 240.078125 
" style="fill: none; stroke-dasharray: 12,4.5; stroke-dashoffset: 0; stroke: #333333; stroke-width: 3"/>
   </g>
   <g id="text_16">
    <!-- free -->
    <g style="fill: #262626" transform="translate(413.851125 247.778125) scale(0.22 -0.22)">
     <defs>
      <path id="DejaVuSans-66" d="M 2375 4863 
L 2375 4384 
L 1825 4384 
Q 1516 4384 1395 4259 
Q 1275 4134 1275 3809 
L 1275 3500 
L 2222 3500 
L 2222 3053 
L 1275 3053 
L 1275 0 
L 697 0 
L 697 3053 
L 147 3053 
L 147 3500 
L 697 3500 
L 697 3744 
Q 697 4328 969 4595 
Q 1241 4863 1831 4863 
L 2375 4863 
z
" transform="scale(0.015625)"/>
     </defs>
     <use xlink:href="#DejaVuSans-66"/>
     <use xlink:href="#DejaVuSans-72" transform="translate(35.205078 0)"/>
     <use xlink:href="#DejaVuSans-65" transform="translate(74.068359 0)"/>
     <use xlink:href="#DejaVuSans-65" transform="translate(135.591797 0)"/>
    </g>
   </g>
  </g>
 </g>
 <defs>
  <clipPath id="p94f1775aaa">
   <rect x="105.9175" y="31.43625" width="246.265938" height="219.3"/>
  </clipPath>
 </defs>
</svg>
