<?xml version="1.0" encoding="utf-8" standalone="no"?>
<!DOCTYPE svg PUBLIC "-//W3C//DTD SVG 1.1//EN"
  "http://www.w3.org/Graphics/SVG/1.1/DTD/svg11.dtd">
<svg xmlns:xlink="http://www.w3.org/1999/xlink" width="878.892609pt" height="321.955625pt" viewBox="0 0 878.892609 321.955625" xmlns="http://www.w3.org/2000/svg" version="1.1">
 <metadata>
  <rdf:RDF xmlns:dc="http://purl.org/dc/elements/1.1/" xmlns:cc="http://creativecommons.org/ns#" xmlns:rdf="http://www.w3.org/1999/02/22-rdf-syntax-ns#">
   <cc:Work>
    <dc:type rdf:resource="http://purl.org/dc/dcmitype/StillImage"/>
    <dc:date>2025-04-24T16:12:10.289346</dc:date>
    <dc:format>image/svg+xml</dc:format>
    <dc:creator>
     <cc:Agent>
      <dc:title>Matplotlib v3.10.1, https://matplotlib.org/</dc:title>
     </cc:Agent>
    </dc:creator>
   </cc:Work>
  </rdf:RDF>
 </metadata>
 <defs>
  <style type="text/css">*{stroke-linejoin: round; stroke-linecap: butt}</style>
 </defs>
 <g id="figure_1">
  <g id="patch_1">
   <path d="M 0 321.955625 
L 878.892609 321.955625 
L 878.892609 0 
L 0 0 
z
" style="fill: #ffffff"/>
  </g>
  <g id="axes_1">
   <g id="patch_2">
    <path d="M 105.9175 250.73625 
L 369.283828 250.73625 
L 369.283828 31.43625 
L 105.9175 31.43625 
z
" style="fill: #ffffff"/>
   </g>
   <g id="matplotlib.axis_1">
    <g id="xtick_1">
     <g id="line2d_1">
      <path d="M 117.888697 250.73625 
L 117.888697 31.43625 
" clip-path="url(#p8ad11bae9f)" style="fill: none; stroke: #cccccc; stroke-width: 2; stroke-linecap: round"/>
     </g>
     <g id="text_1">
      <!-- 1 -->
      <g style="fill: #262626" transform="translate(110.889947 282.952812) scale(0.22 -0.22)">
       <defs>
        <path id="DejaVuSans-31" d="M 794 531 
L 1825 531 
L 1825 4091 
L 703 3866 
L 703 4441 
L 1819 4666 
L 2450 4666 
L 2450 531 
L 3481 531 
L 3481 0 
L 794 0 
L 794 531 
z
" transform="scale(0.015625)"/>
       </defs>
       <use xlink:href="#DejaVuSans-31"/>
      </g>
     </g>
    </g>
    <g id="xtick_2">
     <g id="line2d_2">
      <path d="M 184.927398 250.73625 
L 184.927398 31.43625 
" clip-path="url(#p8ad11bae9f)" style="fill: none; stroke: #cccccc; stroke-width: 2; stroke-linecap: round"/>
     </g>
     <g id="text_2">
      <!-- 8 -->
      <g style="fill: #262626" transform="translate(177.928648 282.952812) scale(0.22 -0.22)">
       <defs>
        <path id="DejaVuSans-38" d="M 2034 2216 
Q 1584 2216 1326 1975 
Q 1069 1734 1069 1313 
Q 1069 891 1326 650 
Q 1584 409 2034 409 
Q 2484 409 2743 651 
Q 3003 894 3003 1313 
Q 3003 1734 2745 1975 
Q 2488 2216 2034 2216 
z
M 1403 2484 
Q 997 2584 770 2862 
Q 544 3141 544 3541 
Q 544 4100 942 4425 
Q 1341 4750 2034 4750 
Q 2731 4750 3128 4425 
Q 3525 4100 3525 3541 
Q 3525 3141 3298 2862 
Q 3072 2584 2669 2484 
Q 3125 2378 3379 2068 
Q 3634 1759 3634 1313 
Q 3634 634 3220 271 
Q 2806 -91 2034 -91 
Q 1263 -91 848 271 
Q 434 634 434 1313 
Q 434 1759 690 2068 
Q 947 2378 1403 2484 
z
M 1172 3481 
Q 1172 3119 1398 2916 
Q 1625 2713 2034 2713 
Q 2441 2713 2670 2916 
Q 2900 3119 2900 3481 
Q 2900 3844 2670 4047 
Q 2441 4250 2034 4250 
Q 1625 4250 1398 4047 
Q 1172 3844 1172 3481 
z
" transform="scale(0.015625)"/>
       </defs>
       <use xlink:href="#DejaVuSans-38"/>
      </g>
     </g>
    </g>
    <g id="xtick_3">
     <g id="line2d_3">
      <path d="M 261.543057 250.73625 
L 261.543057 31.43625 
" clip-path="url(#p8ad11bae9f)" style="fill: none; stroke: #cccccc; stroke-width: 2; stroke-linecap: round"/>
     </g>
     <g id="text_3">
      <!-- 16 -->
      <g style="fill: #262626" transform="translate(247.545557 282.952812) scale(0.22 -0.22)">
       <defs>
        <path id="DejaVuSans-36" d="M 2113 2584 
Q 1688 2584 1439 2293 
Q 1191 2003 1191 1497 
Q 1191 994 1439 701 
Q 1688 409 2113 409 
Q 2538 409 2786 701 
Q 3034 994 3034 1497 
Q 3034 2003 2786 2293 
Q 2538 2584 2113 2584 
z
M 3366 4563 
L 3366 3988 
Q 3128 4100 2886 4159 
Q 2644 4219 2406 4219 
Q 1781 4219 1451 3797 
Q 1122 3375 1075 2522 
Q 1259 2794 1537 2939 
Q 1816 3084 2150 3084 
Q 2853 3084 3261 2657 
Q 3669 2231 3669 1497 
Q 3669 778 3244 343 
Q 2819 -91 2113 -91 
Q 1303 -91 875 529 
Q 447 1150 447 2328 
Q 447 3434 972 4092 
Q 1497 4750 2381 4750 
Q 2619 4750 2861 4703 
Q 3103 4656 3366 4563 
z
" transform="scale(0.015625)"/>
       </defs>
       <use xlink:href="#DejaVuSans-31"/>
       <use xlink:href="#DejaVuSans-36" transform="translate(63.623047 0)"/>
      </g>
     </g>
    </g>
    <g id="xtick_4">
     <g id="line2d_4">
      <path d="M 338.158716 250.73625 
L 338.158716 31.43625 
" clip-path="url(#p8ad11bae9f)" style="fill: none; stroke: #cccccc; stroke-width: 2; stroke-linecap: round"/>
     </g>
    </g>
    <g id="xtick_5">
     <g id="line2d_5">
      <path d="M 357.312631 250.73625 
L 357.312631 31.43625 
" clip-path="url(#p8ad11bae9f)" style="fill: none; stroke: #cccccc; stroke-width: 2; stroke-linecap: round"/>
     </g>
     <g id="text_4">
      <!-- 26 -->
      <g style="fill: #262626" transform="translate(343.315131 282.952812) scale(0.22 -0.22)">
       <defs>
        <path id="DejaVuSans-32" d="M 1228 531 
L 3431 531 
L 3431 0 
L 469 0 
L 469 531 
Q 828 903 1448 1529 
Q 2069 2156 2228 2338 
Q 2531 2678 2651 2914 
Q 2772 3150 2772 3378 
Q 2772 3750 2511 3984 
Q 2250 4219 1831 4219 
Q 1534 4219 1204 4116 
Q 875 4013 500 3803 
L 500 4441 
Q 881 4594 1212 4672 
Q 1544 4750 1819 4750 
Q 2544 4750 2975 4387 
Q 3406 4025 3406 3419 
Q 3406 3131 3298 2873 
Q 3191 2616 2906 2266 
Q 2828 2175 2409 1742 
Q 1991 1309 1228 531 
z
" transform="scale(0.015625)"/>
       </defs>
       <use xlink:href="#DejaVuSans-32"/>
       <use xlink:href="#DejaVuSans-36" transform="translate(63.623047 0)"/>
      </g>
     </g>
    </g>
    <g id="xtick_6">
     <g id="line2d_6">
      <path d="M 108.311739 250.73625 
L 108.311739 31.43625 
" clip-path="url(#p8ad11bae9f)" style="fill: none; stroke: #cccccc; stroke-opacity: 0.3; stroke-width: 2; stroke-linecap: round"/>
     </g>
    </g>
    <g id="xtick_7">
     <g id="line2d_7">
      <path d="M 127.465654 250.73625 
L 127.465654 31.43625 
" clip-path="url(#p8ad11bae9f)" style="fill: none; stroke: #cccccc; stroke-opacity: 0.3; stroke-width: 2; stroke-linecap: round"/>
     </g>
    </g>
    <g id="xtick_8">
     <g id="line2d_8">
      <path d="M 146.619569 250.73625 
L 146.619569 31.43625 
" clip-path="url(#p8ad11bae9f)" style="fill: none; stroke: #cccccc; stroke-opacity: 0.3; stroke-width: 2; stroke-linecap: round"/>
     </g>
    </g>
    <g id="xtick_9">
     <g id="line2d_9">
      <path d="M 165.773484 250.73625 
L 165.773484 31.43625 
" clip-path="url(#p8ad11bae9f)" style="fill: none; stroke: #cccccc; stroke-opacity: 0.3; stroke-width: 2; stroke-linecap: round"/>
     </g>
    </g>
    <g id="xtick_10">
     <g id="line2d_10">
      <path d="M 204.081313 250.73625 
L 204.081313 31.43625 
" clip-path="url(#p8ad11bae9f)" style="fill: none; stroke: #cccccc; stroke-opacity: 0.3; stroke-width: 2; stroke-linecap: round"/>
     </g>
    </g>
    <g id="xtick_11">
     <g id="line2d_11">
      <path d="M 223.235228 250.73625 
L 223.235228 31.43625 
" clip-path="url(#p8ad11bae9f)" style="fill: none; stroke: #cccccc; stroke-opacity: 0.3; stroke-width: 2; stroke-linecap: round"/>
     </g>
    </g>
    <g id="xtick_12">
     <g id="line2d_12">
      <path d="M 242.389143 250.73625 
L 242.389143 31.43625 
" clip-path="url(#p8ad11bae9f)" style="fill: none; stroke: #cccccc; stroke-opacity: 0.3; stroke-width: 2; stroke-linecap: round"/>
     </g>
    </g>
    <g id="xtick_13">
     <g id="line2d_13">
      <path d="M 280.696972 250.73625 
L 280.696972 31.43625 
" clip-path="url(#p8ad11bae9f)" style="fill: none; stroke: #cccccc; stroke-opacity: 0.3; stroke-width: 2; stroke-linecap: round"/>
     </g>
    </g>
    <g id="xtick_14">
     <g id="line2d_14">
      <path d="M 299.850887 250.73625 
L 299.850887 31.43625 
" clip-path="url(#p8ad11bae9f)" style="fill: none; stroke: #cccccc; stroke-opacity: 0.3; stroke-width: 2; stroke-linecap: round"/>
     </g>
    </g>
    <g id="xtick_15">
     <g id="line2d_15">
      <path d="M 319.004802 250.73625 
L 319.004802 31.43625 
" clip-path="url(#p8ad11bae9f)" style="fill: none; stroke: #cccccc; stroke-opacity: 0.3; stroke-width: 2; stroke-linecap: round"/>
     </g>
    </g>
    <g id="text_5">
     <!-- Threads -->
     <g style="fill: #262626" transform="translate(189.396289 309.764375) scale(0.24 -0.24)">
      <defs>
       <path id="DejaVuSans-54" d="M -19 4666 
L 3928 4666 
L 3928 4134 
L 2272 4134 
L 2272 0 
L 1638 0 
L 1638 4134 
L -19 4134 
L -19 4666 
z
" transform="scale(0.015625)"/>
       <path id="DejaVuSans-68" d="M 3513 2113 
L 3513 0 
L 2938 0 
L 2938 2094 
Q 2938 2591 2744 2837 
Q 2550 3084 2163 3084 
Q 1697 3084 1428 2787 
Q 1159 2491 1159 1978 
L 1159 0 
L 581 0 
L 581 4863 
L 1159 4863 
L 1159 2956 
Q 1366 3272 1645 3428 
Q 1925 3584 2291 3584 
Q 2894 3584 3203 3211 
Q 3513 2838 3513 2113 
z
" transform="scale(0.015625)"/>
       <path id="DejaVuSans-72" d="M 2631 2963 
Q 2534 3019 2420 3045 
Q 2306 3072 2169 3072 
Q 1681 3072 1420 2755 
Q 1159 2438 1159 1844 
L 1159 0 
L 581 0 
L 581 3500 
L 1159 3500 
L 1159 2956 
Q 1341 3275 1631 3429 
Q 1922 3584 2338 3584 
Q 2397 3584 2469 3576 
Q 2541 3569 2628 3553 
L 2631 2963 
z
" transform="scale(0.015625)"/>
       <path id="DejaVuSans-65" d="M 3597 1894 
L 3597 1613 
L 953 1613 
Q 991 1019 1311 708 
Q 1631 397 2203 397 
Q 2534 397 2845 478 
Q 3156 559 3463 722 
L 3463 178 
Q 3153 47 2828 -22 
Q 2503 -91 2169 -91 
Q 1331 -91 842 396 
Q 353 884 353 1716 
Q 353 2575 817 3079 
Q 1281 3584 2069 3584 
Q 2775 3584 3186 3129 
Q 3597 2675 3597 1894 
z
M 3022 2063 
Q 3016 2534 2758 2815 
Q 2500 3097 2075 3097 
Q 1594 3097 1305 2825 
Q 1016 2553 972 2059 
L 3022 2063 
z
" transform="scale(0.015625)"/>
       <path id="DejaVuSans-61" d="M 2194 1759 
Q 1497 1759 1228 1600 
Q 959 1441 959 1056 
Q 959 750 1161 570 
Q 1363 391 1709 391 
Q 2188 391 2477 730 
Q 2766 1069 2766 1631 
L 2766 1759 
L 2194 1759 
z
M 3341 1997 
L 3341 0 
L 2766 0 
L 2766 531 
Q 2569 213 2275 61 
Q 1981 -91 1556 -91 
Q 1019 -91 701 211 
Q 384 513 384 1019 
Q 384 1609 779 1909 
Q 1175 2209 1959 2209 
L 2766 2209 
L 2766 2266 
Q 2766 2663 2505 2880 
Q 2244 3097 1772 3097 
Q 1472 3097 1187 3025 
Q 903 2953 641 2809 
L 641 3341 
Q 956 3463 1253 3523 
Q 1550 3584 1831 3584 
Q 2591 3584 2966 3190 
Q 3341 2797 3341 1997 
z
" transform="scale(0.015625)"/>
       <path id="DejaVuSans-64" d="M 2906 2969 
L 2906 4863 
L 3481 4863 
L 3481 0 
L 2906 0 
L 2906 525 
Q 2725 213 2448 61 
Q 2172 -91 1784 -91 
Q 1150 -91 751 415 
Q 353 922 353 1747 
Q 353 2572 751 3078 
Q 1150 3584 1784 3584 
Q 2172 3584 2448 3432 
Q 2725 3281 2906 2969 
z
M 947 1747 
Q 947 1113 1208 752 
Q 1469 391 1925 391 
Q 2381 391 2643 752 
Q 2906 1113 2906 1747 
Q 2906 2381 2643 2742 
Q 2381 3103 1925 3103 
Q 1469 3103 1208 2742 
Q 947 2381 947 1747 
z
" transform="scale(0.015625)"/>
       <path id="DejaVuSans-73" d="M 2834 3397 
L 2834 2853 
Q 2591 2978 2328 3040 
Q 2066 3103 1784 3103 
Q 1356 3103 1142 2972 
Q 928 2841 928 2578 
Q 928 2378 1081 2264 
Q 1234 2150 1697 2047 
L 1894 2003 
Q 2506 1872 2764 1633 
Q 3022 1394 3022 966 
Q 3022 478 2636 193 
Q 2250 -91 1575 -91 
Q 1294 -91 989 -36 
Q 684 19 347 128 
L 347 722 
Q 666 556 975 473 
Q 1284 391 1588 391 
Q 1994 391 2212 530 
Q 2431 669 2431 922 
Q 2431 1156 2273 1281 
Q 2116 1406 1581 1522 
L 1381 1569 
Q 847 1681 609 1914 
Q 372 2147 372 2553 
Q 372 3047 722 3315 
Q 1072 3584 1716 3584 
Q 2034 3584 2315 3537 
Q 2597 3491 2834 3397 
z
" transform="scale(0.015625)"/>
      </defs>
      <use xlink:href="#DejaVuSans-54"/>
      <use xlink:href="#DejaVuSans-68" transform="translate(61.083984 0)"/>
      <use xlink:href="#DejaVuSans-72" transform="translate(124.462891 0)"/>
      <use xlink:href="#DejaVuSans-65" transform="translate(163.326172 0)"/>
      <use xlink:href="#DejaVuSans-61" transform="translate(224.849609 0)"/>
      <use xlink:href="#DejaVuSans-64" transform="translate(286.128906 0)"/>
      <use xlink:href="#DejaVuSans-73" transform="translate(349.605469 0)"/>
     </g>
    </g>
   </g>
   <g id="matplotlib.axis_2">
    <g id="ytick_1">
     <g id="line2d_16">
      <path d="M 105.9175 250.73625 
L 369.283828 250.73625 
" clip-path="url(#p8ad11bae9f)" style="fill: none; stroke: #cccccc; stroke-width: 2; stroke-linecap: round"/>
     </g>
     <g id="text_6">
      <!-- 0 -->
      <g style="fill: #262626" transform="translate(76.42 259.094531) scale(0.22 -0.22)">
       <defs>
        <path id="DejaVuSans-30" d="M 2034 4250 
Q 1547 4250 1301 3770 
Q 1056 3291 1056 2328 
Q 1056 1369 1301 889 
Q 1547 409 2034 409 
Q 2525 409 2770 889 
Q 3016 1369 3016 2328 
Q 3016 3291 2770 3770 
Q 2525 4250 2034 4250 
z
M 2034 4750 
Q 2819 4750 3233 4129 
Q 3647 3509 3647 2328 
Q 3647 1150 3233 529 
Q 2819 -91 2034 -91 
Q 1250 -91 836 529 
Q 422 1150 422 2328 
Q 422 3509 836 4129 
Q 1250 4750 2034 4750 
z
" transform="scale(0.015625)"/>
       </defs>
       <use xlink:href="#DejaVuSans-30"/>
      </g>
     </g>
    </g>
    <g id="ytick_2">
     <g id="line2d_17">
      <path d="M 105.9175 166.364136 
L 369.283828 166.364136 
" clip-path="url(#p8ad11bae9f)" style="fill: none; stroke: #cccccc; stroke-width: 2; stroke-linecap: round"/>
     </g>
     <g id="text_7">
      <!-- 500 -->
      <g style="fill: #262626" transform="translate(48.425 174.722417) scale(0.22 -0.22)">
       <defs>
        <path id="DejaVuSans-35" d="M 691 4666 
L 3169 4666 
L 3169 4134 
L 1269 4134 
L 1269 2991 
Q 1406 3038 1543 3061 
Q 1681 3084 1819 3084 
Q 2600 3084 3056 2656 
Q 3513 2228 3513 1497 
Q 3513 744 3044 326 
Q 2575 -91 1722 -91 
Q 1428 -91 1123 -41 
Q 819 9 494 109 
L 494 744 
Q 775 591 1075 516 
Q 1375 441 1709 441 
Q 2250 441 2565 725 
Q 2881 1009 2881 1497 
Q 2881 1984 2565 2268 
Q 2250 2553 1709 2553 
Q 1456 2553 1204 2497 
Q 953 2441 691 2322 
L 691 4666 
z
" transform="scale(0.015625)"/>
       </defs>
       <use xlink:href="#DejaVuSans-35"/>
       <use xlink:href="#DejaVuSans-30" transform="translate(63.623047 0)"/>
       <use xlink:href="#DejaVuSans-30" transform="translate(127.246094 0)"/>
      </g>
     </g>
    </g>
    <g id="ytick_3">
     <g id="line2d_18">
      <path d="M 105.9175 81.992021 
L 369.283828 81.992021 
" clip-path="url(#p8ad11bae9f)" style="fill: none; stroke: #cccccc; stroke-width: 2; stroke-linecap: round"/>
     </g>
     <g id="text_8">
      <!-- 1000 -->
      <g style="fill: #262626" transform="translate(34.4275 90.350302) scale(0.22 -0.22)">
       <use xlink:href="#DejaVuSans-31"/>
       <use xlink:href="#DejaVuSans-30" transform="translate(63.623047 0)"/>
       <use xlink:href="#DejaVuSans-30" transform="translate(127.246094 0)"/>
       <use xlink:href="#DejaVuSans-30" transform="translate(190.869141 0)"/>
      </g>
     </g>
    </g>
    <g id="text_9">
     <!-- Avg. time (ns) -->
     <g style="fill: #262626" transform="translate(25.43625 225.0825) rotate(-90) scale(0.24 -0.24)">
      <defs>
       <path id="DejaVuSans-41" d="M 2188 4044 
L 1331 1722 
L 3047 1722 
L 2188 4044 
z
M 1831 4666 
L 2547 4666 
L 4325 0 
L 3669 0 
L 3244 1197 
L 1141 1197 
L 716 0 
L 50 0 
L 1831 4666 
z
" transform="scale(0.015625)"/>
       <path id="DejaVuSans-76" d="M 191 3500 
L 800 3500 
L 1894 563 
L 2988 3500 
L 3597 3500 
L 2284 0 
L 1503 0 
L 191 3500 
z
" transform="scale(0.015625)"/>
       <path id="DejaVuSans-67" d="M 2906 1791 
Q 2906 2416 2648 2759 
Q 2391 3103 1925 3103 
Q 1463 3103 1205 2759 
Q 947 2416 947 1791 
Q 947 1169 1205 825 
Q 1463 481 1925 481 
Q 2391 481 2648 825 
Q 2906 1169 2906 1791 
z
M 3481 434 
Q 3481 -459 3084 -895 
Q 2688 -1331 1869 -1331 
Q 1566 -1331 1297 -1286 
Q 1028 -1241 775 -1147 
L 775 -588 
Q 1028 -725 1275 -790 
Q 1522 -856 1778 -856 
Q 2344 -856 2625 -561 
Q 2906 -266 2906 331 
L 2906 616 
Q 2728 306 2450 153 
Q 2172 0 1784 0 
Q 1141 0 747 490 
Q 353 981 353 1791 
Q 353 2603 747 3093 
Q 1141 3584 1784 3584 
Q 2172 3584 2450 3431 
Q 2728 3278 2906 2969 
L 2906 3500 
L 3481 3500 
L 3481 434 
z
" transform="scale(0.015625)"/>
       <path id="DejaVuSans-2e" d="M 684 794 
L 1344 794 
L 1344 0 
L 684 0 
L 684 794 
z
" transform="scale(0.015625)"/>
       <path id="DejaVuSans-20" transform="scale(0.015625)"/>
       <path id="DejaVuSans-74" d="M 1172 4494 
L 1172 3500 
L 2356 3500 
L 2356 3053 
L 1172 3053 
L 1172 1153 
Q 1172 725 1289 603 
Q 1406 481 1766 481 
L 2356 481 
L 2356 0 
L 1766 0 
Q 1100 0 847 248 
Q 594 497 594 1153 
L 594 3053 
L 172 3053 
L 172 3500 
L 594 3500 
L 594 4494 
L 1172 4494 
z
" transform="scale(0.015625)"/>
       <path id="DejaVuSans-69" d="M 603 3500 
L 1178 3500 
L 1178 0 
L 603 0 
L 603 3500 
z
M 603 4863 
L 1178 4863 
L 1178 4134 
L 603 4134 
L 603 4863 
z
" transform="scale(0.015625)"/>
       <path id="DejaVuSans-6d" d="M 3328 2828 
Q 3544 3216 3844 3400 
Q 4144 3584 4550 3584 
Q 5097 3584 5394 3201 
Q 5691 2819 5691 2113 
L 5691 0 
L 5113 0 
L 5113 2094 
Q 5113 2597 4934 2840 
Q 4756 3084 4391 3084 
Q 3944 3084 3684 2787 
Q 3425 2491 3425 1978 
L 3425 0 
L 2847 0 
L 2847 2094 
Q 2847 2600 2669 2842 
Q 2491 3084 2119 3084 
Q 1678 3084 1418 2786 
Q 1159 2488 1159 1978 
L 1159 0 
L 581 0 
L 581 3500 
L 1159 3500 
L 1159 2956 
Q 1356 3278 1631 3431 
Q 1906 3584 2284 3584 
Q 2666 3584 2933 3390 
Q 3200 3197 3328 2828 
z
" transform="scale(0.015625)"/>
       <path id="DejaVuSans-28" d="M 1984 4856 
Q 1566 4138 1362 3434 
Q 1159 2731 1159 2009 
Q 1159 1288 1364 580 
Q 1569 -128 1984 -844 
L 1484 -844 
Q 1016 -109 783 600 
Q 550 1309 550 2009 
Q 550 2706 781 3412 
Q 1013 4119 1484 4856 
L 1984 4856 
z
" transform="scale(0.015625)"/>
       <path id="DejaVuSans-6e" d="M 3513 2113 
L 3513 0 
L 2938 0 
L 2938 2094 
Q 2938 2591 2744 2837 
Q 2550 3084 2163 3084 
Q 1697 3084 1428 2787 
Q 1159 2491 1159 1978 
L 1159 0 
L 581 0 
L 581 3500 
L 1159 3500 
L 1159 2956 
Q 1366 3272 1645 3428 
Q 1925 3584 2291 3584 
Q 2894 3584 3203 3211 
Q 3513 2838 3513 2113 
z
" transform="scale(0.015625)"/>
       <path id="DejaVuSans-29" d="M 513 4856 
L 1013 4856 
Q 1481 4119 1714 3412 
Q 1947 2706 1947 2009 
Q 1947 1309 1714 600 
Q 1481 -109 1013 -844 
L 513 -844 
Q 928 -128 1133 580 
Q 1338 1288 1338 2009 
Q 1338 2731 1133 3434 
Q 928 4138 513 4856 
z
" transform="scale(0.015625)"/>
      </defs>
      <use xlink:href="#DejaVuSans-41"/>
      <use xlink:href="#DejaVuSans-76" transform="translate(62.533203 0)"/>
      <use xlink:href="#DejaVuSans-67" transform="translate(121.712891 0)"/>
      <use xlink:href="#DejaVuSans-2e" transform="translate(185.189453 0)"/>
      <use xlink:href="#DejaVuSans-20" transform="translate(216.976562 0)"/>
      <use xlink:href="#DejaVuSans-74" transform="translate(248.763672 0)"/>
      <use xlink:href="#DejaVuSans-69" transform="translate(287.972656 0)"/>
      <use xlink:href="#DejaVuSans-6d" transform="translate(315.755859 0)"/>
      <use xlink:href="#DejaVuSans-65" transform="translate(413.167969 0)"/>
      <use xlink:href="#DejaVuSans-20" transform="translate(474.691406 0)"/>
      <use xlink:href="#DejaVuSans-28" transform="translate(506.478516 0)"/>
      <use xlink:href="#DejaVuSans-6e" transform="translate(545.492188 0)"/>
      <use xlink:href="#DejaVuSans-73" transform="translate(608.871094 0)"/>
      <use xlink:href="#DejaVuSans-29" transform="translate(660.970703 0)"/>
     </g>
    </g>
   </g>
   <g id="FillBetweenPolyCollection_1">
    <defs>
     <path id="m6dea7b0bea" d="M 117.888697 -87.207891 
L 117.888697 -86.954774 
L 127.465654 -88.768775 
L 137.042611 -90.456217 
L 146.619569 -96.362265 
L 156.196526 -103.112034 
L 165.773484 -109.229013 
L 175.350441 -115.767851 
L 184.927398 -121.378597 
L 194.504356 -128.465855 
L 204.081313 -134.667205 
L 213.65827 -141.079486 
L 223.235228 -147.154278 
L 232.812185 -153.608745 
L 242.389143 -160.485072 
L 251.9661 -166.897353 
L 261.543057 -172.128424 
L 271.120015 -179.721914 
L 280.696972 -185.965451 
L 290.27393 -192.377731 
L 299.850887 -198.283779 
L 309.427844 -204.69606 
L 319.004802 -211.108341 
L 328.581759 -217.689366 
L 338.158716 -223.300111 
L 347.735674 -230.682671 
L 357.312631 -237.094952 
L 357.312631 -237.390255 
L 357.312631 -237.390255 
L 347.735674 -230.80923 
L 338.158716 -223.553228 
L 328.581759 -217.942482 
L 319.004802 -211.277085 
L 309.427844 -204.949176 
L 299.850887 -198.452524 
L 290.27393 -192.546476 
L 280.696972 -185.965451 
L 271.120015 -179.848472 
L 261.543057 -172.297168 
L 251.9661 -167.023911 
L 242.389143 -160.653816 
L 232.812185 -153.861861 
L 223.235228 -147.154278 
L 213.65827 -141.079486 
L 204.081313 -134.835949 
L 194.504356 -128.592413 
L 184.927398 -121.505155 
L 175.350441 -116.147526 
L 165.773484 -109.355571 
L 156.196526 -103.365151 
L 146.619569 -96.615381 
L 137.042611 -90.456217 
L 127.465654 -88.937519 
L 117.888697 -87.207891 
z
" style="stroke: #0173b2; stroke-opacity: 0.2; stroke-width: 2"/>
    </defs>
    <g clip-path="url(#p8ad11bae9f)">
     <use xlink:href="#m6dea7b0bea" x="0" y="321.955625" style="fill: #0173b2; fill-opacity: 0.2; stroke: #0173b2; stroke-opacity: 0.2; stroke-width: 2"/>
    </g>
   </g>
   <g id="FillBetweenPolyCollection_2">
    <defs>
     <path id="m59e02d1b21" d="M 117.888697 -86.532914 
L 117.888697 -86.406356 
L 127.465654 -87.418821 
L 137.042611 -92.649892 
L 146.619569 -100.116824 
L 156.196526 -107.415012 
L 165.773484 -114.92413 
L 175.350441 -123.192598 
L 184.927398 -130.153297 
L 194.504356 -138.379578 
L 204.081313 -145.888696 
L 213.65827 -154.536838 
L 223.235228 -160.696002 
L 232.812185 -169.38633 
L 242.389143 -178.118844 
L 251.9661 -187.231032 
L 261.543057 -194.233918 
L 271.120015 -203.767967 
L 280.696972 -210.855224 
L 290.27393 -220.220529 
L 299.850887 -228.44681 
L 309.427844 -235.744998 
L 319.004802 -244.941559 
L 328.581759 -253.716259 
L 338.158716 -261.73161 
L 347.735674 -270.92817 
L 357.312631 -280.546591 
L 357.312631 -280.799707 
L 357.312631 -280.799707 
L 347.735674 -272.067194 
L 338.158716 -262.744075 
L 328.581759 -254.475608 
L 319.004802 -245.78528 
L 309.427844 -238.276162 
L 299.850887 -228.826485 
L 290.27393 -220.85332 
L 280.696972 -212.28955 
L 271.120015 -204.105455 
L 261.543057 -194.824523 
L 251.9661 -187.568521 
L 242.389143 -179.131309 
L 232.812185 -170.862842 
L 223.235228 -161.413165 
L 213.65827 -155.043071 
L 204.081313 -146.268371 
L 194.504356 -138.970183 
L 184.927398 -131.376693 
L 175.350441 -123.69883 
L 165.773484 -115.345991 
L 156.196526 -108.005617 
L 146.619569 -100.623057 
L 137.042611 -93.282683 
L 127.465654 -87.545379 
L 117.888697 -86.532914 
z
" style="stroke: #de8f05; stroke-opacity: 0.2; stroke-width: 2"/>
    </defs>
    <g clip-path="url(#p8ad11bae9f)">
     <use xlink:href="#m59e02d1b21" x="0" y="321.955625" style="fill: #de8f05; fill-opacity: 0.2; stroke: #de8f05; stroke-opacity: 0.2; stroke-width: 2"/>
    </g>
   </g>
   <g id="line2d_19">
    <path d="M 117.888697 234.874292 
L 127.465654 233.102478 
L 137.042611 231.499408 
L 146.619569 225.466802 
L 156.196526 218.759219 
L 165.773484 212.64224 
L 175.350441 206.061215 
L 184.927398 200.492656 
L 194.504356 193.405398 
L 204.081313 187.204048 
L 213.65827 180.876139 
L 223.235228 174.801347 
L 232.812185 168.220322 
L 242.389143 161.386181 
L 251.9661 155.016086 
L 261.543057 149.742829 
L 271.120015 142.191525 
L 280.696972 135.990174 
L 290.27393 129.493521 
L 299.850887 123.587473 
L 309.427844 117.133007 
L 319.004802 110.762912 
L 328.581759 104.139701 
L 338.158716 98.528955 
L 347.735674 91.230768 
L 357.312631 84.734115 
" clip-path="url(#p8ad11bae9f)" style="fill: none; stroke: #0173b2; stroke-width: 3; stroke-linecap: round"/>
   </g>
   <g id="line2d_20">
    <path d="M 117.888697 235.507083 
L 127.465654 234.494618 
L 137.042611 229.052617 
L 146.619569 221.62787 
L 156.196526 214.287497 
L 165.773484 206.820564 
L 175.350441 198.425539 
L 184.927398 191.085165 
L 194.504356 183.280744 
L 204.081313 175.898184 
L 213.65827 167.123485 
L 223.235228 160.879948 
L 232.812185 151.809946 
L 242.389143 143.246176 
L 251.9661 134.555848 
L 261.543057 127.426405 
L 271.120015 118.018914 
L 280.696972 110.256679 
L 290.27393 101.355421 
L 299.850887 93.297884 
L 309.427844 84.691929 
L 319.004802 76.55002 
L 328.581759 67.859692 
L 338.158716 59.591225 
L 347.735674 50.394664 
L 357.312631 41.282476 
" clip-path="url(#p8ad11bae9f)" style="fill: none; stroke-dasharray: 12,4.5; stroke-dashoffset: 0; stroke: #de8f05; stroke-width: 3"/>
   </g>
   <g id="line2d_21"/>
   <g id="line2d_22"/>
   <g id="patch_3">
    <path d="M 105.9175 250.73625 
L 105.9175 31.43625 
" style="fill: none; stroke: #cccccc; stroke-width: 2.5; stroke-linejoin: miter; stroke-linecap: square"/>
   </g>
   <g id="patch_4">
    <path d="M 105.9175 250.73625 
L 369.283828 250.73625 
" style="fill: none; stroke: #cccccc; stroke-width: 2.5; stroke-linejoin: miter; stroke-linecap: square"/>
   </g>
   <g id="text_10">
    <!-- Frames -->
    <g style="fill: #262626" transform="translate(193.958164 25.43625) scale(0.24 -0.24)">
     <defs>
      <path id="DejaVuSans-46" d="M 628 4666 
L 3309 4666 
L 3309 4134 
L 1259 4134 
L 1259 2759 
L 3109 2759 
L 3109 2228 
L 1259 2228 
L 1259 0 
L 628 0 
L 628 4666 
z
" transform="scale(0.015625)"/>
     </defs>
     <use xlink:href="#DejaVuSans-46"/>
     <use xlink:href="#DejaVuSans-72" transform="translate(50.269531 0)"/>
     <use xlink:href="#DejaVuSans-61" transform="translate(91.382812 0)"/>
     <use xlink:href="#DejaVuSans-6d" transform="translate(152.662109 0)"/>
     <use xlink:href="#DejaVuSans-65" transform="translate(250.074219 0)"/>
     <use xlink:href="#DejaVuSans-73" transform="translate(311.597656 0)"/>
    </g>
   </g>
  </g>
  <g id="axes_2">
   <g id="patch_5">
    <path d="M 479.783081 250.73625 
L 743.149409 250.73625 
L 743.149409 31.43625 
L 479.783081 31.43625 
z
" style="fill: #ffffff"/>
   </g>
   <g id="matplotlib.axis_3">
    <g id="xtick_16">
     <g id="line2d_23">
      <path d="M 491.754278 250.73625 
L 491.754278 31.43625 
" clip-path="url(#p4683bde278)" style="fill: none; stroke: #cccccc; stroke-width: 2; stroke-linecap: round"/>
     </g>
     <g id="text_11">
      <!-- 1 -->
      <g style="fill: #262626" transform="translate(484.755528 282.952812) scale(0.22 -0.22)">
       <use xlink:href="#DejaVuSans-31"/>
      </g>
     </g>
    </g>
    <g id="xtick_17">
     <g id="line2d_24">
      <path d="M 558.79298 250.73625 
L 558.79298 31.43625 
" clip-path="url(#p4683bde278)" style="fill: none; stroke: #cccccc; stroke-width: 2; stroke-linecap: round"/>
     </g>
     <g id="text_12">
      <!-- 8 -->
      <g style="fill: #262626" transform="translate(551.79423 282.952812) scale(0.22 -0.22)">
       <use xlink:href="#DejaVuSans-38"/>
      </g>
     </g>
    </g>
    <g id="xtick_18">
     <g id="line2d_25">
      <path d="M 635.408639 250.73625 
L 635.408639 31.43625 
" clip-path="url(#p4683bde278)" style="fill: none; stroke: #cccccc; stroke-width: 2; stroke-linecap: round"/>
     </g>
     <g id="text_13">
      <!-- 16 -->
      <g style="fill: #262626" transform="translate(621.411139 282.952812) scale(0.22 -0.22)">
       <use xlink:href="#DejaVuSans-31"/>
       <use xlink:href="#DejaVuSans-36" transform="translate(63.623047 0)"/>
      </g>
     </g>
    </g>
    <g id="xtick_19">
     <g id="line2d_26">
      <path d="M 712.024298 250.73625 
L 712.024298 31.43625 
" clip-path="url(#p4683bde278)" style="fill: none; stroke: #cccccc; stroke-width: 2; stroke-linecap: round"/>
     </g>
    </g>
    <g id="xtick_20">
     <g id="line2d_27">
      <path d="M 731.178212 250.73625 
L 731.178212 31.43625 
" clip-path="url(#p4683bde278)" style="fill: none; stroke: #cccccc; stroke-width: 2; stroke-linecap: round"/>
     </g>
     <g id="text_14">
      <!-- 26 -->
      <g style="fill: #262626" transform="translate(717.180712 282.952812) scale(0.22 -0.22)">
       <use xlink:href="#DejaVuSans-32"/>
       <use xlink:href="#DejaVuSans-36" transform="translate(63.623047 0)"/>
      </g>
     </g>
    </g>
    <g id="xtick_21">
     <g id="line2d_28">
      <path d="M 482.177321 250.73625 
L 482.177321 31.43625 
" clip-path="url(#p4683bde278)" style="fill: none; stroke: #cccccc; stroke-opacity: 0.3; stroke-width: 2; stroke-linecap: round"/>
     </g>
    </g>
    <g id="xtick_22">
     <g id="line2d_29">
      <path d="M 501.331235 250.73625 
L 501.331235 31.43625 
" clip-path="url(#p4683bde278)" style="fill: none; stroke: #cccccc; stroke-opacity: 0.3; stroke-width: 2; stroke-linecap: round"/>
     </g>
    </g>
    <g id="xtick_23">
     <g id="line2d_30">
      <path d="M 520.48515 250.73625 
L 520.48515 31.43625 
" clip-path="url(#p4683bde278)" style="fill: none; stroke: #cccccc; stroke-opacity: 0.3; stroke-width: 2; stroke-linecap: round"/>
     </g>
    </g>
    <g id="xtick_24">
     <g id="line2d_31">
      <path d="M 539.639065 250.73625 
L 539.639065 31.43625 
" clip-path="url(#p4683bde278)" style="fill: none; stroke: #cccccc; stroke-opacity: 0.3; stroke-width: 2; stroke-linecap: round"/>
     </g>
    </g>
    <g id="xtick_25">
     <g id="line2d_32">
      <path d="M 577.946894 250.73625 
L 577.946894 31.43625 
" clip-path="url(#p4683bde278)" style="fill: none; stroke: #cccccc; stroke-opacity: 0.3; stroke-width: 2; stroke-linecap: round"/>
     </g>
    </g>
    <g id="xtick_26">
     <g id="line2d_33">
      <path d="M 597.100809 250.73625 
L 597.100809 31.43625 
" clip-path="url(#p4683bde278)" style="fill: none; stroke: #cccccc; stroke-opacity: 0.3; stroke-width: 2; stroke-linecap: round"/>
     </g>
    </g>
    <g id="xtick_27">
     <g id="line2d_34">
      <path d="M 616.254724 250.73625 
L 616.254724 31.43625 
" clip-path="url(#p4683bde278)" style="fill: none; stroke: #cccccc; stroke-opacity: 0.3; stroke-width: 2; stroke-linecap: round"/>
     </g>
    </g>
    <g id="xtick_28">
     <g id="line2d_35">
      <path d="M 654.562553 250.73625 
L 654.562553 31.43625 
" clip-path="url(#p4683bde278)" style="fill: none; stroke: #cccccc; stroke-opacity: 0.3; stroke-width: 2; stroke-linecap: round"/>
     </g>
    </g>
    <g id="xtick_29">
     <g id="line2d_36">
      <path d="M 673.716468 250.73625 
L 673.716468 31.43625 
" clip-path="url(#p4683bde278)" style="fill: none; stroke: #cccccc; stroke-opacity: 0.3; stroke-width: 2; stroke-linecap: round"/>
     </g>
    </g>
    <g id="xtick_30">
     <g id="line2d_37">
      <path d="M 692.870383 250.73625 
L 692.870383 31.43625 
" clip-path="url(#p4683bde278)" style="fill: none; stroke: #cccccc; stroke-opacity: 0.3; stroke-width: 2; stroke-linecap: round"/>
     </g>
    </g>
    <g id="text_15">
     <!-- Threads -->
     <g style="fill: #262626" transform="translate(563.26187 309.764375) scale(0.24 -0.24)">
      <use xlink:href="#DejaVuSans-54"/>
      <use xlink:href="#DejaVuSans-68" transform="translate(61.083984 0)"/>
      <use xlink:href="#DejaVuSans-72" transform="translate(124.462891 0)"/>
      <use xlink:href="#DejaVuSans-65" transform="translate(163.326172 0)"/>
      <use xlink:href="#DejaVuSans-61" transform="translate(224.849609 0)"/>
      <use xlink:href="#DejaVuSans-64" transform="translate(286.128906 0)"/>
      <use xlink:href="#DejaVuSans-73" transform="translate(349.605469 0)"/>
     </g>
    </g>
   </g>
   <g id="matplotlib.axis_4">
    <g id="ytick_4">
     <g id="line2d_38">
      <path d="M 479.783081 250.73625 
L 743.149409 250.73625 
" clip-path="url(#p4683bde278)" style="fill: none; stroke: #cccccc; stroke-width: 2; stroke-linecap: round"/>
     </g>
     <g id="text_16">
      <!-- 0 -->
      <g style="fill: #262626" transform="translate(450.285581 259.094531) scale(0.22 -0.22)">
       <use xlink:href="#DejaVuSans-30"/>
      </g>
     </g>
    </g>
    <g id="ytick_5">
     <g id="line2d_39">
      <path d="M 479.783081 193.60679 
L 743.149409 193.60679 
" clip-path="url(#p4683bde278)" style="fill: none; stroke: #cccccc; stroke-width: 2; stroke-linecap: round"/>
     </g>
     <g id="text_17">
      <!-- 20000 -->
      <g style="fill: #262626" transform="translate(394.295581 201.965072) scale(0.22 -0.22)">
       <use xlink:href="#DejaVuSans-32"/>
       <use xlink:href="#DejaVuSans-30" transform="translate(63.623047 0)"/>
       <use xlink:href="#DejaVuSans-30" transform="translate(127.246094 0)"/>
       <use xlink:href="#DejaVuSans-30" transform="translate(190.869141 0)"/>
       <use xlink:href="#DejaVuSans-30" transform="translate(254.492188 0)"/>
      </g>
     </g>
    </g>
    <g id="ytick_6">
     <g id="line2d_40">
      <path d="M 479.783081 136.477331 
L 743.149409 136.477331 
" clip-path="url(#p4683bde278)" style="fill: none; stroke: #cccccc; stroke-width: 2; stroke-linecap: round"/>
     </g>
     <g id="text_18">
      <!-- 40000 -->
      <g style="fill: #262626" transform="translate(394.295581 144.835612) scale(0.22 -0.22)">
       <defs>
        <path id="DejaVuSans-34" d="M 2419 4116 
L 825 1625 
L 2419 1625 
L 2419 4116 
z
M 2253 4666 
L 3047 4666 
L 3047 1625 
L 3713 1625 
L 3713 1100 
L 3047 1100 
L 3047 0 
L 2419 0 
L 2419 1100 
L 313 1100 
L 313 1709 
L 2253 4666 
z
" transform="scale(0.015625)"/>
       </defs>
       <use xlink:href="#DejaVuSans-34"/>
       <use xlink:href="#DejaVuSans-30" transform="translate(63.623047 0)"/>
       <use xlink:href="#DejaVuSans-30" transform="translate(127.246094 0)"/>
       <use xlink:href="#DejaVuSans-30" transform="translate(190.869141 0)"/>
       <use xlink:href="#DejaVuSans-30" transform="translate(254.492188 0)"/>
      </g>
     </g>
    </g>
    <g id="ytick_7">
     <g id="line2d_41">
      <path d="M 479.783081 79.347871 
L 743.149409 79.347871 
" clip-path="url(#p4683bde278)" style="fill: none; stroke: #cccccc; stroke-width: 2; stroke-linecap: round"/>
     </g>
     <g id="text_19">
      <!-- 60000 -->
      <g style="fill: #262626" transform="translate(394.295581 87.706153) scale(0.22 -0.22)">
       <use xlink:href="#DejaVuSans-36"/>
       <use xlink:href="#DejaVuSans-30" transform="translate(63.623047 0)"/>
       <use xlink:href="#DejaVuSans-30" transform="translate(127.246094 0)"/>
       <use xlink:href="#DejaVuSans-30" transform="translate(190.869141 0)"/>
       <use xlink:href="#DejaVuSans-30" transform="translate(254.492188 0)"/>
      </g>
     </g>
    </g>
   </g>
   <g id="FillBetweenPolyCollection_3">
    <defs>
     <path id="m13313fa132" d="M 491.754278 -78.950419 
L 491.754278 -78.490527 
L 501.331235 -86.507218 
L 510.908193 -94.520339 
L 520.48515 -102.866239 
L 530.062107 -111.199999 
L 539.639065 -118.841778 
L 549.216022 -127.151972 
L 558.79298 -135.062974 
L 568.369937 -143.362457 
L 577.946894 -151.600525 
L 587.523852 -159.518668 
L 597.100809 -167.528932 
L 606.677766 -175.516345 
L 616.254724 -183.487332 
L 625.831681 -191.316925 
L 635.408639 -199.309336 
L 644.985596 -207.439573 
L 654.562553 -215.693351 
L 664.139511 -223.700045 
L 673.716468 -231.806715 
L 683.293425 -239.879822 
L 692.870383 -248.016128 
L 702.44734 -256.121727 
L 712.024298 -264.204118 
L 721.601255 -272.287936 
L 731.178212 -279.462111 
L 731.178212 -280.136096 
L 731.178212 -280.136096 
L 721.601255 -272.529308 
L 712.024298 -264.439777 
L 702.44734 -256.304542 
L 692.870383 -248.120032 
L 683.293425 -239.995509 
L 673.716468 -232.118071 
L 664.139511 -223.924992 
L 654.562553 -215.879736 
L 644.985596 -207.726648 
L 635.408639 -199.396459 
L 625.831681 -191.456892 
L 616.254724 -185.115522 
L 606.677766 -175.849838 
L 597.100809 -167.746738 
L 587.523852 -159.901435 
L 577.946894 -151.814046 
L 568.369937 -143.56598 
L 558.79298 -135.508584 
L 549.216022 -127.273372 
L 539.639065 -119.093862 
L 530.062107 -111.289978 
L 520.48515 -103.168311 
L 510.908193 -94.715293 
L 501.331235 -86.721454 
L 491.754278 -78.950419 
z
" style="stroke: #0173b2; stroke-opacity: 0.2; stroke-width: 2"/>
    </defs>
    <g clip-path="url(#p4683bde278)">
     <use xlink:href="#m13313fa132" x="0" y="321.955625" style="fill: #0173b2; fill-opacity: 0.2; stroke: #0173b2; stroke-opacity: 0.2; stroke-width: 2"/>
    </g>
   </g>
   <g id="FillBetweenPolyCollection_4">
    <defs>
     <path id="m80736cdbf0" d="M 491.754278 -72.511929 
L 491.754278 -72.47051 
L 501.331235 -72.634757 
L 510.908193 -72.774725 
L 520.48515 -72.928974 
L 530.062107 -73.585963 
L 539.639065 -74.202961 
L 549.216022 -74.951357 
L 558.79298 -74.906367 
L 568.369937 -75.634768 
L 577.946894 -75.824009 
L 587.523852 -76.575262 
L 597.100809 -76.601684 
L 606.677766 -77.465053 
L 616.254724 -77.385072 
L 625.831681 -77.842822 
L 635.408639 -78.35056 
L 644.985596 -78.835785 
L 654.562553 -79.525998 
L 664.139511 -79.780225 
L 673.716468 -80.240117 
L 683.293425 -80.739999 
L 692.870383 -81.218459 
L 702.44734 -81.64693 
L 712.024298 -82.18109 
L 721.601255 -82.669547 
L 731.178212 -83.937821 
L 731.178212 -85.681698 
L 731.178212 -85.681698 
L 721.601255 -82.878784 
L 712.024298 -82.4446 
L 702.44734 -81.811177 
L 692.870383 -81.396274 
L 683.293425 -80.914958 
L 673.716468 -80.313671 
L 664.139511 -80.045877 
L 654.562553 -79.582414 
L 644.985596 -78.973271 
L 635.408639 -78.511951 
L 625.831681 -77.877099 
L 616.254724 -77.665006 
L 606.677766 -78.096334 
L 597.100809 -77.590024 
L 587.523852 -77.179406 
L 577.946894 -76.367453 
L 568.369937 -76.093232 
L 558.79298 -75.326269 
L 549.216022 -75.105606 
L 539.639065 -74.513602 
L 530.062107 -73.635237 
L 520.48515 -73.133926 
L 510.908193 -72.861847 
L 501.331235 -72.683317 
L 491.754278 -72.511929 
z
" style="stroke: #de8f05; stroke-opacity: 0.2; stroke-width: 2"/>
    </defs>
    <g clip-path="url(#p4683bde278)">
     <use xlink:href="#m80736cdbf0" x="0" y="321.955625" style="fill: #de8f05; fill-opacity: 0.2; stroke: #de8f05; stroke-opacity: 0.2; stroke-width: 2"/>
    </g>
   </g>
   <g id="line2d_42">
    <path d="M 491.754278 243.265859 
L 501.331235 235.327007 
L 510.908193 227.328168 
L 520.48515 218.91157 
L 530.062107 210.717778 
L 539.639065 202.955312 
L 549.216022 194.745095 
L 558.79298 186.622 
L 568.369937 178.514615 
L 577.946894 170.24584 
L 587.523852 162.292705 
L 597.100809 154.306007 
L 606.677766 146.303598 
L 616.254724 137.918421 
L 625.831681 130.575144 
L 635.408639 122.594872 
L 644.985596 114.381084 
L 654.562553 106.169438 
L 664.139511 98.132752 
L 673.716468 89.995374 
L 683.293425 82.017959 
L 692.870383 73.887723 
L 702.44734 65.733921 
L 712.024298 57.652959 
L 721.601255 49.547003 
L 731.178212 42.205867 
" clip-path="url(#p4683bde278)" style="fill: none; stroke: #0173b2; stroke-width: 3; stroke-linecap: round"/>
   </g>
   <g id="line2d_43">
    <path d="M 491.754278 249.46869 
L 501.331235 249.296588 
L 510.908193 249.148765 
L 520.48515 248.95024 
L 530.062107 248.346096 
L 539.639065 247.56985 
L 549.216022 246.941426 
L 558.79298 246.899293 
L 568.369937 246.041637 
L 577.946894 245.945231 
L 587.523852 245.007593 
L 597.100809 245.004737 
L 606.677766 244.090666 
L 616.254724 244.453438 
L 625.831681 244.092808 
L 635.408639 243.52437 
L 644.985596 243.045197 
L 654.562553 242.401776 
L 664.139511 242.046859 
L 673.716468 241.686229 
L 683.293425 241.133502 
L 692.870383 240.663612 
L 702.44734 240.226572 
L 712.024298 239.663847 
L 721.601255 239.181103 
L 731.178212 237.010897 
" clip-path="url(#p4683bde278)" style="fill: none; stroke-dasharray: 12,4.5; stroke-dashoffset: 0; stroke: #de8f05; stroke-width: 3"/>
   </g>
   <g id="line2d_44"/>
   <g id="line2d_45"/>
   <g id="patch_6">
    <path d="M 479.783081 250.73625 
L 479.783081 31.43625 
" style="fill: none; stroke: #cccccc; stroke-width: 2.5; stroke-linejoin: miter; stroke-linecap: square"/>
   </g>
   <g id="patch_7">
    <path d="M 479.783081 250.73625 
L 743.149409 250.73625 
" style="fill: none; stroke: #cccccc; stroke-width: 2.5; stroke-linejoin: miter; stroke-linecap: square"/>
   </g>
   <g id="text_20">
    <!-- Huge Frames -->
    <g style="fill: #262626" transform="translate(532.378745 25.43625) scale(0.24 -0.24)">
     <defs>
      <path id="DejaVuSans-48" d="M 628 4666 
L 1259 4666 
L 1259 2753 
L 3553 2753 
L 3553 4666 
L 4184 4666 
L 4184 0 
L 3553 0 
L 3553 2222 
L 1259 2222 
L 1259 0 
L 628 0 
L 628 4666 
z
" transform="scale(0.015625)"/>
      <path id="DejaVuSans-75" d="M 544 1381 
L 544 3500 
L 1119 3500 
L 1119 1403 
Q 1119 906 1312 657 
Q 1506 409 1894 409 
Q 2359 409 2629 706 
Q 2900 1003 2900 1516 
L 2900 3500 
L 3475 3500 
L 3475 0 
L 2900 0 
L 2900 538 
Q 2691 219 2414 64 
Q 2138 -91 1772 -91 
Q 1169 -91 856 284 
Q 544 659 544 1381 
z
M 1991 3584 
L 1991 3584 
z
" transform="scale(0.015625)"/>
     </defs>
     <use xlink:href="#DejaVuSans-48"/>
     <use xlink:href="#DejaVuSans-75" transform="translate(75.195312 0)"/>
     <use xlink:href="#DejaVuSans-67" transform="translate(138.574219 0)"/>
     <use xlink:href="#DejaVuSans-65" transform="translate(202.050781 0)"/>
     <use xlink:href="#DejaVuSans-20" transform="translate(263.574219 0)"/>
     <use xlink:href="#DejaVuSans-46" transform="translate(295.361328 0)"/>
     <use xlink:href="#DejaVuSans-72" transform="translate(345.630859 0)"/>
     <use xlink:href="#DejaVuSans-61" transform="translate(386.744141 0)"/>
     <use xlink:href="#DejaVuSans-6d" transform="translate(448.023438 0)"/>
     <use xlink:href="#DejaVuSans-65" transform="translate(545.435547 0)"/>
     <use xlink:href="#DejaVuSans-73" transform="translate(606.958984 0)"/>
    </g>
   </g>
  </g>
  <g id="legend_1">
   <g id="text_21">
    <!-- Operation -->
    <g style="fill: #262626" transform="translate(739.651359 135.308437) scale(0.24 -0.24)">
     <defs>
      <path id="DejaVuSans-4f" d="M 2522 4238 
Q 1834 4238 1429 3725 
Q 1025 3213 1025 2328 
Q 1025 1447 1429 934 
Q 1834 422 2522 422 
Q 3209 422 3611 934 
Q 4013 1447 4013 2328 
Q 4013 3213 3611 3725 
Q 3209 4238 2522 4238 
z
M 2522 4750 
Q 3503 4750 4090 4092 
Q 4678 3434 4678 2328 
Q 4678 1225 4090 567 
Q 3503 -91 2522 -91 
Q 1538 -91 948 565 
Q 359 1222 359 2328 
Q 359 3434 948 4092 
Q 1538 4750 2522 4750 
z
" transform="scale(0.015625)"/>
      <path id="DejaVuSans-70" d="M 1159 525 
L 1159 -1331 
L 581 -1331 
L 581 3500 
L 1159 3500 
L 1159 2969 
Q 1341 3281 1617 3432 
Q 1894 3584 2278 3584 
Q 2916 3584 3314 3078 
Q 3713 2572 3713 1747 
Q 3713 922 3314 415 
Q 2916 -91 2278 -91 
Q 1894 -91 1617 61 
Q 1341 213 1159 525 
z
M 3116 1747 
Q 3116 2381 2855 2742 
Q 2594 3103 2138 3103 
Q 1681 3103 1420 2742 
Q 1159 2381 1159 1747 
Q 1159 1113 1420 752 
Q 1681 391 2138 391 
Q 2594 391 2855 752 
Q 3116 1113 3116 1747 
z
" transform="scale(0.015625)"/>
      <path id="DejaVuSans-6f" d="M 1959 3097 
Q 1497 3097 1228 2736 
Q 959 2375 959 1747 
Q 959 1119 1226 758 
Q 1494 397 1959 397 
Q 2419 397 2687 759 
Q 2956 1122 2956 1747 
Q 2956 2369 2687 2733 
Q 2419 3097 1959 3097 
z
M 1959 3584 
Q 2709 3584 3137 3096 
Q 3566 2609 3566 1747 
Q 3566 888 3137 398 
Q 2709 -91 1959 -91 
Q 1206 -91 779 398 
Q 353 888 353 1747 
Q 353 2609 779 3096 
Q 1206 3584 1959 3584 
z
" transform="scale(0.015625)"/>
     </defs>
     <use xlink:href="#DejaVuSans-4f"/>
     <use xlink:href="#DejaVuSans-70" transform="translate(78.710938 0)"/>
     <use xlink:href="#DejaVuSans-65" transform="translate(142.1875 0)"/>
     <use xlink:href="#DejaVuSans-72" transform="translate(203.710938 0)"/>
     <use xlink:href="#DejaVuSans-61" transform="translate(244.824219 0)"/>
     <use xlink:href="#DejaVuSans-74" transform="translate(306.103516 0)"/>
     <use xlink:href="#DejaVuSans-69" transform="translate(345.3125 0)"/>
     <use xlink:href="#DejaVuSans-6f" transform="translate(373.095703 0)"/>
     <use xlink:href="#DejaVuSans-6e" transform="translate(434.277344 0)"/>
    </g>
   </g>
   <g id="line2d_46">
    <path d="M 742.940265 160.31625 
L 764.940265 160.31625 
L 786.940265 160.31625 
" style="fill: none; stroke: #0173b2; stroke-width: 3; stroke-linecap: round"/>
   </g>
   <g id="text_22">
    <!-- alloc -->
    <g style="fill: #262626" transform="translate(804.540265 168.01625) scale(0.22 -0.22)">
     <defs>
      <path id="DejaVuSans-6c" d="M 603 4863 
L 1178 4863 
L 1178 0 
L 603 0 
L 603 4863 
z
" transform="scale(0.015625)"/>
      <path id="DejaVuSans-63" d="M 3122 3366 
L 3122 2828 
Q 2878 2963 2633 3030 
Q 2388 3097 2138 3097 
Q 1578 3097 1268 2742 
Q 959 2388 959 1747 
Q 959 1106 1268 751 
Q 1578 397 2138 397 
Q 2388 397 2633 464 
Q 2878 531 3122 666 
L 3122 134 
Q 2881 22 2623 -34 
Q 2366 -91 2075 -91 
Q 1284 -91 818 406 
Q 353 903 353 1747 
Q 353 2603 823 3093 
Q 1294 3584 2113 3584 
Q 2378 3584 2631 3529 
Q 2884 3475 3122 3366 
z
" transform="scale(0.015625)"/>
     </defs>
     <use xlink:href="#DejaVuSans-61"/>
     <use xlink:href="#DejaVuSans-6c" transform="translate(61.279297 0)"/>
     <use xlink:href="#DejaVuSans-6c" transform="translate(89.0625 0)"/>
     <use xlink:href="#DejaVuSans-6f" transform="translate(116.845703 0)"/>
     <use xlink:href="#DejaVuSans-63" transform="translate(178.027344 0)"/>
    </g>
   </g>
   <g id="line2d_47">
    <path d="M 742.940265 192.608125 
L 764.940265 192.608125 
L 786.940265 192.608125 
" style="fill: none; stroke-dasharray: 12,4.5; stroke-dashoffset: 0; stroke: #de8f05; stroke-width: 3"/>
   </g>
   <g id="text_23">
    <!-- free -->
    <g style="fill: #262626" transform="translate(804.540265 200.308125) scale(0.22 -0.22)">
     <defs>
      <path id="DejaVuSans-66" d="M 2375 4863 
L 2375 4384 
L 1825 4384 
Q 1516 4384 1395 4259 
Q 1275 4134 1275 3809 
L 1275 3500 
L 2222 3500 
L 2222 3053 
L 1275 3053 
L 1275 0 
L 697 0 
L 697 3053 
L 147 3053 
L 147 3500 
L 697 3500 
L 697 3744 
Q 697 4328 969 4595 
Q 1241 4863 1831 4863 
L 2375 4863 
z
" transform="scale(0.015625)"/>
     </defs>
     <use xlink:href="#DejaVuSans-66"/>
     <use xlink:href="#DejaVuSans-72" transform="translate(35.205078 0)"/>
     <use xlink:href="#DejaVuSans-65" transform="translate(74.068359 0)"/>
     <use xlink:href="#DejaVuSans-65" transform="translate(135.591797 0)"/>
    </g>
   </g>
  </g>
 </g>
 <defs>
  <clipPath id="p8ad11bae9f">
   <rect x="105.9175" y="31.43625" width="263.366328" height="219.3"/>
  </clipPath>
  <clipPath id="p4683bde278">
   <rect x="479.783081" y="31.43625" width="263.366328" height="219.3"/>
  </clipPath>
 </defs>
</svg>
