<?xml version="1.0" encoding="utf-8" standalone="no"?>
<!DOCTYPE svg PUBLIC "-//W3C//DTD SVG 1.1//EN"
  "http://www.w3.org/Graphics/SVG/1.1/DTD/svg11.dtd">
<svg xmlns:xlink="http://www.w3.org/1999/xlink" width="927.933739pt" height="321.955625pt" viewBox="0 0 927.933739 321.955625" xmlns="http://www.w3.org/2000/svg" version="1.1">
 <metadata>
  <rdf:RDF xmlns:dc="http://purl.org/dc/elements/1.1/" xmlns:cc="http://creativecommons.org/ns#" xmlns:rdf="http://www.w3.org/1999/02/22-rdf-syntax-ns#">
   <cc:Work>
    <dc:type rdf:resource="http://purl.org/dc/dcmitype/StillImage"/>
    <dc:date>2025-04-28T23:19:03.831506</dc:date>
    <dc:format>image/svg+xml</dc:format>
    <dc:creator>
     <cc:Agent>
      <dc:title>Matplotlib v3.10.1, https://matplotlib.org/</dc:title>
     </cc:Agent>
    </dc:creator>
   </cc:Work>
  </rdf:RDF>
 </metadata>
 <defs>
  <style type="text/css">*{stroke-linejoin: round; stroke-linecap: butt}</style>
 </defs>
 <g id="figure_1">
  <g id="patch_1">
   <path d="M 0 321.955625 
L 927.933739 321.955625 
L 927.933739 0 
L 0 0 
z
" style="fill: #ffffff"/>
  </g>
  <g id="axes_1">
   <g id="patch_2">
    <path d="M 105.9175 250.73625 
L 365.245428 250.73625 
L 365.245428 31.43625 
L 105.9175 31.43625 
z
" style="fill: #ffffff"/>
   </g>
   <g id="matplotlib.axis_1">
    <g id="xtick_1">
     <g id="line2d_1">
      <path d="M 117.705133 250.73625 
L 117.705133 31.43625 
" clip-path="url(#paea851e4db)" style="fill: none; stroke: #cccccc; stroke-width: 2; stroke-linecap: round"/>
     </g>
     <g id="text_1">
      <!-- 1 -->
      <g style="fill: #262626" transform="translate(110.706383 282.952812) scale(0.22 -0.22)">
       <defs>
        <path id="DejaVuSans-31" d="M 794 531 
L 1825 531 
L 1825 4091 
L 703 3866 
L 703 4441 
L 1819 4666 
L 2450 4666 
L 2450 531 
L 3481 531 
L 3481 0 
L 794 0 
L 794 531 
z
" transform="scale(0.015625)"/>
       </defs>
       <use xlink:href="#DejaVuSans-31"/>
      </g>
     </g>
    </g>
    <g id="xtick_2">
     <g id="line2d_2">
      <path d="M 183.715878 250.73625 
L 183.715878 31.43625 
" clip-path="url(#paea851e4db)" style="fill: none; stroke: #cccccc; stroke-width: 2; stroke-linecap: round"/>
     </g>
     <g id="text_2">
      <!-- 8 -->
      <g style="fill: #262626" transform="translate(176.717128 282.952812) scale(0.22 -0.22)">
       <defs>
        <path id="DejaVuSans-38" d="M 2034 2216 
Q 1584 2216 1326 1975 
Q 1069 1734 1069 1313 
Q 1069 891 1326 650 
Q 1584 409 2034 409 
Q 2484 409 2743 651 
Q 3003 894 3003 1313 
Q 3003 1734 2745 1975 
Q 2488 2216 2034 2216 
z
M 1403 2484 
Q 997 2584 770 2862 
Q 544 3141 544 3541 
Q 544 4100 942 4425 
Q 1341 4750 2034 4750 
Q 2731 4750 3128 4425 
Q 3525 4100 3525 3541 
Q 3525 3141 3298 2862 
Q 3072 2584 2669 2484 
Q 3125 2378 3379 2068 
Q 3634 1759 3634 1313 
Q 3634 634 3220 271 
Q 2806 -91 2034 -91 
Q 1263 -91 848 271 
Q 434 634 434 1313 
Q 434 1759 690 2068 
Q 947 2378 1403 2484 
z
M 1172 3481 
Q 1172 3119 1398 2916 
Q 1625 2713 2034 2713 
Q 2441 2713 2670 2916 
Q 2900 3119 2900 3481 
Q 2900 3844 2670 4047 
Q 2441 4250 2034 4250 
Q 1625 4250 1398 4047 
Q 1172 3844 1172 3481 
z
" transform="scale(0.015625)"/>
       </defs>
       <use xlink:href="#DejaVuSans-38"/>
      </g>
     </g>
    </g>
    <g id="xtick_3">
     <g id="line2d_3">
      <path d="M 259.15673 250.73625 
L 259.15673 31.43625 
" clip-path="url(#paea851e4db)" style="fill: none; stroke: #cccccc; stroke-width: 2; stroke-linecap: round"/>
     </g>
     <g id="text_3">
      <!-- 16 -->
      <g style="fill: #262626" transform="translate(245.15923 282.952812) scale(0.22 -0.22)">
       <defs>
        <path id="DejaVuSans-36" d="M 2113 2584 
Q 1688 2584 1439 2293 
Q 1191 2003 1191 1497 
Q 1191 994 1439 701 
Q 1688 409 2113 409 
Q 2538 409 2786 701 
Q 3034 994 3034 1497 
Q 3034 2003 2786 2293 
Q 2538 2584 2113 2584 
z
M 3366 4563 
L 3366 3988 
Q 3128 4100 2886 4159 
Q 2644 4219 2406 4219 
Q 1781 4219 1451 3797 
Q 1122 3375 1075 2522 
Q 1259 2794 1537 2939 
Q 1816 3084 2150 3084 
Q 2853 3084 3261 2657 
Q 3669 2231 3669 1497 
Q 3669 778 3244 343 
Q 2819 -91 2113 -91 
Q 1303 -91 875 529 
Q 447 1150 447 2328 
Q 447 3434 972 4092 
Q 1497 4750 2381 4750 
Q 2619 4750 2861 4703 
Q 3103 4656 3366 4563 
z
" transform="scale(0.015625)"/>
       </defs>
       <use xlink:href="#DejaVuSans-31"/>
       <use xlink:href="#DejaVuSans-36" transform="translate(63.623047 0)"/>
      </g>
     </g>
    </g>
    <g id="xtick_4">
     <g id="line2d_4">
      <path d="M 334.597582 250.73625 
L 334.597582 31.43625 
" clip-path="url(#paea851e4db)" style="fill: none; stroke: #cccccc; stroke-width: 2; stroke-linecap: round"/>
     </g>
    </g>
    <g id="xtick_5">
     <g id="line2d_5">
      <path d="M 353.457795 250.73625 
L 353.457795 31.43625 
" clip-path="url(#paea851e4db)" style="fill: none; stroke: #cccccc; stroke-width: 2; stroke-linecap: round"/>
     </g>
     <g id="text_4">
      <!-- 26 -->
      <g style="fill: #262626" transform="translate(339.460295 282.952812) scale(0.22 -0.22)">
       <defs>
        <path id="DejaVuSans-32" d="M 1228 531 
L 3431 531 
L 3431 0 
L 469 0 
L 469 531 
Q 828 903 1448 1529 
Q 2069 2156 2228 2338 
Q 2531 2678 2651 2914 
Q 2772 3150 2772 3378 
Q 2772 3750 2511 3984 
Q 2250 4219 1831 4219 
Q 1534 4219 1204 4116 
Q 875 4013 500 3803 
L 500 4441 
Q 881 4594 1212 4672 
Q 1544 4750 1819 4750 
Q 2544 4750 2975 4387 
Q 3406 4025 3406 3419 
Q 3406 3131 3298 2873 
Q 3191 2616 2906 2266 
Q 2828 2175 2409 1742 
Q 1991 1309 1228 531 
z
" transform="scale(0.015625)"/>
       </defs>
       <use xlink:href="#DejaVuSans-32"/>
       <use xlink:href="#DejaVuSans-36" transform="translate(63.623047 0)"/>
      </g>
     </g>
    </g>
    <g id="xtick_6">
     <g id="line2d_6">
      <path d="M 108.275027 250.73625 
L 108.275027 31.43625 
" clip-path="url(#paea851e4db)" style="fill: none; stroke: #cccccc; stroke-opacity: 0.3; stroke-width: 2; stroke-linecap: round"/>
     </g>
    </g>
    <g id="xtick_7">
     <g id="line2d_7">
      <path d="M 127.13524 250.73625 
L 127.13524 31.43625 
" clip-path="url(#paea851e4db)" style="fill: none; stroke: #cccccc; stroke-opacity: 0.3; stroke-width: 2; stroke-linecap: round"/>
     </g>
    </g>
    <g id="xtick_8">
     <g id="line2d_8">
      <path d="M 145.995453 250.73625 
L 145.995453 31.43625 
" clip-path="url(#paea851e4db)" style="fill: none; stroke: #cccccc; stroke-opacity: 0.3; stroke-width: 2; stroke-linecap: round"/>
     </g>
    </g>
    <g id="xtick_9">
     <g id="line2d_9">
      <path d="M 164.855665 250.73625 
L 164.855665 31.43625 
" clip-path="url(#paea851e4db)" style="fill: none; stroke: #cccccc; stroke-opacity: 0.3; stroke-width: 2; stroke-linecap: round"/>
     </g>
    </g>
    <g id="xtick_10">
     <g id="line2d_10">
      <path d="M 202.576091 250.73625 
L 202.576091 31.43625 
" clip-path="url(#paea851e4db)" style="fill: none; stroke: #cccccc; stroke-opacity: 0.3; stroke-width: 2; stroke-linecap: round"/>
     </g>
    </g>
    <g id="xtick_11">
     <g id="line2d_11">
      <path d="M 221.436304 250.73625 
L 221.436304 31.43625 
" clip-path="url(#paea851e4db)" style="fill: none; stroke: #cccccc; stroke-opacity: 0.3; stroke-width: 2; stroke-linecap: round"/>
     </g>
    </g>
    <g id="xtick_12">
     <g id="line2d_12">
      <path d="M 240.296517 250.73625 
L 240.296517 31.43625 
" clip-path="url(#paea851e4db)" style="fill: none; stroke: #cccccc; stroke-opacity: 0.3; stroke-width: 2; stroke-linecap: round"/>
     </g>
    </g>
    <g id="xtick_13">
     <g id="line2d_13">
      <path d="M 278.016943 250.73625 
L 278.016943 31.43625 
" clip-path="url(#paea851e4db)" style="fill: none; stroke: #cccccc; stroke-opacity: 0.3; stroke-width: 2; stroke-linecap: round"/>
     </g>
    </g>
    <g id="xtick_14">
     <g id="line2d_14">
      <path d="M 296.877156 250.73625 
L 296.877156 31.43625 
" clip-path="url(#paea851e4db)" style="fill: none; stroke: #cccccc; stroke-opacity: 0.3; stroke-width: 2; stroke-linecap: round"/>
     </g>
    </g>
    <g id="xtick_15">
     <g id="line2d_15">
      <path d="M 315.737369 250.73625 
L 315.737369 31.43625 
" clip-path="url(#paea851e4db)" style="fill: none; stroke: #cccccc; stroke-opacity: 0.3; stroke-width: 2; stroke-linecap: round"/>
     </g>
    </g>
    <g id="text_5">
     <!-- Threads -->
     <g style="fill: #262626" transform="translate(187.377089 309.764375) scale(0.24 -0.24)">
      <defs>
       <path id="DejaVuSans-54" d="M -19 4666 
L 3928 4666 
L 3928 4134 
L 2272 4134 
L 2272 0 
L 1638 0 
L 1638 4134 
L -19 4134 
L -19 4666 
z
" transform="scale(0.015625)"/>
       <path id="DejaVuSans-68" d="M 3513 2113 
L 3513 0 
L 2938 0 
L 2938 2094 
Q 2938 2591 2744 2837 
Q 2550 3084 2163 3084 
Q 1697 3084 1428 2787 
Q 1159 2491 1159 1978 
L 1159 0 
L 581 0 
L 581 4863 
L 1159 4863 
L 1159 2956 
Q 1366 3272 1645 3428 
Q 1925 3584 2291 3584 
Q 2894 3584 3203 3211 
Q 3513 2838 3513 2113 
z
" transform="scale(0.015625)"/>
       <path id="DejaVuSans-72" d="M 2631 2963 
Q 2534 3019 2420 3045 
Q 2306 3072 2169 3072 
Q 1681 3072 1420 2755 
Q 1159 2438 1159 1844 
L 1159 0 
L 581 0 
L 581 3500 
L 1159 3500 
L 1159 2956 
Q 1341 3275 1631 3429 
Q 1922 3584 2338 3584 
Q 2397 3584 2469 3576 
Q 2541 3569 2628 3553 
L 2631 2963 
z
" transform="scale(0.015625)"/>
       <path id="DejaVuSans-65" d="M 3597 1894 
L 3597 1613 
L 953 1613 
Q 991 1019 1311 708 
Q 1631 397 2203 397 
Q 2534 397 2845 478 
Q 3156 559 3463 722 
L 3463 178 
Q 3153 47 2828 -22 
Q 2503 -91 2169 -91 
Q 1331 -91 842 396 
Q 353 884 353 1716 
Q 353 2575 817 3079 
Q 1281 3584 2069 3584 
Q 2775 3584 3186 3129 
Q 3597 2675 3597 1894 
z
M 3022 2063 
Q 3016 2534 2758 2815 
Q 2500 3097 2075 3097 
Q 1594 3097 1305 2825 
Q 1016 2553 972 2059 
L 3022 2063 
z
" transform="scale(0.015625)"/>
       <path id="DejaVuSans-61" d="M 2194 1759 
Q 1497 1759 1228 1600 
Q 959 1441 959 1056 
Q 959 750 1161 570 
Q 1363 391 1709 391 
Q 2188 391 2477 730 
Q 2766 1069 2766 1631 
L 2766 1759 
L 2194 1759 
z
M 3341 1997 
L 3341 0 
L 2766 0 
L 2766 531 
Q 2569 213 2275 61 
Q 1981 -91 1556 -91 
Q 1019 -91 701 211 
Q 384 513 384 1019 
Q 384 1609 779 1909 
Q 1175 2209 1959 2209 
L 2766 2209 
L 2766 2266 
Q 2766 2663 2505 2880 
Q 2244 3097 1772 3097 
Q 1472 3097 1187 3025 
Q 903 2953 641 2809 
L 641 3341 
Q 956 3463 1253 3523 
Q 1550 3584 1831 3584 
Q 2591 3584 2966 3190 
Q 3341 2797 3341 1997 
z
" transform="scale(0.015625)"/>
       <path id="DejaVuSans-64" d="M 2906 2969 
L 2906 4863 
L 3481 4863 
L 3481 0 
L 2906 0 
L 2906 525 
Q 2725 213 2448 61 
Q 2172 -91 1784 -91 
Q 1150 -91 751 415 
Q 353 922 353 1747 
Q 353 2572 751 3078 
Q 1150 3584 1784 3584 
Q 2172 3584 2448 3432 
Q 2725 3281 2906 2969 
z
M 947 1747 
Q 947 1113 1208 752 
Q 1469 391 1925 391 
Q 2381 391 2643 752 
Q 2906 1113 2906 1747 
Q 2906 2381 2643 2742 
Q 2381 3103 1925 3103 
Q 1469 3103 1208 2742 
Q 947 2381 947 1747 
z
" transform="scale(0.015625)"/>
       <path id="DejaVuSans-73" d="M 2834 3397 
L 2834 2853 
Q 2591 2978 2328 3040 
Q 2066 3103 1784 3103 
Q 1356 3103 1142 2972 
Q 928 2841 928 2578 
Q 928 2378 1081 2264 
Q 1234 2150 1697 2047 
L 1894 2003 
Q 2506 1872 2764 1633 
Q 3022 1394 3022 966 
Q 3022 478 2636 193 
Q 2250 -91 1575 -91 
Q 1294 -91 989 -36 
Q 684 19 347 128 
L 347 722 
Q 666 556 975 473 
Q 1284 391 1588 391 
Q 1994 391 2212 530 
Q 2431 669 2431 922 
Q 2431 1156 2273 1281 
Q 2116 1406 1581 1522 
L 1381 1569 
Q 847 1681 609 1914 
Q 372 2147 372 2553 
Q 372 3047 722 3315 
Q 1072 3584 1716 3584 
Q 2034 3584 2315 3537 
Q 2597 3491 2834 3397 
z
" transform="scale(0.015625)"/>
      </defs>
      <use xlink:href="#DejaVuSans-54"/>
      <use xlink:href="#DejaVuSans-68" transform="translate(61.083984 0)"/>
      <use xlink:href="#DejaVuSans-72" transform="translate(124.462891 0)"/>
      <use xlink:href="#DejaVuSans-65" transform="translate(163.326172 0)"/>
      <use xlink:href="#DejaVuSans-61" transform="translate(224.849609 0)"/>
      <use xlink:href="#DejaVuSans-64" transform="translate(286.128906 0)"/>
      <use xlink:href="#DejaVuSans-73" transform="translate(349.605469 0)"/>
     </g>
    </g>
   </g>
   <g id="matplotlib.axis_2">
    <g id="ytick_1">
     <g id="line2d_16">
      <path d="M 105.9175 250.73625 
L 365.245428 250.73625 
" clip-path="url(#paea851e4db)" style="fill: none; stroke: #cccccc; stroke-width: 2; stroke-linecap: round"/>
     </g>
     <g id="text_6">
      <!-- 0 -->
      <g style="fill: #262626" transform="translate(76.42 259.094531) scale(0.22 -0.22)">
       <defs>
        <path id="DejaVuSans-30" d="M 2034 4250 
Q 1547 4250 1301 3770 
Q 1056 3291 1056 2328 
Q 1056 1369 1301 889 
Q 1547 409 2034 409 
Q 2525 409 2770 889 
Q 3016 1369 3016 2328 
Q 3016 3291 2770 3770 
Q 2525 4250 2034 4250 
z
M 2034 4750 
Q 2819 4750 3233 4129 
Q 3647 3509 3647 2328 
Q 3647 1150 3233 529 
Q 2819 -91 2034 -91 
Q 1250 -91 836 529 
Q 422 1150 422 2328 
Q 422 3509 836 4129 
Q 1250 4750 2034 4750 
z
" transform="scale(0.015625)"/>
       </defs>
       <use xlink:href="#DejaVuSans-30"/>
      </g>
     </g>
    </g>
    <g id="ytick_2">
     <g id="line2d_17">
      <path d="M 105.9175 166.389285 
L 365.245428 166.389285 
" clip-path="url(#paea851e4db)" style="fill: none; stroke: #cccccc; stroke-width: 2; stroke-linecap: round"/>
     </g>
     <g id="text_7">
      <!-- 500 -->
      <g style="fill: #262626" transform="translate(48.425 174.747566) scale(0.22 -0.22)">
       <defs>
        <path id="DejaVuSans-35" d="M 691 4666 
L 3169 4666 
L 3169 4134 
L 1269 4134 
L 1269 2991 
Q 1406 3038 1543 3061 
Q 1681 3084 1819 3084 
Q 2600 3084 3056 2656 
Q 3513 2228 3513 1497 
Q 3513 744 3044 326 
Q 2575 -91 1722 -91 
Q 1428 -91 1123 -41 
Q 819 9 494 109 
L 494 744 
Q 775 591 1075 516 
Q 1375 441 1709 441 
Q 2250 441 2565 725 
Q 2881 1009 2881 1497 
Q 2881 1984 2565 2268 
Q 2250 2553 1709 2553 
Q 1456 2553 1204 2497 
Q 953 2441 691 2322 
L 691 4666 
z
" transform="scale(0.015625)"/>
       </defs>
       <use xlink:href="#DejaVuSans-35"/>
       <use xlink:href="#DejaVuSans-30" transform="translate(63.623047 0)"/>
       <use xlink:href="#DejaVuSans-30" transform="translate(127.246094 0)"/>
      </g>
     </g>
    </g>
    <g id="ytick_3">
     <g id="line2d_18">
      <path d="M 105.9175 82.04232 
L 365.245428 82.04232 
" clip-path="url(#paea851e4db)" style="fill: none; stroke: #cccccc; stroke-width: 2; stroke-linecap: round"/>
     </g>
     <g id="text_8">
      <!-- 1000 -->
      <g style="fill: #262626" transform="translate(34.4275 90.400602) scale(0.22 -0.22)">
       <use xlink:href="#DejaVuSans-31"/>
       <use xlink:href="#DejaVuSans-30" transform="translate(63.623047 0)"/>
       <use xlink:href="#DejaVuSans-30" transform="translate(127.246094 0)"/>
       <use xlink:href="#DejaVuSans-30" transform="translate(190.869141 0)"/>
      </g>
     </g>
    </g>
    <g id="text_9">
     <!-- Avg. time (ns) -->
     <g style="fill: #262626" transform="translate(25.43625 225.0825) rotate(-90) scale(0.24 -0.24)">
      <defs>
       <path id="DejaVuSans-41" d="M 2188 4044 
L 1331 1722 
L 3047 1722 
L 2188 4044 
z
M 1831 4666 
L 2547 4666 
L 4325 0 
L 3669 0 
L 3244 1197 
L 1141 1197 
L 716 0 
L 50 0 
L 1831 4666 
z
" transform="scale(0.015625)"/>
       <path id="DejaVuSans-76" d="M 191 3500 
L 800 3500 
L 1894 563 
L 2988 3500 
L 3597 3500 
L 2284 0 
L 1503 0 
L 191 3500 
z
" transform="scale(0.015625)"/>
       <path id="DejaVuSans-67" d="M 2906 1791 
Q 2906 2416 2648 2759 
Q 2391 3103 1925 3103 
Q 1463 3103 1205 2759 
Q 947 2416 947 1791 
Q 947 1169 1205 825 
Q 1463 481 1925 481 
Q 2391 481 2648 825 
Q 2906 1169 2906 1791 
z
M 3481 434 
Q 3481 -459 3084 -895 
Q 2688 -1331 1869 -1331 
Q 1566 -1331 1297 -1286 
Q 1028 -1241 775 -1147 
L 775 -588 
Q 1028 -725 1275 -790 
Q 1522 -856 1778 -856 
Q 2344 -856 2625 -561 
Q 2906 -266 2906 331 
L 2906 616 
Q 2728 306 2450 153 
Q 2172 0 1784 0 
Q 1141 0 747 490 
Q 353 981 353 1791 
Q 353 2603 747 3093 
Q 1141 3584 1784 3584 
Q 2172 3584 2450 3431 
Q 2728 3278 2906 2969 
L 2906 3500 
L 3481 3500 
L 3481 434 
z
" transform="scale(0.015625)"/>
       <path id="DejaVuSans-2e" d="M 684 794 
L 1344 794 
L 1344 0 
L 684 0 
L 684 794 
z
" transform="scale(0.015625)"/>
       <path id="DejaVuSans-20" transform="scale(0.015625)"/>
       <path id="DejaVuSans-74" d="M 1172 4494 
L 1172 3500 
L 2356 3500 
L 2356 3053 
L 1172 3053 
L 1172 1153 
Q 1172 725 1289 603 
Q 1406 481 1766 481 
L 2356 481 
L 2356 0 
L 1766 0 
Q 1100 0 847 248 
Q 594 497 594 1153 
L 594 3053 
L 172 3053 
L 172 3500 
L 594 3500 
L 594 4494 
L 1172 4494 
z
" transform="scale(0.015625)"/>
       <path id="DejaVuSans-69" d="M 603 3500 
L 1178 3500 
L 1178 0 
L 603 0 
L 603 3500 
z
M 603 4863 
L 1178 4863 
L 1178 4134 
L 603 4134 
L 603 4863 
z
" transform="scale(0.015625)"/>
       <path id="DejaVuSans-6d" d="M 3328 2828 
Q 3544 3216 3844 3400 
Q 4144 3584 4550 3584 
Q 5097 3584 5394 3201 
Q 5691 2819 5691 2113 
L 5691 0 
L 5113 0 
L 5113 2094 
Q 5113 2597 4934 2840 
Q 4756 3084 4391 3084 
Q 3944 3084 3684 2787 
Q 3425 2491 3425 1978 
L 3425 0 
L 2847 0 
L 2847 2094 
Q 2847 2600 2669 2842 
Q 2491 3084 2119 3084 
Q 1678 3084 1418 2786 
Q 1159 2488 1159 1978 
L 1159 0 
L 581 0 
L 581 3500 
L 1159 3500 
L 1159 2956 
Q 1356 3278 1631 3431 
Q 1906 3584 2284 3584 
Q 2666 3584 2933 3390 
Q 3200 3197 3328 2828 
z
" transform="scale(0.015625)"/>
       <path id="DejaVuSans-28" d="M 1984 4856 
Q 1566 4138 1362 3434 
Q 1159 2731 1159 2009 
Q 1159 1288 1364 580 
Q 1569 -128 1984 -844 
L 1484 -844 
Q 1016 -109 783 600 
Q 550 1309 550 2009 
Q 550 2706 781 3412 
Q 1013 4119 1484 4856 
L 1984 4856 
z
" transform="scale(0.015625)"/>
       <path id="DejaVuSans-6e" d="M 3513 2113 
L 3513 0 
L 2938 0 
L 2938 2094 
Q 2938 2591 2744 2837 
Q 2550 3084 2163 3084 
Q 1697 3084 1428 2787 
Q 1159 2491 1159 1978 
L 1159 0 
L 581 0 
L 581 3500 
L 1159 3500 
L 1159 2956 
Q 1366 3272 1645 3428 
Q 1925 3584 2291 3584 
Q 2894 3584 3203 3211 
Q 3513 2838 3513 2113 
z
" transform="scale(0.015625)"/>
       <path id="DejaVuSans-29" d="M 513 4856 
L 1013 4856 
Q 1481 4119 1714 3412 
Q 1947 2706 1947 2009 
Q 1947 1309 1714 600 
Q 1481 -109 1013 -844 
L 513 -844 
Q 928 -128 1133 580 
Q 1338 1288 1338 2009 
Q 1338 2731 1133 3434 
Q 928 4138 513 4856 
z
" transform="scale(0.015625)"/>
      </defs>
      <use xlink:href="#DejaVuSans-41"/>
      <use xlink:href="#DejaVuSans-76" transform="translate(62.533203 0)"/>
      <use xlink:href="#DejaVuSans-67" transform="translate(121.712891 0)"/>
      <use xlink:href="#DejaVuSans-2e" transform="translate(185.189453 0)"/>
      <use xlink:href="#DejaVuSans-20" transform="translate(216.976562 0)"/>
      <use xlink:href="#DejaVuSans-74" transform="translate(248.763672 0)"/>
      <use xlink:href="#DejaVuSans-69" transform="translate(287.972656 0)"/>
      <use xlink:href="#DejaVuSans-6d" transform="translate(315.755859 0)"/>
      <use xlink:href="#DejaVuSans-65" transform="translate(413.167969 0)"/>
      <use xlink:href="#DejaVuSans-20" transform="translate(474.691406 0)"/>
      <use xlink:href="#DejaVuSans-28" transform="translate(506.478516 0)"/>
      <use xlink:href="#DejaVuSans-6e" transform="translate(545.492188 0)"/>
      <use xlink:href="#DejaVuSans-73" transform="translate(608.871094 0)"/>
      <use xlink:href="#DejaVuSans-29" transform="translate(660.970703 0)"/>
     </g>
    </g>
   </g>
   <g id="FillBetweenPolyCollection_1">
    <defs>
     <path id="m338d3c9f26" d="M 117.705133 -85.220971 
L 117.705133 -85.094451 
L 127.13524 -85.094451 
L 136.565346 -85.220971 
L 145.995453 -85.220971 
L 155.425559 -85.220971 
L 164.855665 -85.389665 
L 174.285772 -85.389665 
L 183.715878 -85.558359 
L 193.145985 -85.727053 
L 202.576091 -85.895747 
L 212.006198 -86.106614 
L 221.436304 -86.275308 
L 230.866411 -86.401829 
L 240.296517 -86.612696 
L 249.726624 -86.992257 
L 259.15673 -87.245298 
L 268.586837 -87.540513 
L 278.016943 -87.920074 
L 287.44705 -88.257462 
L 296.877156 -88.509448 
L 306.307263 -88.974411 
L 315.737369 -89.353972 
L 325.167475 -89.860054 
L 334.597582 -89.944401 
L 344.027688 -90.492656 
L 353.457795 -90.745697 
L 353.457795 -91.715687 
L 353.457795 -91.715687 
L 344.027688 -90.745697 
L 334.597582 -90.197442 
L 325.167475 -90.323963 
L 315.737369 -89.733534 
L 306.307263 -89.353972 
L 296.877156 -88.72137 
L 287.44705 -88.383982 
L 278.016943 -87.920074 
L 268.586837 -88.130941 
L 259.15673 -87.371819 
L 249.726624 -87.245298 
L 240.296517 -86.992257 
L 230.866411 -86.570523 
L 221.436304 -86.401829 
L 212.006198 -86.233135 
L 202.576091 -86.064441 
L 193.145985 -86.022267 
L 183.715878 -85.727053 
L 174.285772 -85.558359 
L 164.855665 -85.389665 
L 155.425559 -85.347492 
L 145.995453 -85.220971 
L 136.565346 -85.220971 
L 127.13524 -85.220971 
L 117.705133 -85.220971 
z
" style="stroke: #0173b2; stroke-opacity: 0.2; stroke-width: 2"/>
    </defs>
    <g clip-path="url(#paea851e4db)">
     <use xlink:href="#m338d3c9f26" x="0" y="321.955625" style="fill: #0173b2; fill-opacity: 0.2; stroke: #0173b2; stroke-opacity: 0.2; stroke-width: 2"/>
    </g>
   </g>
   <g id="FillBetweenPolyCollection_2">
    <defs>
     <path id="me37b386d0f" d="M 117.705133 -87.203125 
L 117.705133 -86.950084 
L 127.13524 -88.763544 
L 136.565346 -90.450483 
L 145.995453 -96.354771 
L 155.425559 -103.102528 
L 164.855665 -109.217683 
L 174.285772 -115.754572 
L 183.715878 -121.363646 
L 193.145985 -128.448791 
L 202.576091 -134.648293 
L 212.006198 -141.058662 
L 221.436304 -147.131643 
L 230.866411 -153.584186 
L 240.296517 -160.458464 
L 249.726624 -166.868833 
L 259.15673 -172.098345 
L 268.586837 -179.689572 
L 278.016943 -185.931247 
L 287.44705 -192.341617 
L 296.877156 -198.245904 
L 306.307263 -204.656273 
L 315.737369 -211.066643 
L 325.167475 -217.645706 
L 334.597582 -223.254779 
L 344.027688 -230.635139 
L 353.457795 -237.045508 
L 353.457795 -237.298549 
L 353.457795 -237.298549 
L 344.027688 -230.761659 
L 334.597582 -223.50782 
L 325.167475 -217.898747 
L 315.737369 -211.235337 
L 306.307263 -204.909314 
L 296.877156 -198.414598 
L 287.44705 -192.51031 
L 278.016943 -185.931247 
L 268.586837 -179.816092 
L 259.15673 -172.267039 
L 249.726624 -166.995354 
L 240.296517 -160.627158 
L 230.866411 -153.837227 
L 221.436304 -147.131643 
L 212.006198 -141.058662 
L 202.576091 -134.816987 
L 193.145985 -128.575311 
L 183.715878 -121.490166 
L 174.285772 -116.134134 
L 164.855665 -109.344203 
L 155.425559 -103.355569 
L 145.995453 -96.607811 
L 136.565346 -90.450483 
L 127.13524 -88.932238 
L 117.705133 -87.203125 
z
" style="stroke: #0173b2; stroke-opacity: 0.2; stroke-width: 2"/>
    </defs>
    <g clip-path="url(#paea851e4db)">
     <use xlink:href="#me37b386d0f" x="0" y="321.955625" style="fill: #0173b2; fill-opacity: 0.2; stroke: #0173b2; stroke-opacity: 0.2; stroke-width: 2"/>
    </g>
   </g>
   <g id="FillBetweenPolyCollection_3">
    <defs>
     <path id="m28c11392f4" d="M 117.705133 -86.739217 
L 117.705133 -86.739217 
L 127.13524 -86.570523 
L 136.565346 -86.570523 
L 145.995453 -87.076604 
L 155.425559 -87.118778 
L 164.855665 -87.076604 
L 174.285772 -86.950084 
L 183.715878 -86.950084 
L 193.145985 -86.90791 
L 202.576091 -86.90791 
L 212.006198 -86.90791 
L 221.436304 -86.90791 
L 230.866411 -86.90791 
L 240.296517 -86.90791 
L 249.726624 -86.90791 
L 259.15673 -86.90791 
L 268.586837 -86.90791 
L 278.016943 -86.90791 
L 287.44705 -86.90791 
L 296.877156 -87.076604 
L 306.307263 -87.076604 
L 315.737369 -87.076604 
L 325.167475 -87.076604 
L 334.597582 -87.076604 
L 344.027688 -87.118778 
L 353.457795 -87.118778 
L 353.457795 -87.245298 
L 353.457795 -87.245298 
L 344.027688 -87.245298 
L 334.597582 -87.245298 
L 325.167475 -87.203125 
L 315.737369 -87.076604 
L 306.307263 -87.076604 
L 296.877156 -87.076604 
L 287.44705 -86.90791 
L 278.016943 -87.034431 
L 268.586837 -86.90791 
L 259.15673 -87.034431 
L 249.726624 -87.034431 
L 240.296517 -87.034431 
L 230.866411 -87.034431 
L 221.436304 -86.90791 
L 212.006198 -86.90791 
L 202.576091 -86.90791 
L 193.145985 -87.034431 
L 183.715878 -87.076604 
L 174.285772 -87.076604 
L 164.855665 -87.203125 
L 155.425559 -87.245298 
L 145.995453 -87.076604 
L 136.565346 -86.739217 
L 127.13524 -86.697043 
L 117.705133 -86.739217 
z
" style="stroke: #de8f05; stroke-opacity: 0.2; stroke-width: 2"/>
    </defs>
    <g clip-path="url(#paea851e4db)">
     <use xlink:href="#m28c11392f4" x="0" y="321.955625" style="fill: #de8f05; fill-opacity: 0.2; stroke: #de8f05; stroke-opacity: 0.2; stroke-width: 2"/>
    </g>
   </g>
   <g id="FillBetweenPolyCollection_4">
    <defs>
     <path id="m522d17b338" d="M 117.705133 -86.528349 
L 117.705133 -86.401829 
L 127.13524 -87.413992 
L 136.565346 -92.643504 
L 145.995453 -100.10821 
L 155.425559 -107.404223 
L 164.855665 -114.911103 
L 174.285772 -123.177105 
L 183.715878 -130.13573 
L 193.145985 -138.359559 
L 202.576091 -145.824265 
L 212.006198 -154.512003 
L 221.436304 -160.711505 
L 230.866411 -169.357069 
L 240.296517 -178.086979 
L 249.726624 -187.196452 
L 259.15673 -194.19725 
L 268.586837 -203.686283 
L 278.016943 -210.813602 
L 287.44705 -220.176115 
L 296.877156 -228.399944 
L 306.307263 -235.86465 
L 315.737369 -244.889776 
L 325.167475 -253.66186 
L 334.597582 -261.674822 
L 344.027688 -270.868641 
L 353.457795 -280.484195 
L 353.457795 -280.737236 
L 353.457795 -280.737236 
L 344.027688 -272.007325 
L 334.597582 -262.686985 
L 325.167475 -254.420983 
L 315.737369 -245.733245 
L 306.307263 -238.226365 
L 296.877156 -228.779505 
L 287.44705 -220.808717 
L 278.016943 -212.2475 
L 268.586837 -204.065845 
L 259.15673 -194.829852 
L 249.726624 -187.53384 
L 240.296517 -179.099143 
L 230.866411 -170.833141 
L 221.436304 -161.428454 
L 212.006198 -155.018085 
L 202.576091 -146.203827 
L 193.145985 -138.949988 
L 183.715878 -131.358761 
L 174.285772 -123.683187 
L 164.855665 -115.375011 
L 155.425559 -108.036825 
L 145.995453 -100.614292 
L 136.565346 -93.276106 
L 127.13524 -87.540513 
L 117.705133 -86.528349 
z
" style="stroke: #de8f05; stroke-opacity: 0.2; stroke-width: 2"/>
    </defs>
    <g clip-path="url(#paea851e4db)">
     <use xlink:href="#m522d17b338" x="0" y="321.955625" style="fill: #de8f05; fill-opacity: 0.2; stroke: #de8f05; stroke-opacity: 0.2; stroke-width: 2"/>
    </g>
   </g>
   <g id="line2d_19">
    <path d="M 117.705133 236.776827 
L 127.13524 236.776827 
L 136.565346 236.734654 
L 145.995453 236.734654 
L 155.425559 236.69248 
L 164.855665 236.56596 
L 174.285772 236.481613 
L 183.715878 236.312919 
L 193.145985 236.102052 
L 202.576091 235.975531 
L 212.006198 235.764664 
L 221.436304 235.59597 
L 230.866411 235.469449 
L 240.296517 235.174235 
L 249.726624 234.794674 
L 259.15673 234.668153 
L 268.586837 234.119898 
L 278.016943 234.035551 
L 287.44705 233.65599 
L 296.877156 233.360775 
L 306.307263 232.770346 
L 315.737369 232.390785 
L 325.167475 231.884703 
L 334.597582 231.884703 
L 344.027688 231.336448 
L 353.457795 230.788193 
" clip-path="url(#paea851e4db)" style="fill: none; stroke: #0173b2; stroke-width: 3; stroke-linecap: round"/>
   </g>
   <g id="line2d_20">
    <path d="M 117.705133 234.879021 
L 127.13524 233.107734 
L 136.565346 231.505142 
L 145.995453 225.474334 
L 155.425559 218.76875 
L 164.855665 212.653595 
L 174.285772 206.074532 
L 183.715878 200.507632 
L 193.145985 193.422487 
L 202.576091 187.222985 
L 212.006198 180.896963 
L 221.436304 174.823982 
L 230.866411 168.244918 
L 240.296517 161.412814 
L 249.726624 155.044618 
L 259.15673 149.772933 
L 268.586837 142.22388 
L 278.016943 136.024378 
L 287.44705 129.529661 
L 296.877156 123.625374 
L 306.307263 117.172831 
L 315.737369 110.804635 
L 325.167475 104.183399 
L 334.597582 98.574325 
L 344.027688 91.278313 
L 353.457795 84.783597 
" clip-path="url(#paea851e4db)" style="fill: none; stroke-dasharray: 12,4.5; stroke-dashoffset: 0; stroke: #0173b2; stroke-width: 3"/>
   </g>
   <g id="line2d_21">
    <path d="M 117.705133 235.216408 
L 127.13524 235.342929 
L 136.565346 235.300755 
L 145.995453 234.879021 
L 155.425559 234.7525 
L 164.855665 234.836847 
L 174.285772 234.921194 
L 183.715878 234.921194 
L 193.145985 235.005541 
L 202.576091 235.047715 
L 212.006198 235.047715 
L 221.436304 235.047715 
L 230.866411 235.005541 
L 240.296517 235.005541 
L 249.726624 235.005541 
L 259.15673 235.005541 
L 268.586837 235.047715 
L 278.016943 235.005541 
L 287.44705 235.047715 
L 296.877156 234.879021 
L 306.307263 234.879021 
L 315.737369 234.879021 
L 325.167475 234.836847 
L 334.597582 234.794674 
L 344.027688 234.7525 
L 353.457795 234.7525 
" clip-path="url(#paea851e4db)" style="fill: none; stroke: #de8f05; stroke-width: 3; stroke-linecap: round"/>
   </g>
   <g id="line2d_22">
    <path d="M 117.705133 235.511623 
L 127.13524 234.499459 
L 136.565346 229.05908 
L 145.995453 221.636547 
L 155.425559 214.298361 
L 164.855665 206.833655 
L 174.285772 198.441132 
L 183.715878 191.102946 
L 193.145985 183.300852 
L 202.576091 175.920492 
L 212.006198 167.148408 
L 221.436304 160.906732 
L 230.866411 151.839434 
L 240.296517 143.278217 
L 249.726624 134.590479 
L 259.15673 127.463161 
L 268.586837 118.058474 
L 278.016943 110.298553 
L 287.44705 101.399949 
L 296.877156 93.344814 
L 306.307263 84.741423 
L 315.737369 76.601941 
L 325.167475 67.914204 
L 334.597582 59.648201 
L 344.027688 50.454382 
L 353.457795 41.34491 
" clip-path="url(#paea851e4db)" style="fill: none; stroke-dasharray: 12,4.5; stroke-dashoffset: 0; stroke: #de8f05; stroke-width: 3"/>
   </g>
   <g id="line2d_23"/>
   <g id="line2d_24"/>
   <g id="line2d_25"/>
   <g id="line2d_26"/>
   <g id="line2d_27"/>
   <g id="line2d_28"/>
   <g id="patch_3">
    <path d="M 105.9175 250.73625 
L 105.9175 31.43625 
" style="fill: none; stroke: #cccccc; stroke-width: 2.5; stroke-linejoin: miter; stroke-linecap: square"/>
   </g>
   <g id="patch_4">
    <path d="M 105.9175 250.73625 
L 365.245428 250.73625 
" style="fill: none; stroke: #cccccc; stroke-width: 2.5; stroke-linejoin: miter; stroke-linecap: square"/>
   </g>
   <g id="text_10">
    <!-- Frames -->
    <g style="fill: #262626" transform="translate(191.938964 25.43625) scale(0.24 -0.24)">
     <defs>
      <path id="DejaVuSans-46" d="M 628 4666 
L 3309 4666 
L 3309 4134 
L 1259 4134 
L 1259 2759 
L 3109 2759 
L 3109 2228 
L 1259 2228 
L 1259 0 
L 628 0 
L 628 4666 
z
" transform="scale(0.015625)"/>
     </defs>
     <use xlink:href="#DejaVuSans-46"/>
     <use xlink:href="#DejaVuSans-72" transform="translate(50.269531 0)"/>
     <use xlink:href="#DejaVuSans-61" transform="translate(91.382812 0)"/>
     <use xlink:href="#DejaVuSans-6d" transform="translate(152.662109 0)"/>
     <use xlink:href="#DejaVuSans-65" transform="translate(250.074219 0)"/>
     <use xlink:href="#DejaVuSans-73" transform="translate(311.597656 0)"/>
    </g>
   </g>
  </g>
  <g id="axes_2">
   <g id="patch_5">
    <path d="M 474.050311 250.73625 
L 733.378239 250.73625 
L 733.378239 31.43625 
L 474.050311 31.43625 
z
" style="fill: #ffffff"/>
   </g>
   <g id="matplotlib.axis_3">
    <g id="xtick_16">
     <g id="line2d_29">
      <path d="M 485.837944 250.73625 
L 485.837944 31.43625 
" clip-path="url(#p7e355eedfb)" style="fill: none; stroke: #cccccc; stroke-width: 2; stroke-linecap: round"/>
     </g>
     <g id="text_11">
      <!-- 1 -->
      <g style="fill: #262626" transform="translate(478.839194 282.952812) scale(0.22 -0.22)">
       <use xlink:href="#DejaVuSans-31"/>
      </g>
     </g>
    </g>
    <g id="xtick_17">
     <g id="line2d_30">
      <path d="M 551.848689 250.73625 
L 551.848689 31.43625 
" clip-path="url(#p7e355eedfb)" style="fill: none; stroke: #cccccc; stroke-width: 2; stroke-linecap: round"/>
     </g>
     <g id="text_12">
      <!-- 8 -->
      <g style="fill: #262626" transform="translate(544.849939 282.952812) scale(0.22 -0.22)">
       <use xlink:href="#DejaVuSans-38"/>
      </g>
     </g>
    </g>
    <g id="xtick_18">
     <g id="line2d_31">
      <path d="M 627.289541 250.73625 
L 627.289541 31.43625 
" clip-path="url(#p7e355eedfb)" style="fill: none; stroke: #cccccc; stroke-width: 2; stroke-linecap: round"/>
     </g>
     <g id="text_13">
      <!-- 16 -->
      <g style="fill: #262626" transform="translate(613.292041 282.952812) scale(0.22 -0.22)">
       <use xlink:href="#DejaVuSans-31"/>
       <use xlink:href="#DejaVuSans-36" transform="translate(63.623047 0)"/>
      </g>
     </g>
    </g>
    <g id="xtick_19">
     <g id="line2d_32">
      <path d="M 702.730393 250.73625 
L 702.730393 31.43625 
" clip-path="url(#p7e355eedfb)" style="fill: none; stroke: #cccccc; stroke-width: 2; stroke-linecap: round"/>
     </g>
    </g>
    <g id="xtick_20">
     <g id="line2d_33">
      <path d="M 721.590606 250.73625 
L 721.590606 31.43625 
" clip-path="url(#p7e355eedfb)" style="fill: none; stroke: #cccccc; stroke-width: 2; stroke-linecap: round"/>
     </g>
     <g id="text_14">
      <!-- 26 -->
      <g style="fill: #262626" transform="translate(707.593106 282.952812) scale(0.22 -0.22)">
       <use xlink:href="#DejaVuSans-32"/>
       <use xlink:href="#DejaVuSans-36" transform="translate(63.623047 0)"/>
      </g>
     </g>
    </g>
    <g id="xtick_21">
     <g id="line2d_34">
      <path d="M 476.407837 250.73625 
L 476.407837 31.43625 
" clip-path="url(#p7e355eedfb)" style="fill: none; stroke: #cccccc; stroke-opacity: 0.3; stroke-width: 2; stroke-linecap: round"/>
     </g>
    </g>
    <g id="xtick_22">
     <g id="line2d_35">
      <path d="M 495.26805 250.73625 
L 495.26805 31.43625 
" clip-path="url(#p7e355eedfb)" style="fill: none; stroke: #cccccc; stroke-opacity: 0.3; stroke-width: 2; stroke-linecap: round"/>
     </g>
    </g>
    <g id="xtick_23">
     <g id="line2d_36">
      <path d="M 514.128263 250.73625 
L 514.128263 31.43625 
" clip-path="url(#p7e355eedfb)" style="fill: none; stroke: #cccccc; stroke-opacity: 0.3; stroke-width: 2; stroke-linecap: round"/>
     </g>
    </g>
    <g id="xtick_24">
     <g id="line2d_37">
      <path d="M 532.988476 250.73625 
L 532.988476 31.43625 
" clip-path="url(#p7e355eedfb)" style="fill: none; stroke: #cccccc; stroke-opacity: 0.3; stroke-width: 2; stroke-linecap: round"/>
     </g>
    </g>
    <g id="xtick_25">
     <g id="line2d_38">
      <path d="M 570.708902 250.73625 
L 570.708902 31.43625 
" clip-path="url(#p7e355eedfb)" style="fill: none; stroke: #cccccc; stroke-opacity: 0.3; stroke-width: 2; stroke-linecap: round"/>
     </g>
    </g>
    <g id="xtick_26">
     <g id="line2d_39">
      <path d="M 589.569115 250.73625 
L 589.569115 31.43625 
" clip-path="url(#p7e355eedfb)" style="fill: none; stroke: #cccccc; stroke-opacity: 0.3; stroke-width: 2; stroke-linecap: round"/>
     </g>
    </g>
    <g id="xtick_27">
     <g id="line2d_40">
      <path d="M 608.429328 250.73625 
L 608.429328 31.43625 
" clip-path="url(#p7e355eedfb)" style="fill: none; stroke: #cccccc; stroke-opacity: 0.3; stroke-width: 2; stroke-linecap: round"/>
     </g>
    </g>
    <g id="xtick_28">
     <g id="line2d_41">
      <path d="M 646.149754 250.73625 
L 646.149754 31.43625 
" clip-path="url(#p7e355eedfb)" style="fill: none; stroke: #cccccc; stroke-opacity: 0.3; stroke-width: 2; stroke-linecap: round"/>
     </g>
    </g>
    <g id="xtick_29">
     <g id="line2d_42">
      <path d="M 665.009967 250.73625 
L 665.009967 31.43625 
" clip-path="url(#p7e355eedfb)" style="fill: none; stroke: #cccccc; stroke-opacity: 0.3; stroke-width: 2; stroke-linecap: round"/>
     </g>
    </g>
    <g id="xtick_30">
     <g id="line2d_43">
      <path d="M 683.87018 250.73625 
L 683.87018 31.43625 
" clip-path="url(#p7e355eedfb)" style="fill: none; stroke: #cccccc; stroke-opacity: 0.3; stroke-width: 2; stroke-linecap: round"/>
     </g>
    </g>
    <g id="text_15">
     <!-- Threads -->
     <g style="fill: #262626" transform="translate(555.5099 309.764375) scale(0.24 -0.24)">
      <use xlink:href="#DejaVuSans-54"/>
      <use xlink:href="#DejaVuSans-68" transform="translate(61.083984 0)"/>
      <use xlink:href="#DejaVuSans-72" transform="translate(124.462891 0)"/>
      <use xlink:href="#DejaVuSans-65" transform="translate(163.326172 0)"/>
      <use xlink:href="#DejaVuSans-61" transform="translate(224.849609 0)"/>
      <use xlink:href="#DejaVuSans-64" transform="translate(286.128906 0)"/>
      <use xlink:href="#DejaVuSans-73" transform="translate(349.605469 0)"/>
     </g>
    </g>
   </g>
   <g id="matplotlib.axis_4">
    <g id="ytick_4">
     <g id="line2d_44">
      <path d="M 474.050311 250.73625 
L 733.378239 250.73625 
" clip-path="url(#p7e355eedfb)" style="fill: none; stroke: #cccccc; stroke-width: 2; stroke-linecap: round"/>
     </g>
     <g id="text_16">
      <!-- 0 -->
      <g style="fill: #262626" transform="translate(444.552811 259.094531) scale(0.22 -0.22)">
       <use xlink:href="#DejaVuSans-30"/>
      </g>
     </g>
    </g>
    <g id="ytick_5">
     <g id="line2d_45">
      <path d="M 474.050311 193.598818 
L 733.378239 193.598818 
" clip-path="url(#p7e355eedfb)" style="fill: none; stroke: #cccccc; stroke-width: 2; stroke-linecap: round"/>
     </g>
     <g id="text_17">
      <!-- 20000 -->
      <g style="fill: #262626" transform="translate(388.562811 201.957099) scale(0.22 -0.22)">
       <use xlink:href="#DejaVuSans-32"/>
       <use xlink:href="#DejaVuSans-30" transform="translate(63.623047 0)"/>
       <use xlink:href="#DejaVuSans-30" transform="translate(127.246094 0)"/>
       <use xlink:href="#DejaVuSans-30" transform="translate(190.869141 0)"/>
       <use xlink:href="#DejaVuSans-30" transform="translate(254.492188 0)"/>
      </g>
     </g>
    </g>
    <g id="ytick_6">
     <g id="line2d_46">
      <path d="M 474.050311 136.461386 
L 733.378239 136.461386 
" clip-path="url(#p7e355eedfb)" style="fill: none; stroke: #cccccc; stroke-width: 2; stroke-linecap: round"/>
     </g>
     <g id="text_18">
      <!-- 40000 -->
      <g style="fill: #262626" transform="translate(388.562811 144.819667) scale(0.22 -0.22)">
       <defs>
        <path id="DejaVuSans-34" d="M 2419 4116 
L 825 1625 
L 2419 1625 
L 2419 4116 
z
M 2253 4666 
L 3047 4666 
L 3047 1625 
L 3713 1625 
L 3713 1100 
L 3047 1100 
L 3047 0 
L 2419 0 
L 2419 1100 
L 313 1100 
L 313 1709 
L 2253 4666 
z
" transform="scale(0.015625)"/>
       </defs>
       <use xlink:href="#DejaVuSans-34"/>
       <use xlink:href="#DejaVuSans-30" transform="translate(63.623047 0)"/>
       <use xlink:href="#DejaVuSans-30" transform="translate(127.246094 0)"/>
       <use xlink:href="#DejaVuSans-30" transform="translate(190.869141 0)"/>
       <use xlink:href="#DejaVuSans-30" transform="translate(254.492188 0)"/>
      </g>
     </g>
    </g>
    <g id="ytick_7">
     <g id="line2d_47">
      <path d="M 474.050311 79.323953 
L 733.378239 79.323953 
" clip-path="url(#p7e355eedfb)" style="fill: none; stroke: #cccccc; stroke-width: 2; stroke-linecap: round"/>
     </g>
     <g id="text_19">
      <!-- 60000 -->
      <g style="fill: #262626" transform="translate(388.562811 87.682235) scale(0.22 -0.22)">
       <use xlink:href="#DejaVuSans-36"/>
       <use xlink:href="#DejaVuSans-30" transform="translate(63.623047 0)"/>
       <use xlink:href="#DejaVuSans-30" transform="translate(127.246094 0)"/>
       <use xlink:href="#DejaVuSans-30" transform="translate(190.869141 0)"/>
       <use xlink:href="#DejaVuSans-30" transform="translate(254.492188 0)"/>
      </g>
     </g>
    </g>
   </g>
   <g id="FillBetweenPolyCollection_5">
    <defs>
     <path id="m52c1500ae1" d="M 485.837944 -72.085721 
L 485.837944 -71.927879 
L 495.26805 -71.985017 
L 504.698157 -72.112147 
L 514.128263 -72.212852 
L 523.55837 -72.214995 
L 532.988476 -72.324984 
L 542.418583 -72.480684 
L 551.848689 -72.585674 
L 561.278796 -72.724946 
L 570.708902 -72.84922 
L 580.139008 -72.943497 
L 589.569115 -73.089197 
L 598.999221 -73.212043 
L 608.429328 -73.366314 
L 617.859434 -73.488445 
L 627.289541 -73.633432 
L 636.719647 -73.777704 
L 646.149754 -73.938403 
L 655.57986 -74.086246 
L 665.009967 -74.234803 
L 674.440073 -74.347649 
L 683.87018 -74.461924 
L 693.300286 -74.641907 
L 702.730393 -74.796178 
L 712.160499 -74.941164 
L 721.590606 -75.10472 
L 721.590606 -75.124718 
L 721.590606 -75.124718 
L 712.160499 -74.97259 
L 702.730393 -74.834032 
L 693.300286 -74.669047 
L 683.87018 -74.529061 
L 674.440073 -74.376932 
L 665.009967 -74.253373 
L 655.57986 -74.116957 
L 646.149754 -73.953401 
L 636.719647 -73.79913 
L 627.289541 -73.666286 
L 617.859434 -73.520585 
L 608.429328 -73.389169 
L 598.999221 -73.242754 
L 589.569115 -73.110624 
L 580.139008 -72.972066 
L 570.708902 -72.853506 
L 561.278796 -72.74423 
L 551.848689 -72.626384 
L 542.418583 -72.500682 
L 532.988476 -72.386407 
L 523.55837 -72.293594 
L 514.128263 -72.235707 
L 504.698157 -72.149287 
L 495.26805 -72.003586 
L 485.837944 -72.085721 
z
" style="stroke: #0173b2; stroke-opacity: 0.2; stroke-width: 2"/>
    </defs>
    <g clip-path="url(#p7e355eedfb)">
     <use xlink:href="#m52c1500ae1" x="0" y="321.955625" style="fill: #0173b2; fill-opacity: 0.2; stroke: #0173b2; stroke-opacity: 0.2; stroke-width: 2"/>
    </g>
   </g>
   <g id="FillBetweenPolyCollection_6">
    <defs>
     <path id="m3224980e74" d="M 485.837944 -78.951498 
L 485.837944 -78.491542 
L 495.26805 -86.509352 
L 504.698157 -94.523591 
L 514.128263 -102.870656 
L 523.55837 -111.205579 
L 532.988476 -118.848424 
L 542.418583 -127.159778 
L 551.848689 -135.071884 
L 561.278796 -143.372524 
L 570.708902 -151.611742 
L 580.139008 -159.53099 
L 589.569115 -167.542372 
L 598.999221 -175.5309 
L 608.429328 -183.498715 
L 617.859434 -191.333685 
L 627.289541 -199.327212 
L 636.719647 -207.458583 
L 646.149754 -215.713513 
L 655.57986 -223.721324 
L 665.009967 -231.829126 
L 674.440073 -239.903359 
L 683.87018 -248.011875 
L 693.300286 -256.147531 
L 702.730393 -264.23105 
L 712.160499 -272.315996 
L 721.590606 -279.468888 
L 721.590606 -280.110256 
L 721.590606 -280.110256 
L 712.160499 -272.557402 
L 702.730393 -264.466741 
L 693.300286 -256.330371 
L 683.87018 -248.14472 
L 674.440073 -240.019063 
L 665.009967 -232.140525 
L 655.57986 -223.946303 
L 646.149754 -215.891568 
L 636.719647 -207.745698 
L 627.289541 -199.415061 
L 617.859434 -191.473672 
L 608.429328 -185.131417 
L 598.999221 -175.864439 
L 589.569115 -167.760209 
L 580.139008 -159.895956 
L 570.708902 -151.825293 
L 561.278796 -143.576077 
L 551.848689 -135.517556 
L 542.418583 -127.27691 
L 532.988476 -119.100615 
L 523.55837 -111.29557 
L 514.128263 -103.177055 
L 504.698157 -94.718572 
L 495.26805 -86.723617 
L 485.837944 -78.951498 
z
" style="stroke: #0173b2; stroke-opacity: 0.2; stroke-width: 2"/>
    </defs>
    <g clip-path="url(#p7e355eedfb)">
     <use xlink:href="#m3224980e74" x="0" y="321.955625" style="fill: #0173b2; fill-opacity: 0.2; stroke: #0173b2; stroke-opacity: 0.2; stroke-width: 2"/>
    </g>
   </g>
   <g id="FillBetweenPolyCollection_7">
    <defs>
     <path id="m28d585f0ac" d="M 485.837944 -72.428546 
L 485.837944 -72.332126 
L 495.26805 -72.468542 
L 504.698157 -72.489254 
L 514.128263 -72.500682 
L 523.55837 -72.498539 
L 532.988476 -72.507824 
L 542.418583 -72.517823 
L 551.848689 -72.524251 
L 561.278796 -72.531393 
L 570.708902 -72.53425 
L 580.139008 -72.537107 
L 589.569115 -72.537821 
L 598.999221 -72.542821 
L 608.429328 -72.551391 
L 617.859434 -72.554962 
L 627.289541 -72.563533 
L 636.719647 -72.573532 
L 646.149754 -72.58637 
L 655.57986 -72.581389 
L 665.009967 -72.602815 
L 674.440073 -72.611386 
L 683.87018 -72.623527 
L 693.300286 -72.634955 
L 702.730393 -72.656381 
L 712.160499 -72.67638 
L 721.590606 -72.697092 
L 721.590606 -72.729232 
L 721.590606 -72.729232 
L 712.160499 -72.695663 
L 702.730393 -72.679236 
L 693.300286 -72.662095 
L 683.87018 -72.627098 
L 674.440073 -72.63067 
L 665.009967 -72.6071 
L 655.57986 -72.597816 
L 646.149754 -72.599976 
L 636.719647 -72.599244 
L 627.289541 -72.589245 
L 617.859434 -72.58496 
L 608.429328 -72.566408 
L 598.999221 -72.547106 
L 589.569115 -72.56139 
L 580.139008 -72.554248 
L 570.708902 -72.536393 
L 561.278796 -72.537821 
L 551.848689 -72.544963 
L 542.418583 -72.524251 
L 532.988476 -72.527108 
L 523.55837 -72.519984 
L 514.128263 -72.522108 
L 504.698157 -72.512109 
L 495.26805 -72.470685 
L 485.837944 -72.428546 
z
" style="stroke: #de8f05; stroke-opacity: 0.2; stroke-width: 2"/>
    </defs>
    <g clip-path="url(#p7e355eedfb)">
     <use xlink:href="#m28d585f0ac" x="0" y="321.955625" style="fill: #de8f05; fill-opacity: 0.2; stroke: #de8f05; stroke-opacity: 0.2; stroke-width: 2"/>
    </g>
   </g>
   <g id="FillBetweenPolyCollection_8">
    <defs>
     <path id="mfc27433865" d="M 485.837944 -72.514252 
L 485.837944 -72.470649 
L 495.26805 -72.634241 
L 504.698157 -72.774942 
L 514.128263 -72.929213 
L 523.55837 -73.586293 
L 532.988476 -74.218376 
L 542.418583 -74.951878 
L 551.848689 -74.909025 
L 561.278796 -75.635384 
L 570.708902 -75.824652 
L 580.139008 -76.576009 
L 589.569115 -76.602435 
L 598.999221 -77.465925 
L 608.429328 -77.385932 
L 617.859434 -77.84446 
L 627.289541 -78.351555 
L 636.719647 -78.837223 
L 646.149754 -79.527158 
L 655.57986 -79.781419 
L 665.009967 -80.241376 
L 674.440073 -80.741328 
L 683.87018 -81.219854 
L 693.300286 -81.648385 
L 702.730393 -82.18262 
L 712.160499 -82.671145 
L 721.590606 -83.939596 
L 721.590606 -85.683716 
L 721.590606 -85.683716 
L 712.160499 -82.880411 
L 702.730393 -82.446327 
L 693.300286 -81.812655 
L 683.87018 -81.397694 
L 674.440073 -80.916311 
L 665.009967 -80.31494 
L 655.57986 -80.047108 
L 646.149754 -79.583581 
L 636.719647 -78.974353 
L 627.289541 -78.535823 
L 617.859434 -77.878029 
L 608.429328 -77.665906 
L 598.999221 -78.102293 
L 589.569115 -77.590913 
L 580.139008 -77.180238 
L 570.708902 -76.368172 
L 561.278796 -76.089627 
L 551.848689 -75.326842 
L 542.418583 -75.106149 
L 532.988476 -74.514062 
L 523.55837 -73.635574 
L 514.128263 -73.134193 
L 504.698157 -72.858505 
L 495.26805 -72.683522 
L 485.837944 -72.514252 
z
" style="stroke: #de8f05; stroke-opacity: 0.2; stroke-width: 2"/>
    </defs>
    <g clip-path="url(#p7e355eedfb)">
     <use xlink:href="#mfc27433865" x="0" y="321.955625" style="fill: #de8f05; fill-opacity: 0.2; stroke: #de8f05; stroke-opacity: 0.2; stroke-width: 2"/>
    </g>
   </g>
   <g id="line2d_48">
    <path d="M 485.837944 249.959895 
L 495.26805 249.961324 
L 504.698157 249.824908 
L 514.128263 249.733488 
L 523.55837 249.701348 
L 532.988476 249.599929 
L 542.418583 249.464942 
L 551.848689 249.354238 
L 561.278796 249.222822 
L 570.708902 249.104262 
L 580.139008 248.999986 
L 589.569115 248.855714 
L 598.999221 248.730012 
L 608.429328 248.576455 
L 617.859434 248.450038 
L 627.289541 248.305052 
L 636.719647 248.167208 
L 646.149754 248.009366 
L 655.57986 247.854381 
L 665.009967 247.711537 
L 674.440073 247.594405 
L 683.87018 247.463704 
L 693.300286 247.299433 
L 702.730393 247.135878 
L 712.160499 246.996605 
L 721.590606 246.840906 
" clip-path="url(#p7e355eedfb)" style="fill: none; stroke: #0173b2; stroke-width: 3; stroke-linecap: round"/>
   </g>
   <g id="line2d_49">
    <path d="M 485.837944 243.264817 
L 495.26805 235.324856 
L 504.698157 227.324901 
L 514.128263 218.907129 
L 523.55837 210.712193 
L 532.988476 202.948644 
L 542.418583 194.737281 
L 551.848689 186.613052 
L 561.278796 178.504537 
L 570.708902 170.234608 
L 580.139008 162.280363 
L 589.569115 154.29255 
L 598.999221 146.289024 
L 608.429328 137.902677 
L 617.859434 130.558375 
L 627.289541 122.57699 
L 636.719647 114.362055 
L 646.149754 106.149264 
L 655.57986 98.111455 
L 665.009967 89.972942 
L 674.440073 81.994414 
L 683.87018 73.863043 
L 693.300286 65.708103 
L 702.730393 57.626013 
L 712.160499 49.518926 
L 721.590606 42.176766 
" clip-path="url(#p7e355eedfb)" style="fill: none; stroke-dasharray: 12,4.5; stroke-dashoffset: 0; stroke: #0173b2; stroke-width: 3"/>
   </g>
   <g id="line2d_50">
    <path d="M 485.837944 249.585645 
L 495.26805 249.485654 
L 504.698157 249.456372 
L 514.128263 249.44423 
L 523.55837 249.447087 
L 532.988476 249.440659 
L 542.418583 249.434231 
L 551.848689 249.422803 
L 561.278796 249.421375 
L 570.708902 249.419946 
L 580.139008 249.41209 
L 589.569115 249.408519 
L 598.999221 249.410662 
L 608.429328 249.397806 
L 617.859434 249.385664 
L 627.289541 249.379236 
L 636.719647 249.370665 
L 646.149754 249.364237 
L 655.57986 249.364237 
L 665.009967 249.350667 
L 674.440073 249.337097 
L 683.87018 249.330669 
L 693.300286 249.308528 
L 702.730393 249.290673 
L 712.160499 249.272103 
L 721.590606 249.247106 
" clip-path="url(#p7e355eedfb)" style="fill: none; stroke: #de8f05; stroke-width: 3; stroke-linecap: round"/>
   </g>
   <g id="line2d_51">
    <path d="M 485.837944 249.468513 
L 495.26805 249.296387 
L 504.698157 249.148544 
L 514.128263 248.949991 
L 523.55837 248.345763 
L 532.988476 247.569408 
L 542.418583 246.940896 
L 551.848689 246.898757 
L 561.278796 246.040982 
L 570.708902 245.944562 
L 580.139008 245.006794 
L 589.569115 245.003937 
L 598.999221 244.089738 
L 608.429328 244.452561 
L 617.859434 244.091881 
L 627.289541 243.523363 
L 636.719647 243.044123 
L 646.149754 242.400613 
L 655.57986 242.045647 
L 665.009967 241.684967 
L 674.440073 241.132162 
L 683.87018 240.662206 
L 693.300286 240.225105 
L 702.730393 239.662301 
L 712.160499 239.17949 
L 721.590606 237.008982 
" clip-path="url(#p7e355eedfb)" style="fill: none; stroke-dasharray: 12,4.5; stroke-dashoffset: 0; stroke: #de8f05; stroke-width: 3"/>
   </g>
   <g id="line2d_52"/>
   <g id="line2d_53"/>
   <g id="line2d_54"/>
   <g id="line2d_55"/>
   <g id="line2d_56"/>
   <g id="line2d_57"/>
   <g id="patch_6">
    <path d="M 474.050311 250.73625 
L 474.050311 31.43625 
" style="fill: none; stroke: #cccccc; stroke-width: 2.5; stroke-linejoin: miter; stroke-linecap: square"/>
   </g>
   <g id="patch_7">
    <path d="M 474.050311 250.73625 
L 733.378239 250.73625 
" style="fill: none; stroke: #cccccc; stroke-width: 2.5; stroke-linejoin: miter; stroke-linecap: square"/>
   </g>
   <g id="text_20">
    <!-- Huge Frames -->
    <g style="fill: #262626" transform="translate(524.626775 25.43625) scale(0.24 -0.24)">
     <defs>
      <path id="DejaVuSans-48" d="M 628 4666 
L 1259 4666 
L 1259 2753 
L 3553 2753 
L 3553 4666 
L 4184 4666 
L 4184 0 
L 3553 0 
L 3553 2222 
L 1259 2222 
L 1259 0 
L 628 0 
L 628 4666 
z
" transform="scale(0.015625)"/>
      <path id="DejaVuSans-75" d="M 544 1381 
L 544 3500 
L 1119 3500 
L 1119 1403 
Q 1119 906 1312 657 
Q 1506 409 1894 409 
Q 2359 409 2629 706 
Q 2900 1003 2900 1516 
L 2900 3500 
L 3475 3500 
L 3475 0 
L 2900 0 
L 2900 538 
Q 2691 219 2414 64 
Q 2138 -91 1772 -91 
Q 1169 -91 856 284 
Q 544 659 544 1381 
z
M 1991 3584 
L 1991 3584 
z
" transform="scale(0.015625)"/>
     </defs>
     <use xlink:href="#DejaVuSans-48"/>
     <use xlink:href="#DejaVuSans-75" transform="translate(75.195312 0)"/>
     <use xlink:href="#DejaVuSans-67" transform="translate(138.574219 0)"/>
     <use xlink:href="#DejaVuSans-65" transform="translate(202.050781 0)"/>
     <use xlink:href="#DejaVuSans-20" transform="translate(263.574219 0)"/>
     <use xlink:href="#DejaVuSans-46" transform="translate(295.361328 0)"/>
     <use xlink:href="#DejaVuSans-72" transform="translate(345.630859 0)"/>
     <use xlink:href="#DejaVuSans-61" transform="translate(386.744141 0)"/>
     <use xlink:href="#DejaVuSans-6d" transform="translate(448.023438 0)"/>
     <use xlink:href="#DejaVuSans-65" transform="translate(545.435547 0)"/>
     <use xlink:href="#DejaVuSans-73" transform="translate(606.958984 0)"/>
    </g>
   </g>
  </g>
  <g id="legend_1">
   <g id="text_21">
    <!-- Operation -->
    <g style="fill: #262626" transform="translate(762.869207 70.724687) scale(0.24 -0.24)">
     <defs>
      <path id="DejaVuSans-4f" d="M 2522 4238 
Q 1834 4238 1429 3725 
Q 1025 3213 1025 2328 
Q 1025 1447 1429 934 
Q 1834 422 2522 422 
Q 3209 422 3611 934 
Q 4013 1447 4013 2328 
Q 4013 3213 3611 3725 
Q 3209 4238 2522 4238 
z
M 2522 4750 
Q 3503 4750 4090 4092 
Q 4678 3434 4678 2328 
Q 4678 1225 4090 567 
Q 3503 -91 2522 -91 
Q 1538 -91 948 565 
Q 359 1222 359 2328 
Q 359 3434 948 4092 
Q 1538 4750 2522 4750 
z
" transform="scale(0.015625)"/>
      <path id="DejaVuSans-70" d="M 1159 525 
L 1159 -1331 
L 581 -1331 
L 581 3500 
L 1159 3500 
L 1159 2969 
Q 1341 3281 1617 3432 
Q 1894 3584 2278 3584 
Q 2916 3584 3314 3078 
Q 3713 2572 3713 1747 
Q 3713 922 3314 415 
Q 2916 -91 2278 -91 
Q 1894 -91 1617 61 
Q 1341 213 1159 525 
z
M 3116 1747 
Q 3116 2381 2855 2742 
Q 2594 3103 2138 3103 
Q 1681 3103 1420 2742 
Q 1159 2381 1159 1747 
Q 1159 1113 1420 752 
Q 1681 391 2138 391 
Q 2594 391 2855 752 
Q 3116 1113 3116 1747 
z
" transform="scale(0.015625)"/>
      <path id="DejaVuSans-6f" d="M 1959 3097 
Q 1497 3097 1228 2736 
Q 959 2375 959 1747 
Q 959 1119 1226 758 
Q 1494 397 1959 397 
Q 2419 397 2687 759 
Q 2956 1122 2956 1747 
Q 2956 2369 2687 2733 
Q 2419 3097 1959 3097 
z
M 1959 3584 
Q 2709 3584 3137 3096 
Q 3566 2609 3566 1747 
Q 3566 888 3137 398 
Q 2709 -91 1959 -91 
Q 1206 -91 779 398 
Q 353 888 353 1747 
Q 353 2609 779 3096 
Q 1206 3584 1959 3584 
z
" transform="scale(0.015625)"/>
     </defs>
     <use xlink:href="#DejaVuSans-4f"/>
     <use xlink:href="#DejaVuSans-70" transform="translate(78.710938 0)"/>
     <use xlink:href="#DejaVuSans-65" transform="translate(142.1875 0)"/>
     <use xlink:href="#DejaVuSans-72" transform="translate(203.710938 0)"/>
     <use xlink:href="#DejaVuSans-61" transform="translate(244.824219 0)"/>
     <use xlink:href="#DejaVuSans-74" transform="translate(306.103516 0)"/>
     <use xlink:href="#DejaVuSans-69" transform="translate(345.3125 0)"/>
     <use xlink:href="#DejaVuSans-6f" transform="translate(373.095703 0)"/>
     <use xlink:href="#DejaVuSans-6e" transform="translate(434.277344 0)"/>
    </g>
   </g>
   <g id="line2d_58">
    <path d="M 737.045926 95.7325 
L 759.045926 95.7325 
L 781.045926 95.7325 
" style="fill: none"/>
   </g>
   <g id="text_22">
    <!-- Operation -->
    <g style="fill: #262626" transform="translate(798.645926 103.4325) scale(0.22 -0.22)">
     <use xlink:href="#DejaVuSans-4f"/>
     <use xlink:href="#DejaVuSans-70" transform="translate(78.710938 0)"/>
     <use xlink:href="#DejaVuSans-65" transform="translate(142.1875 0)"/>
     <use xlink:href="#DejaVuSans-72" transform="translate(203.710938 0)"/>
     <use xlink:href="#DejaVuSans-61" transform="translate(244.824219 0)"/>
     <use xlink:href="#DejaVuSans-74" transform="translate(306.103516 0)"/>
     <use xlink:href="#DejaVuSans-69" transform="translate(345.3125 0)"/>
     <use xlink:href="#DejaVuSans-6f" transform="translate(373.095703 0)"/>
     <use xlink:href="#DejaVuSans-6e" transform="translate(434.277344 0)"/>
    </g>
   </g>
   <g id="line2d_59">
    <path d="M 737.045926 128.024375 
L 759.045926 128.024375 
L 781.045926 128.024375 
" style="fill: none; stroke: #0173b2; stroke-width: 3; stroke-linecap: round"/>
   </g>
   <g id="text_23">
    <!-- alloc -->
    <g style="fill: #262626" transform="translate(798.645926 135.724375) scale(0.22 -0.22)">
     <defs>
      <path id="DejaVuSans-6c" d="M 603 4863 
L 1178 4863 
L 1178 0 
L 603 0 
L 603 4863 
z
" transform="scale(0.015625)"/>
      <path id="DejaVuSans-63" d="M 3122 3366 
L 3122 2828 
Q 2878 2963 2633 3030 
Q 2388 3097 2138 3097 
Q 1578 3097 1268 2742 
Q 959 2388 959 1747 
Q 959 1106 1268 751 
Q 1578 397 2138 397 
Q 2388 397 2633 464 
Q 2878 531 3122 666 
L 3122 134 
Q 2881 22 2623 -34 
Q 2366 -91 2075 -91 
Q 1284 -91 818 406 
Q 353 903 353 1747 
Q 353 2603 823 3093 
Q 1294 3584 2113 3584 
Q 2378 3584 2631 3529 
Q 2884 3475 3122 3366 
z
" transform="scale(0.015625)"/>
     </defs>
     <use xlink:href="#DejaVuSans-61"/>
     <use xlink:href="#DejaVuSans-6c" transform="translate(61.279297 0)"/>
     <use xlink:href="#DejaVuSans-6c" transform="translate(89.0625 0)"/>
     <use xlink:href="#DejaVuSans-6f" transform="translate(116.845703 0)"/>
     <use xlink:href="#DejaVuSans-63" transform="translate(178.027344 0)"/>
    </g>
   </g>
   <g id="line2d_60">
    <path d="M 737.045926 160.31625 
L 759.045926 160.31625 
L 781.045926 160.31625 
" style="fill: none; stroke: #de8f05; stroke-width: 3; stroke-linecap: round"/>
   </g>
   <g id="text_24">
    <!-- free -->
    <g style="fill: #262626" transform="translate(798.645926 168.01625) scale(0.22 -0.22)">
     <defs>
      <path id="DejaVuSans-66" d="M 2375 4863 
L 2375 4384 
L 1825 4384 
Q 1516 4384 1395 4259 
Q 1275 4134 1275 3809 
L 1275 3500 
L 2222 3500 
L 2222 3053 
L 1275 3053 
L 1275 0 
L 697 0 
L 697 3053 
L 147 3053 
L 147 3500 
L 697 3500 
L 697 3744 
Q 697 4328 969 4595 
Q 1241 4863 1831 4863 
L 2375 4863 
z
" transform="scale(0.015625)"/>
     </defs>
     <use xlink:href="#DejaVuSans-66"/>
     <use xlink:href="#DejaVuSans-72" transform="translate(35.205078 0)"/>
     <use xlink:href="#DejaVuSans-65" transform="translate(74.068359 0)"/>
     <use xlink:href="#DejaVuSans-65" transform="translate(135.591797 0)"/>
    </g>
   </g>
   <g id="line2d_61">
    <path d="M 737.045926 192.608125 
L 759.045926 192.608125 
L 781.045926 192.608125 
" style="fill: none"/>
   </g>
   <g id="text_25">
    <!-- Allocator -->
    <g style="fill: #262626" transform="translate(798.645926 200.308125) scale(0.22 -0.22)">
     <use xlink:href="#DejaVuSans-41"/>
     <use xlink:href="#DejaVuSans-6c" transform="translate(68.408203 0)"/>
     <use xlink:href="#DejaVuSans-6c" transform="translate(96.191406 0)"/>
     <use xlink:href="#DejaVuSans-6f" transform="translate(123.974609 0)"/>
     <use xlink:href="#DejaVuSans-63" transform="translate(185.15625 0)"/>
     <use xlink:href="#DejaVuSans-61" transform="translate(240.136719 0)"/>
     <use xlink:href="#DejaVuSans-74" transform="translate(301.416016 0)"/>
     <use xlink:href="#DejaVuSans-6f" transform="translate(340.625 0)"/>
     <use xlink:href="#DejaVuSans-72" transform="translate(401.806641 0)"/>
    </g>
   </g>
   <g id="line2d_62">
    <path d="M 737.045926 224.9 
L 759.045926 224.9 
L 781.045926 224.9 
" style="fill: none; stroke: #333333; stroke-width: 3; stroke-linecap: round"/>
   </g>
   <g id="text_26">
    <!-- LLFree -->
    <g style="fill: #262626" transform="translate(798.645926 232.6) scale(0.22 -0.22)">
     <defs>
      <path id="DejaVuSans-4c" d="M 628 4666 
L 1259 4666 
L 1259 531 
L 3531 531 
L 3531 0 
L 628 0 
L 628 4666 
z
" transform="scale(0.015625)"/>
     </defs>
     <use xlink:href="#DejaVuSans-4c"/>
     <use xlink:href="#DejaVuSans-4c" transform="translate(55.712891 0)"/>
     <use xlink:href="#DejaVuSans-46" transform="translate(111.425781 0)"/>
     <use xlink:href="#DejaVuSans-72" transform="translate(161.695312 0)"/>
     <use xlink:href="#DejaVuSans-65" transform="translate(200.558594 0)"/>
     <use xlink:href="#DejaVuSans-65" transform="translate(262.082031 0)"/>
    </g>
   </g>
   <g id="line2d_63">
    <path d="M 737.045926 257.191875 
L 759.045926 257.191875 
L 781.045926 257.191875 
" style="fill: none; stroke-dasharray: 12,4.5; stroke-dashoffset: 0; stroke: #333333; stroke-width: 3"/>
   </g>
   <g id="text_27">
    <!-- Buddy -->
    <g style="fill: #262626" transform="translate(798.645926 264.891875) scale(0.22 -0.22)">
     <defs>
      <path id="DejaVuSans-42" d="M 1259 2228 
L 1259 519 
L 2272 519 
Q 2781 519 3026 730 
Q 3272 941 3272 1375 
Q 3272 1813 3026 2020 
Q 2781 2228 2272 2228 
L 1259 2228 
z
M 1259 4147 
L 1259 2741 
L 2194 2741 
Q 2656 2741 2882 2914 
Q 3109 3088 3109 3444 
Q 3109 3797 2882 3972 
Q 2656 4147 2194 4147 
L 1259 4147 
z
M 628 4666 
L 2241 4666 
Q 2963 4666 3353 4366 
Q 3744 4066 3744 3513 
Q 3744 3084 3544 2831 
Q 3344 2578 2956 2516 
Q 3422 2416 3680 2098 
Q 3938 1781 3938 1306 
Q 3938 681 3513 340 
Q 3088 0 2303 0 
L 628 0 
L 628 4666 
z
" transform="scale(0.015625)"/>
      <path id="DejaVuSans-79" d="M 2059 -325 
Q 1816 -950 1584 -1140 
Q 1353 -1331 966 -1331 
L 506 -1331 
L 506 -850 
L 844 -850 
Q 1081 -850 1212 -737 
Q 1344 -625 1503 -206 
L 1606 56 
L 191 3500 
L 800 3500 
L 1894 763 
L 2988 3500 
L 3597 3500 
L 2059 -325 
z
" transform="scale(0.015625)"/>
     </defs>
     <use xlink:href="#DejaVuSans-42"/>
     <use xlink:href="#DejaVuSans-75" transform="translate(68.603516 0)"/>
     <use xlink:href="#DejaVuSans-64" transform="translate(131.982422 0)"/>
     <use xlink:href="#DejaVuSans-64" transform="translate(195.458984 0)"/>
     <use xlink:href="#DejaVuSans-79" transform="translate(258.935547 0)"/>
    </g>
   </g>
  </g>
 </g>
 <defs>
  <clipPath id="paea851e4db">
   <rect x="105.9175" y="31.43625" width="259.327928" height="219.3"/>
  </clipPath>
  <clipPath id="p7e355eedfb">
   <rect x="474.050311" y="31.43625" width="259.327928" height="219.3"/>
  </clipPath>
 </defs>
</svg>
