<?xml version="1.0" encoding="utf-8" standalone="no"?>
<!DOCTYPE svg PUBLIC "-//W3C//DTD SVG 1.1//EN"
  "http://www.w3.org/Graphics/SVG/1.1/DTD/svg11.dtd">
<svg xmlns:xlink="http://www.w3.org/1999/xlink" width="684.986029pt" height="394.439375pt" viewBox="0 0 684.986029 394.439375" xmlns="http://www.w3.org/2000/svg" version="1.1">
 <metadata>
  <rdf:RDF xmlns:dc="http://purl.org/dc/elements/1.1/" xmlns:cc="http://creativecommons.org/ns#" xmlns:rdf="http://www.w3.org/1999/02/22-rdf-syntax-ns#">
   <cc:Work>
    <dc:type rdf:resource="http://purl.org/dc/dcmitype/StillImage"/>
    <dc:date>2023-12-14T13:36:52.718228</dc:date>
    <dc:format>image/svg+xml</dc:format>
    <dc:creator>
     <cc:Agent>
      <dc:title>Matplotlib v3.8.2, https://matplotlib.org/</dc:title>
     </cc:Agent>
    </dc:creator>
   </cc:Work>
  </rdf:RDF>
 </metadata>
 <defs>
  <style type="text/css">*{stroke-linejoin: round; stroke-linecap: butt}</style>
 </defs>
 <g id="figure_1">
  <g id="patch_1">
   <path d="M 0 394.439375 
L 684.986029 394.439375 
L 684.986029 0 
L 0 0 
z
" style="fill: #ffffff"/>
  </g>
  <g id="axes_1">
   <g id="patch_2">
    <path d="M 105.9175 323.22 
L 492.552729 323.22 
L 492.552729 7.2 
L 105.9175 7.2 
z
" style="fill: #ffffff"/>
   </g>
   <g id="matplotlib.axis_1">
    <g id="xtick_1">
     <g id="line2d_1">
      <path d="M 123.491829 323.22 
L 123.491829 7.2 
" clip-path="url(#pe44b92e524)" style="fill: none; stroke: #cccccc; stroke-width: 2; stroke-linecap: round"/>
     </g>
     <g id="text_1">
      <!-- 1 -->
      <g style="fill: #262626" transform="translate(116.493079 355.436562) scale(0.22 -0.22)">
       <defs>
        <path id="DejaVuSans-31" d="M 794 531 
L 1825 531 
L 1825 4091 
L 703 3866 
L 703 4441 
L 1819 4666 
L 2450 4666 
L 2450 531 
L 3481 531 
L 3481 0 
L 794 0 
L 794 531 
z
" transform="scale(0.015625)"/>
       </defs>
       <use xlink:href="#DejaVuSans-31"/>
      </g>
     </g>
    </g>
    <g id="xtick_2">
     <g id="line2d_2">
      <path d="M 221.908069 323.22 
L 221.908069 7.2 
" clip-path="url(#pe44b92e524)" style="fill: none; stroke: #cccccc; stroke-width: 2; stroke-linecap: round"/>
     </g>
     <g id="text_2">
      <!-- 8 -->
      <g style="fill: #262626" transform="translate(214.909319 355.436562) scale(0.22 -0.22)">
       <defs>
        <path id="DejaVuSans-38" d="M 2034 2216 
Q 1584 2216 1326 1975 
Q 1069 1734 1069 1313 
Q 1069 891 1326 650 
Q 1584 409 2034 409 
Q 2484 409 2743 651 
Q 3003 894 3003 1313 
Q 3003 1734 2745 1975 
Q 2488 2216 2034 2216 
z
M 1403 2484 
Q 997 2584 770 2862 
Q 544 3141 544 3541 
Q 544 4100 942 4425 
Q 1341 4750 2034 4750 
Q 2731 4750 3128 4425 
Q 3525 4100 3525 3541 
Q 3525 3141 3298 2862 
Q 3072 2584 2669 2484 
Q 3125 2378 3379 2068 
Q 3634 1759 3634 1313 
Q 3634 634 3220 271 
Q 2806 -91 2034 -91 
Q 1263 -91 848 271 
Q 434 634 434 1313 
Q 434 1759 690 2068 
Q 947 2378 1403 2484 
z
M 1172 3481 
Q 1172 3119 1398 2916 
Q 1625 2713 2034 2713 
Q 2441 2713 2670 2916 
Q 2900 3119 2900 3481 
Q 2900 3844 2670 4047 
Q 2441 4250 2034 4250 
Q 1625 4250 1398 4047 
Q 1172 3844 1172 3481 
z
" transform="scale(0.015625)"/>
       </defs>
       <use xlink:href="#DejaVuSans-38"/>
      </g>
     </g>
    </g>
    <g id="xtick_3">
     <g id="line2d_3">
      <path d="M 334.383772 323.22 
L 334.383772 7.2 
" clip-path="url(#pe44b92e524)" style="fill: none; stroke: #cccccc; stroke-width: 2; stroke-linecap: round"/>
     </g>
     <g id="text_3">
      <!-- 16 -->
      <g style="fill: #262626" transform="translate(320.386272 355.436562) scale(0.22 -0.22)">
       <defs>
        <path id="DejaVuSans-36" d="M 2113 2584 
Q 1688 2584 1439 2293 
Q 1191 2003 1191 1497 
Q 1191 994 1439 701 
Q 1688 409 2113 409 
Q 2538 409 2786 701 
Q 3034 994 3034 1497 
Q 3034 2003 2786 2293 
Q 2538 2584 2113 2584 
z
M 3366 4563 
L 3366 3988 
Q 3128 4100 2886 4159 
Q 2644 4219 2406 4219 
Q 1781 4219 1451 3797 
Q 1122 3375 1075 2522 
Q 1259 2794 1537 2939 
Q 1816 3084 2150 3084 
Q 2853 3084 3261 2657 
Q 3669 2231 3669 1497 
Q 3669 778 3244 343 
Q 2819 -91 2113 -91 
Q 1303 -91 875 529 
Q 447 1150 447 2328 
Q 447 3434 972 4092 
Q 1497 4750 2381 4750 
Q 2619 4750 2861 4703 
Q 3103 4656 3366 4563 
z
" transform="scale(0.015625)"/>
       </defs>
       <use xlink:href="#DejaVuSans-31"/>
       <use xlink:href="#DejaVuSans-36" x="63.623047"/>
      </g>
     </g>
    </g>
    <g id="xtick_4">
     <g id="line2d_4">
      <path d="M 446.859475 323.22 
L 446.859475 7.2 
" clip-path="url(#pe44b92e524)" style="fill: none; stroke: #cccccc; stroke-width: 2; stroke-linecap: round"/>
     </g>
    </g>
    <g id="xtick_5">
     <g id="line2d_5">
      <path d="M 474.9784 323.22 
L 474.9784 7.2 
" clip-path="url(#pe44b92e524)" style="fill: none; stroke: #cccccc; stroke-width: 2; stroke-linecap: round"/>
     </g>
     <g id="text_4">
      <!-- 26 -->
      <g style="fill: #262626" transform="translate(460.9809 355.436562) scale(0.22 -0.22)">
       <defs>
        <path id="DejaVuSans-32" d="M 1228 531 
L 3431 531 
L 3431 0 
L 469 0 
L 469 531 
Q 828 903 1448 1529 
Q 2069 2156 2228 2338 
Q 2531 2678 2651 2914 
Q 2772 3150 2772 3378 
Q 2772 3750 2511 3984 
Q 2250 4219 1831 4219 
Q 1534 4219 1204 4116 
Q 875 4013 500 3803 
L 500 4441 
Q 881 4594 1212 4672 
Q 1544 4750 1819 4750 
Q 2544 4750 2975 4387 
Q 3406 4025 3406 3419 
Q 3406 3131 3298 2873 
Q 3191 2616 2906 2266 
Q 2828 2175 2409 1742 
Q 1991 1309 1228 531 
z
" transform="scale(0.015625)"/>
       </defs>
       <use xlink:href="#DejaVuSans-32"/>
       <use xlink:href="#DejaVuSans-36" x="63.623047"/>
      </g>
     </g>
    </g>
    <g id="text_5">
     <!-- Cores -->
     <g style="fill: #262626" transform="translate(265.215114 382.248125) scale(0.24 -0.24)">
      <defs>
       <path id="DejaVuSans-43" d="M 4122 4306 
L 4122 3641 
Q 3803 3938 3442 4084 
Q 3081 4231 2675 4231 
Q 1875 4231 1450 3742 
Q 1025 3253 1025 2328 
Q 1025 1406 1450 917 
Q 1875 428 2675 428 
Q 3081 428 3442 575 
Q 3803 722 4122 1019 
L 4122 359 
Q 3791 134 3420 21 
Q 3050 -91 2638 -91 
Q 1578 -91 968 557 
Q 359 1206 359 2328 
Q 359 3453 968 4101 
Q 1578 4750 2638 4750 
Q 3056 4750 3426 4639 
Q 3797 4528 4122 4306 
z
" transform="scale(0.015625)"/>
       <path id="DejaVuSans-6f" d="M 1959 3097 
Q 1497 3097 1228 2736 
Q 959 2375 959 1747 
Q 959 1119 1226 758 
Q 1494 397 1959 397 
Q 2419 397 2687 759 
Q 2956 1122 2956 1747 
Q 2956 2369 2687 2733 
Q 2419 3097 1959 3097 
z
M 1959 3584 
Q 2709 3584 3137 3096 
Q 3566 2609 3566 1747 
Q 3566 888 3137 398 
Q 2709 -91 1959 -91 
Q 1206 -91 779 398 
Q 353 888 353 1747 
Q 353 2609 779 3096 
Q 1206 3584 1959 3584 
z
" transform="scale(0.015625)"/>
       <path id="DejaVuSans-72" d="M 2631 2963 
Q 2534 3019 2420 3045 
Q 2306 3072 2169 3072 
Q 1681 3072 1420 2755 
Q 1159 2438 1159 1844 
L 1159 0 
L 581 0 
L 581 3500 
L 1159 3500 
L 1159 2956 
Q 1341 3275 1631 3429 
Q 1922 3584 2338 3584 
Q 2397 3584 2469 3576 
Q 2541 3569 2628 3553 
L 2631 2963 
z
" transform="scale(0.015625)"/>
       <path id="DejaVuSans-65" d="M 3597 1894 
L 3597 1613 
L 953 1613 
Q 991 1019 1311 708 
Q 1631 397 2203 397 
Q 2534 397 2845 478 
Q 3156 559 3463 722 
L 3463 178 
Q 3153 47 2828 -22 
Q 2503 -91 2169 -91 
Q 1331 -91 842 396 
Q 353 884 353 1716 
Q 353 2575 817 3079 
Q 1281 3584 2069 3584 
Q 2775 3584 3186 3129 
Q 3597 2675 3597 1894 
z
M 3022 2063 
Q 3016 2534 2758 2815 
Q 2500 3097 2075 3097 
Q 1594 3097 1305 2825 
Q 1016 2553 972 2059 
L 3022 2063 
z
" transform="scale(0.015625)"/>
       <path id="DejaVuSans-73" d="M 2834 3397 
L 2834 2853 
Q 2591 2978 2328 3040 
Q 2066 3103 1784 3103 
Q 1356 3103 1142 2972 
Q 928 2841 928 2578 
Q 928 2378 1081 2264 
Q 1234 2150 1697 2047 
L 1894 2003 
Q 2506 1872 2764 1633 
Q 3022 1394 3022 966 
Q 3022 478 2636 193 
Q 2250 -91 1575 -91 
Q 1294 -91 989 -36 
Q 684 19 347 128 
L 347 722 
Q 666 556 975 473 
Q 1284 391 1588 391 
Q 1994 391 2212 530 
Q 2431 669 2431 922 
Q 2431 1156 2273 1281 
Q 2116 1406 1581 1522 
L 1381 1569 
Q 847 1681 609 1914 
Q 372 2147 372 2553 
Q 372 3047 722 3315 
Q 1072 3584 1716 3584 
Q 2034 3584 2315 3537 
Q 2597 3491 2834 3397 
z
" transform="scale(0.015625)"/>
      </defs>
      <use xlink:href="#DejaVuSans-43"/>
      <use xlink:href="#DejaVuSans-6f" x="69.824219"/>
      <use xlink:href="#DejaVuSans-72" x="131.005859"/>
      <use xlink:href="#DejaVuSans-65" x="169.869141"/>
      <use xlink:href="#DejaVuSans-73" x="231.392578"/>
     </g>
    </g>
   </g>
   <g id="matplotlib.axis_2">
    <g id="ytick_1">
     <g id="line2d_6">
      <path d="M 105.9175 323.22 
L 492.552729 323.22 
" clip-path="url(#pe44b92e524)" style="fill: none; stroke: #cccccc; stroke-width: 2; stroke-linecap: round"/>
     </g>
     <g id="text_6">
      <!-- 0 -->
      <g style="fill: #262626" transform="translate(76.42 331.578281) scale(0.22 -0.22)">
       <defs>
        <path id="DejaVuSans-30" d="M 2034 4250 
Q 1547 4250 1301 3770 
Q 1056 3291 1056 2328 
Q 1056 1369 1301 889 
Q 1547 409 2034 409 
Q 2525 409 2770 889 
Q 3016 1369 3016 2328 
Q 3016 3291 2770 3770 
Q 2525 4250 2034 4250 
z
M 2034 4750 
Q 2819 4750 3233 4129 
Q 3647 3509 3647 2328 
Q 3647 1150 3233 529 
Q 2819 -91 2034 -91 
Q 1250 -91 836 529 
Q 422 1150 422 2328 
Q 422 3509 836 4129 
Q 1250 4750 2034 4750 
z
" transform="scale(0.015625)"/>
       </defs>
       <use xlink:href="#DejaVuSans-30"/>
      </g>
     </g>
    </g>
    <g id="ytick_2">
     <g id="line2d_7">
      <path d="M 105.9175 274.601071 
L 492.552729 274.601071 
" clip-path="url(#pe44b92e524)" style="fill: none; stroke: #cccccc; stroke-width: 2; stroke-linecap: round"/>
     </g>
     <g id="text_7">
      <!-- 200 -->
      <g style="fill: #262626" transform="translate(48.425 282.959352) scale(0.22 -0.22)">
       <use xlink:href="#DejaVuSans-32"/>
       <use xlink:href="#DejaVuSans-30" x="63.623047"/>
       <use xlink:href="#DejaVuSans-30" x="127.246094"/>
      </g>
     </g>
    </g>
    <g id="ytick_3">
     <g id="line2d_8">
      <path d="M 105.9175 225.982142 
L 492.552729 225.982142 
" clip-path="url(#pe44b92e524)" style="fill: none; stroke: #cccccc; stroke-width: 2; stroke-linecap: round"/>
     </g>
     <g id="text_8">
      <!-- 400 -->
      <g style="fill: #262626" transform="translate(48.425 234.340423) scale(0.22 -0.22)">
       <defs>
        <path id="DejaVuSans-34" d="M 2419 4116 
L 825 1625 
L 2419 1625 
L 2419 4116 
z
M 2253 4666 
L 3047 4666 
L 3047 1625 
L 3713 1625 
L 3713 1100 
L 3047 1100 
L 3047 0 
L 2419 0 
L 2419 1100 
L 313 1100 
L 313 1709 
L 2253 4666 
z
" transform="scale(0.015625)"/>
       </defs>
       <use xlink:href="#DejaVuSans-34"/>
       <use xlink:href="#DejaVuSans-30" x="63.623047"/>
       <use xlink:href="#DejaVuSans-30" x="127.246094"/>
      </g>
     </g>
    </g>
    <g id="ytick_4">
     <g id="line2d_9">
      <path d="M 105.9175 177.363213 
L 492.552729 177.363213 
" clip-path="url(#pe44b92e524)" style="fill: none; stroke: #cccccc; stroke-width: 2; stroke-linecap: round"/>
     </g>
     <g id="text_9">
      <!-- 600 -->
      <g style="fill: #262626" transform="translate(48.425 185.721494) scale(0.22 -0.22)">
       <use xlink:href="#DejaVuSans-36"/>
       <use xlink:href="#DejaVuSans-30" x="63.623047"/>
       <use xlink:href="#DejaVuSans-30" x="127.246094"/>
      </g>
     </g>
    </g>
    <g id="ytick_5">
     <g id="line2d_10">
      <path d="M 105.9175 128.744284 
L 492.552729 128.744284 
" clip-path="url(#pe44b92e524)" style="fill: none; stroke: #cccccc; stroke-width: 2; stroke-linecap: round"/>
     </g>
     <g id="text_10">
      <!-- 800 -->
      <g style="fill: #262626" transform="translate(48.425 137.102565) scale(0.22 -0.22)">
       <use xlink:href="#DejaVuSans-38"/>
       <use xlink:href="#DejaVuSans-30" x="63.623047"/>
       <use xlink:href="#DejaVuSans-30" x="127.246094"/>
      </g>
     </g>
    </g>
    <g id="ytick_6">
     <g id="line2d_11">
      <path d="M 105.9175 80.125355 
L 492.552729 80.125355 
" clip-path="url(#pe44b92e524)" style="fill: none; stroke: #cccccc; stroke-width: 2; stroke-linecap: round"/>
     </g>
     <g id="text_11">
      <!-- 1000 -->
      <g style="fill: #262626" transform="translate(34.4275 88.483636) scale(0.22 -0.22)">
       <use xlink:href="#DejaVuSans-31"/>
       <use xlink:href="#DejaVuSans-30" x="63.623047"/>
       <use xlink:href="#DejaVuSans-30" x="127.246094"/>
       <use xlink:href="#DejaVuSans-30" x="190.869141"/>
      </g>
     </g>
    </g>
    <g id="ytick_7">
     <g id="line2d_12">
      <path d="M 105.9175 31.506426 
L 492.552729 31.506426 
" clip-path="url(#pe44b92e524)" style="fill: none; stroke: #cccccc; stroke-width: 2; stroke-linecap: round"/>
     </g>
     <g id="text_12">
      <!-- 1200 -->
      <g style="fill: #262626" transform="translate(34.4275 39.864707) scale(0.22 -0.22)">
       <use xlink:href="#DejaVuSans-31"/>
       <use xlink:href="#DejaVuSans-32" x="63.623047"/>
       <use xlink:href="#DejaVuSans-30" x="127.246094"/>
       <use xlink:href="#DejaVuSans-30" x="190.869141"/>
      </g>
     </g>
    </g>
    <g id="text_13">
     <!-- Avg. time (ns) -->
     <g style="fill: #262626" transform="translate(25.43625 249.20625) rotate(-90) scale(0.24 -0.24)">
      <defs>
       <path id="DejaVuSans-41" d="M 2188 4044 
L 1331 1722 
L 3047 1722 
L 2188 4044 
z
M 1831 4666 
L 2547 4666 
L 4325 0 
L 3669 0 
L 3244 1197 
L 1141 1197 
L 716 0 
L 50 0 
L 1831 4666 
z
" transform="scale(0.015625)"/>
       <path id="DejaVuSans-76" d="M 191 3500 
L 800 3500 
L 1894 563 
L 2988 3500 
L 3597 3500 
L 2284 0 
L 1503 0 
L 191 3500 
z
" transform="scale(0.015625)"/>
       <path id="DejaVuSans-67" d="M 2906 1791 
Q 2906 2416 2648 2759 
Q 2391 3103 1925 3103 
Q 1463 3103 1205 2759 
Q 947 2416 947 1791 
Q 947 1169 1205 825 
Q 1463 481 1925 481 
Q 2391 481 2648 825 
Q 2906 1169 2906 1791 
z
M 3481 434 
Q 3481 -459 3084 -895 
Q 2688 -1331 1869 -1331 
Q 1566 -1331 1297 -1286 
Q 1028 -1241 775 -1147 
L 775 -588 
Q 1028 -725 1275 -790 
Q 1522 -856 1778 -856 
Q 2344 -856 2625 -561 
Q 2906 -266 2906 331 
L 2906 616 
Q 2728 306 2450 153 
Q 2172 0 1784 0 
Q 1141 0 747 490 
Q 353 981 353 1791 
Q 353 2603 747 3093 
Q 1141 3584 1784 3584 
Q 2172 3584 2450 3431 
Q 2728 3278 2906 2969 
L 2906 3500 
L 3481 3500 
L 3481 434 
z
" transform="scale(0.015625)"/>
       <path id="DejaVuSans-2e" d="M 684 794 
L 1344 794 
L 1344 0 
L 684 0 
L 684 794 
z
" transform="scale(0.015625)"/>
       <path id="DejaVuSans-20" transform="scale(0.015625)"/>
       <path id="DejaVuSans-74" d="M 1172 4494 
L 1172 3500 
L 2356 3500 
L 2356 3053 
L 1172 3053 
L 1172 1153 
Q 1172 725 1289 603 
Q 1406 481 1766 481 
L 2356 481 
L 2356 0 
L 1766 0 
Q 1100 0 847 248 
Q 594 497 594 1153 
L 594 3053 
L 172 3053 
L 172 3500 
L 594 3500 
L 594 4494 
L 1172 4494 
z
" transform="scale(0.015625)"/>
       <path id="DejaVuSans-69" d="M 603 3500 
L 1178 3500 
L 1178 0 
L 603 0 
L 603 3500 
z
M 603 4863 
L 1178 4863 
L 1178 4134 
L 603 4134 
L 603 4863 
z
" transform="scale(0.015625)"/>
       <path id="DejaVuSans-6d" d="M 3328 2828 
Q 3544 3216 3844 3400 
Q 4144 3584 4550 3584 
Q 5097 3584 5394 3201 
Q 5691 2819 5691 2113 
L 5691 0 
L 5113 0 
L 5113 2094 
Q 5113 2597 4934 2840 
Q 4756 3084 4391 3084 
Q 3944 3084 3684 2787 
Q 3425 2491 3425 1978 
L 3425 0 
L 2847 0 
L 2847 2094 
Q 2847 2600 2669 2842 
Q 2491 3084 2119 3084 
Q 1678 3084 1418 2786 
Q 1159 2488 1159 1978 
L 1159 0 
L 581 0 
L 581 3500 
L 1159 3500 
L 1159 2956 
Q 1356 3278 1631 3431 
Q 1906 3584 2284 3584 
Q 2666 3584 2933 3390 
Q 3200 3197 3328 2828 
z
" transform="scale(0.015625)"/>
       <path id="DejaVuSans-28" d="M 1984 4856 
Q 1566 4138 1362 3434 
Q 1159 2731 1159 2009 
Q 1159 1288 1364 580 
Q 1569 -128 1984 -844 
L 1484 -844 
Q 1016 -109 783 600 
Q 550 1309 550 2009 
Q 550 2706 781 3412 
Q 1013 4119 1484 4856 
L 1984 4856 
z
" transform="scale(0.015625)"/>
       <path id="DejaVuSans-6e" d="M 3513 2113 
L 3513 0 
L 2938 0 
L 2938 2094 
Q 2938 2591 2744 2837 
Q 2550 3084 2163 3084 
Q 1697 3084 1428 2787 
Q 1159 2491 1159 1978 
L 1159 0 
L 581 0 
L 581 3500 
L 1159 3500 
L 1159 2956 
Q 1366 3272 1645 3428 
Q 1925 3584 2291 3584 
Q 2894 3584 3203 3211 
Q 3513 2838 3513 2113 
z
" transform="scale(0.015625)"/>
       <path id="DejaVuSans-29" d="M 513 4856 
L 1013 4856 
Q 1481 4119 1714 3412 
Q 1947 2706 1947 2009 
Q 1947 1309 1714 600 
Q 1481 -109 1013 -844 
L 513 -844 
Q 928 -128 1133 580 
Q 1338 1288 1338 2009 
Q 1338 2731 1133 3434 
Q 928 4138 513 4856 
z
" transform="scale(0.015625)"/>
      </defs>
      <use xlink:href="#DejaVuSans-41"/>
      <use xlink:href="#DejaVuSans-76" x="62.533203"/>
      <use xlink:href="#DejaVuSans-67" x="121.712891"/>
      <use xlink:href="#DejaVuSans-2e" x="185.189453"/>
      <use xlink:href="#DejaVuSans-20" x="216.976562"/>
      <use xlink:href="#DejaVuSans-74" x="248.763672"/>
      <use xlink:href="#DejaVuSans-69" x="287.972656"/>
      <use xlink:href="#DejaVuSans-6d" x="315.755859"/>
      <use xlink:href="#DejaVuSans-65" x="413.167969"/>
      <use xlink:href="#DejaVuSans-20" x="474.691406"/>
      <use xlink:href="#DejaVuSans-28" x="506.478516"/>
      <use xlink:href="#DejaVuSans-6e" x="545.492188"/>
      <use xlink:href="#DejaVuSans-73" x="608.871094"/>
      <use xlink:href="#DejaVuSans-29" x="660.970703"/>
     </g>
    </g>
   </g>
   <g id="PolyCollection_1">
    <defs>
     <path id="m49ef4d4b18" d="M 123.491829 -91.396231 
L 123.491829 -91.21391 
L 137.551291 -91.21391 
L 151.610754 -91.396231 
L 165.670217 -91.396231 
L 179.72968 -91.396231 
L 193.789143 -91.639325 
L 207.848606 -91.639325 
L 221.908069 -91.88242 
L 235.967532 -92.125514 
L 250.026994 -92.368609 
L 264.086457 -92.672477 
L 278.14592 -92.915572 
L 292.205383 -93.097893 
L 306.264846 -93.401761 
L 320.324309 -93.948724 
L 334.383772 -94.313366 
L 348.443234 -94.738782 
L 362.502697 -95.285745 
L 376.56216 -95.771934 
L 390.621623 -96.075802 
L 404.681086 -96.86586 
L 418.740549 -97.352049 
L 432.800012 -98.081333 
L 446.859475 -98.202881 
L 460.918937 -98.992938 
L 474.9784 -99.35758 
L 474.9784 -100.755374 
L 474.9784 -100.755374 
L 460.918937 -99.35758 
L 446.859475 -98.628296 
L 432.800012 -98.749844 
L 418.740549 -97.899012 
L 404.681086 -97.352049 
L 390.621623 -96.440444 
L 376.56216 -95.954255 
L 362.502697 -95.285745 
L 348.443234 -95.650387 
L 334.383772 -94.495687 
L 320.324309 -94.313366 
L 306.264846 -93.948724 
L 292.205383 -93.340988 
L 278.14592 -93.097893 
L 264.086457 -92.854798 
L 250.026994 -92.611704 
L 235.967532 -92.490156 
L 221.908069 -92.125514 
L 207.848606 -91.88242 
L 193.789143 -91.639325 
L 179.72968 -91.578552 
L 165.670217 -91.396231 
L 151.610754 -91.396231 
L 137.551291 -91.396231 
L 123.491829 -91.396231 
z
" style="stroke: #0173b2; stroke-opacity: 0.2; stroke-width: 2"/>
    </defs>
    <g clip-path="url(#pe44b92e524)">
     <use xlink:href="#m49ef4d4b18" x="0" y="394.439375" style="fill: #0173b2; fill-opacity: 0.2; stroke: #0173b2; stroke-opacity: 0.2; stroke-width: 2"/>
    </g>
   </g>
   <g id="PolyCollection_2">
    <defs>
     <path id="m9c4b77ab7d" d="M 123.491829 -93.584082 
L 123.491829 -93.584082 
L 137.551291 -93.340988 
L 151.610754 -93.340988 
L 165.670217 -94.070272 
L 179.72968 -94.131045 
L 193.789143 -94.070272 
L 207.848606 -93.887951 
L 221.908069 -93.887951 
L 235.967532 -93.827177 
L 250.026994 -93.827177 
L 264.086457 -93.827177 
L 278.14592 -93.827177 
L 292.205383 -93.827177 
L 306.264846 -93.827177 
L 320.324309 -93.827177 
L 334.383772 -93.827177 
L 348.443234 -93.827177 
L 362.502697 -93.827177 
L 376.56216 -93.827177 
L 390.621623 -94.070272 
L 404.681086 -94.070272 
L 418.740549 -94.070272 
L 432.800012 -94.070272 
L 446.859475 -94.070272 
L 460.918937 -94.131045 
L 474.9784 -94.131045 
L 474.9784 -94.313366 
L 474.9784 -94.313366 
L 460.918937 -94.313366 
L 446.859475 -94.313366 
L 432.800012 -94.252593 
L 418.740549 -94.070272 
L 404.681086 -94.070272 
L 390.621623 -94.070272 
L 376.56216 -93.827177 
L 362.502697 -94.009498 
L 348.443234 -93.827177 
L 334.383772 -94.009498 
L 320.324309 -94.009498 
L 306.264846 -94.009498 
L 292.205383 -94.009498 
L 278.14592 -93.827177 
L 264.086457 -93.827177 
L 250.026994 -93.827177 
L 235.967532 -94.009498 
L 221.908069 -94.070272 
L 207.848606 -94.070272 
L 193.789143 -94.252593 
L 179.72968 -94.313366 
L 165.670217 -94.070272 
L 151.610754 -93.584082 
L 137.551291 -93.523309 
L 123.491829 -93.584082 
z
" style="stroke: #0173b2; stroke-opacity: 0.2; stroke-width: 2"/>
    </defs>
    <g clip-path="url(#pe44b92e524)">
     <use xlink:href="#m9c4b77ab7d" x="0" y="394.439375" style="fill: #0173b2; fill-opacity: 0.2; stroke: #0173b2; stroke-opacity: 0.2; stroke-width: 2"/>
    </g>
   </g>
   <g id="PolyCollection_3">
    <defs>
     <path id="m85aff63ac6" d="M 123.491829 -94.252593 
L 123.491829 -93.887951 
L 137.551291 -96.501218 
L 151.610754 -98.932165 
L 165.670217 -107.440477 
L 179.72968 -117.164263 
L 193.789143 -125.976444 
L 207.848606 -135.396361 
L 221.908069 -143.479258 
L 235.967532 -153.689233 
L 250.026994 -162.622962 
L 264.086457 -171.860558 
L 278.14592 -180.611965 
L 292.205383 -189.910335 
L 306.264846 -199.816442 
L 320.324309 -209.054039 
L 334.383772 -216.589973 
L 348.443234 -227.529232 
L 362.502697 -236.523734 
L 376.56216 -245.76133 
L 390.621623 -254.269643 
L 404.681086 -263.507239 
L 418.740549 -272.744836 
L 432.800012 -282.225527 
L 446.859475 -290.308424 
L 460.918937 -300.943815 
L 474.9784 -310.181411 
L 474.9784 -310.546053 
L 474.9784 -310.546053 
L 460.918937 -301.126136 
L 446.859475 -290.673066 
L 432.800012 -282.590169 
L 418.740549 -272.98793 
L 404.681086 -263.871881 
L 390.621623 -254.512737 
L 376.56216 -246.004425 
L 362.502697 -236.523734 
L 348.443234 -227.711553 
L 334.383772 -216.833067 
L 320.324309 -209.23636 
L 306.264846 -200.059537 
L 292.205383 -190.214204 
L 278.14592 -180.611965 
L 264.086457 -171.860558 
L 250.026994 -162.866056 
L 235.967532 -153.871554 
L 221.908069 -143.661579 
L 207.848606 -135.943324 
L 193.789143 -126.158765 
L 179.72968 -117.528905 
L 165.670217 -107.805119 
L 151.610754 -98.932165 
L 137.551291 -96.744313 
L 123.491829 -94.252593 
z
" style="stroke: #de8f05; stroke-opacity: 0.2; stroke-width: 2"/>
    </defs>
    <g clip-path="url(#pe44b92e524)">
     <use xlink:href="#m85aff63ac6" x="0" y="394.439375" style="fill: #de8f05; fill-opacity: 0.2; stroke: #de8f05; stroke-opacity: 0.2; stroke-width: 2"/>
    </g>
   </g>
   <g id="PolyCollection_4">
    <defs>
     <path id="m899dde31ed" d="M 123.491829 -93.280214 
L 123.491829 -93.097893 
L 137.551291 -94.556461 
L 151.610754 -102.092395 
L 165.670217 -112.849333 
L 179.72968 -123.363176 
L 193.789143 -134.180888 
L 207.848606 -146.092526 
L 221.908069 -156.12018 
L 235.967532 -167.971044 
L 250.026994 -178.788755 
L 264.086457 -191.247356 
L 278.14592 -200.181084 
L 292.205383 -212.639685 
L 306.264846 -225.219833 
L 320.324309 -238.346944 
L 334.383772 -248.435371 
L 348.443234 -262.170219 
L 362.502697 -272.258647 
L 376.56216 -285.871947 
L 390.621623 -297.722811 
L 404.681086 -308.479749 
L 418.740549 -321.485312 
L 432.800012 -334.126234 
L 446.859475 -345.612456 
L 460.918937 -358.921888 
L 474.9784 -372.778282 
L 474.9784 -373.142924 
L 474.9784 -373.142924 
L 460.918937 -360.562776 
L 446.859475 -347.131797 
L 432.800012 -335.22016 
L 418.740549 -322.700785 
L 404.681086 -311.883074 
L 390.621623 -298.269774 
L 376.56216 -286.783552 
L 362.502697 -274.446498 
L 348.443234 -262.656408 
L 334.383772 -249.346976 
L 320.324309 -238.833133 
L 306.264846 -226.678401 
L 292.205383 -214.766763 
L 278.14592 -201.153463 
L 264.086457 -191.97664 
L 250.026994 -179.274945 
L 235.967532 -168.821875 
L 221.908069 -157.882616 
L 207.848606 -146.82181 
L 193.789143 -134.788625 
L 179.72968 -124.215527 
L 165.670217 -113.578617 
L 151.610754 -103.004 
L 137.551291 -94.738782 
L 123.491829 -93.280214 
z
" style="stroke: #de8f05; stroke-opacity: 0.2; stroke-width: 2"/>
    </defs>
    <g clip-path="url(#pe44b92e524)">
     <use xlink:href="#m899dde31ed" x="0" y="394.439375" style="fill: #de8f05; fill-opacity: 0.2; stroke: #de8f05; stroke-opacity: 0.2; stroke-width: 2"/>
    </g>
   </g>
   <g id="line2d_13">
    <path d="M 123.491829 303.103918 
L 137.551291 303.103918 
L 151.610754 303.043144 
L 165.670217 303.043144 
L 179.72968 302.982371 
L 193.789143 302.80005 
L 207.848606 302.678502 
L 221.908069 302.435408 
L 235.967532 302.13154 
L 250.026994 301.949219 
L 264.086457 301.64535 
L 278.14592 301.402256 
L 292.205383 301.219935 
L 306.264846 300.794519 
L 320.324309 300.247556 
L 334.383772 300.065235 
L 348.443234 299.275177 
L 362.502697 299.15363 
L 376.56216 298.606667 
L 390.621623 298.181252 
L 404.681086 297.33042 
L 418.740549 296.783457 
L 432.800012 296.054173 
L 446.859475 296.054173 
L 460.918937 295.264116 
L 474.9784 294.474058 
" clip-path="url(#pe44b92e524)" style="fill: none; stroke: #0173b2; stroke-width: 3; stroke-linecap: round"/>
   </g>
   <g id="line2d_14">
    <path d="M 123.491829 300.855293 
L 137.551291 301.037614 
L 151.610754 300.97684 
L 165.670217 300.369103 
L 179.72968 300.186782 
L 193.789143 300.30833 
L 207.848606 300.429877 
L 221.908069 300.429877 
L 235.967532 300.551424 
L 250.026994 300.612198 
L 264.086457 300.612198 
L 278.14592 300.612198 
L 292.205383 300.551424 
L 306.264846 300.551424 
L 320.324309 300.551424 
L 334.383772 300.551424 
L 348.443234 300.612198 
L 362.502697 300.551424 
L 376.56216 300.612198 
L 390.621623 300.369103 
L 404.681086 300.369103 
L 418.740549 300.369103 
L 432.800012 300.30833 
L 446.859475 300.247556 
L 460.918937 300.186782 
L 474.9784 300.186782 
" clip-path="url(#pe44b92e524)" style="fill: none; stroke-dasharray: 12,4.5; stroke-dashoffset: 0; stroke: #0173b2; stroke-width: 3"/>
   </g>
   <g id="line2d_15">
    <path d="M 123.491829 300.369103 
L 137.551291 297.81661 
L 151.610754 295.50721 
L 165.670217 286.816577 
L 179.72968 277.153565 
L 193.789143 268.341384 
L 207.848606 258.860693 
L 221.908069 250.838569 
L 235.967532 240.628594 
L 250.026994 231.694866 
L 264.086457 222.578817 
L 278.14592 213.82741 
L 292.205383 204.346719 
L 306.264846 194.501385 
L 320.324309 185.324563 
L 334.383772 177.727855 
L 348.443234 166.84937 
L 362.502697 157.915641 
L 376.56216 148.556497 
L 390.621623 140.048185 
L 404.681086 130.749815 
L 418.740549 121.572992 
L 432.800012 112.031527 
L 446.859475 103.94863 
L 460.918937 93.434787 
L 474.9784 84.075643 
" clip-path="url(#pe44b92e524)" style="fill: none; stroke: #de8f05; stroke-width: 3; stroke-linecap: round"/>
   </g>
   <g id="line2d_16">
    <path d="M 123.491829 301.280708 
L 137.551291 299.82214 
L 151.610754 291.982338 
L 165.670217 281.286174 
L 179.72968 270.711557 
L 193.789143 259.954619 
L 207.848606 247.86066 
L 221.908069 237.286043 
L 235.967532 226.042916 
L 250.026994 215.407525 
L 264.086457 202.766603 
L 278.14592 193.772101 
L 292.205383 180.705764 
L 306.264846 168.368711 
L 320.324309 155.849337 
L 334.383772 145.578588 
L 348.443234 132.026062 
L 362.502697 120.843708 
L 376.56216 108.020465 
L 390.621623 96.412696 
L 404.681086 84.014869 
L 418.740549 72.285553 
L 432.800012 59.766178 
L 446.859475 47.854541 
L 460.918937 34.605883 
L 474.9784 21.478772 
" clip-path="url(#pe44b92e524)" style="fill: none; stroke-dasharray: 12,4.5; stroke-dashoffset: 0; stroke: #de8f05; stroke-width: 3"/>
   </g>
   <g id="line2d_17"/>
   <g id="line2d_18"/>
   <g id="line2d_19"/>
   <g id="line2d_20"/>
   <g id="line2d_21"/>
   <g id="line2d_22"/>
   <g id="patch_3">
    <path d="M 105.9175 323.22 
L 105.9175 7.2 
" style="fill: none; stroke: #cccccc; stroke-width: 2.5; stroke-linejoin: miter; stroke-linecap: square"/>
   </g>
   <g id="patch_4">
    <path d="M 105.9175 323.22 
L 492.552729 323.22 
" style="fill: none; stroke: #cccccc; stroke-width: 2.5; stroke-linejoin: miter; stroke-linecap: square"/>
   </g>
  </g>
  <g id="legend_1">
   <g id="line2d_23">
    <path d="M 494.098216 114.860625 
L 516.098216 114.860625 
L 538.098216 114.860625 
" style="fill: none"/>
   </g>
   <g id="text_14">
    <!-- Allocator -->
    <g style="fill: #262626" transform="translate(555.698216 122.560625) scale(0.22 -0.22)">
     <defs>
      <path id="DejaVuSans-6c" d="M 603 4863 
L 1178 4863 
L 1178 0 
L 603 0 
L 603 4863 
z
" transform="scale(0.015625)"/>
      <path id="DejaVuSans-63" d="M 3122 3366 
L 3122 2828 
Q 2878 2963 2633 3030 
Q 2388 3097 2138 3097 
Q 1578 3097 1268 2742 
Q 959 2388 959 1747 
Q 959 1106 1268 751 
Q 1578 397 2138 397 
Q 2388 397 2633 464 
Q 2878 531 3122 666 
L 3122 134 
Q 2881 22 2623 -34 
Q 2366 -91 2075 -91 
Q 1284 -91 818 406 
Q 353 903 353 1747 
Q 353 2603 823 3093 
Q 1294 3584 2113 3584 
Q 2378 3584 2631 3529 
Q 2884 3475 3122 3366 
z
" transform="scale(0.015625)"/>
      <path id="DejaVuSans-61" d="M 2194 1759 
Q 1497 1759 1228 1600 
Q 959 1441 959 1056 
Q 959 750 1161 570 
Q 1363 391 1709 391 
Q 2188 391 2477 730 
Q 2766 1069 2766 1631 
L 2766 1759 
L 2194 1759 
z
M 3341 1997 
L 3341 0 
L 2766 0 
L 2766 531 
Q 2569 213 2275 61 
Q 1981 -91 1556 -91 
Q 1019 -91 701 211 
Q 384 513 384 1019 
Q 384 1609 779 1909 
Q 1175 2209 1959 2209 
L 2766 2209 
L 2766 2266 
Q 2766 2663 2505 2880 
Q 2244 3097 1772 3097 
Q 1472 3097 1187 3025 
Q 903 2953 641 2809 
L 641 3341 
Q 956 3463 1253 3523 
Q 1550 3584 1831 3584 
Q 2591 3584 2966 3190 
Q 3341 2797 3341 1997 
z
" transform="scale(0.015625)"/>
     </defs>
     <use xlink:href="#DejaVuSans-41"/>
     <use xlink:href="#DejaVuSans-6c" x="68.408203"/>
     <use xlink:href="#DejaVuSans-6c" x="96.191406"/>
     <use xlink:href="#DejaVuSans-6f" x="123.974609"/>
     <use xlink:href="#DejaVuSans-63" x="185.15625"/>
     <use xlink:href="#DejaVuSans-61" x="240.136719"/>
     <use xlink:href="#DejaVuSans-74" x="301.416016"/>
     <use xlink:href="#DejaVuSans-6f" x="340.625"/>
     <use xlink:href="#DejaVuSans-72" x="401.806641"/>
    </g>
   </g>
   <g id="line2d_24">
    <path d="M 494.098216 147.1525 
L 516.098216 147.1525 
L 538.098216 147.1525 
" style="fill: none; stroke: #0173b2; stroke-width: 3; stroke-linecap: round"/>
   </g>
   <g id="text_15">
    <!-- LLFree -->
    <g style="fill: #262626" transform="translate(555.698216 154.8525) scale(0.22 -0.22)">
     <defs>
      <path id="DejaVuSans-4c" d="M 628 4666 
L 1259 4666 
L 1259 531 
L 3531 531 
L 3531 0 
L 628 0 
L 628 4666 
z
" transform="scale(0.015625)"/>
      <path id="DejaVuSans-46" d="M 628 4666 
L 3309 4666 
L 3309 4134 
L 1259 4134 
L 1259 2759 
L 3109 2759 
L 3109 2228 
L 1259 2228 
L 1259 0 
L 628 0 
L 628 4666 
z
" transform="scale(0.015625)"/>
     </defs>
     <use xlink:href="#DejaVuSans-4c"/>
     <use xlink:href="#DejaVuSans-4c" x="55.712891"/>
     <use xlink:href="#DejaVuSans-46" x="111.425781"/>
     <use xlink:href="#DejaVuSans-72" x="161.695312"/>
     <use xlink:href="#DejaVuSans-65" x="200.558594"/>
     <use xlink:href="#DejaVuSans-65" x="262.082031"/>
    </g>
   </g>
   <g id="line2d_25">
    <path d="M 494.098216 179.444375 
L 516.098216 179.444375 
L 538.098216 179.444375 
" style="fill: none; stroke: #de8f05; stroke-width: 3; stroke-linecap: round"/>
   </g>
   <g id="text_16">
    <!-- Linux -->
    <g style="fill: #262626" transform="translate(555.698216 187.144375) scale(0.22 -0.22)">
     <defs>
      <path id="DejaVuSans-75" d="M 544 1381 
L 544 3500 
L 1119 3500 
L 1119 1403 
Q 1119 906 1312 657 
Q 1506 409 1894 409 
Q 2359 409 2629 706 
Q 2900 1003 2900 1516 
L 2900 3500 
L 3475 3500 
L 3475 0 
L 2900 0 
L 2900 538 
Q 2691 219 2414 64 
Q 2138 -91 1772 -91 
Q 1169 -91 856 284 
Q 544 659 544 1381 
z
M 1991 3584 
L 1991 3584 
z
" transform="scale(0.015625)"/>
      <path id="DejaVuSans-78" d="M 3513 3500 
L 2247 1797 
L 3578 0 
L 2900 0 
L 1881 1375 
L 863 0 
L 184 0 
L 1544 1831 
L 300 3500 
L 978 3500 
L 1906 2253 
L 2834 3500 
L 3513 3500 
z
" transform="scale(0.015625)"/>
     </defs>
     <use xlink:href="#DejaVuSans-4c"/>
     <use xlink:href="#DejaVuSans-69" x="55.712891"/>
     <use xlink:href="#DejaVuSans-6e" x="83.496094"/>
     <use xlink:href="#DejaVuSans-75" x="146.875"/>
     <use xlink:href="#DejaVuSans-78" x="210.253906"/>
    </g>
   </g>
   <g id="line2d_26">
    <path d="M 494.098216 211.73625 
L 516.098216 211.73625 
L 538.098216 211.73625 
" style="fill: none"/>
   </g>
   <g id="text_17">
    <!-- Operation -->
    <g style="fill: #262626" transform="translate(555.698216 219.43625) scale(0.22 -0.22)">
     <defs>
      <path id="DejaVuSans-4f" d="M 2522 4238 
Q 1834 4238 1429 3725 
Q 1025 3213 1025 2328 
Q 1025 1447 1429 934 
Q 1834 422 2522 422 
Q 3209 422 3611 934 
Q 4013 1447 4013 2328 
Q 4013 3213 3611 3725 
Q 3209 4238 2522 4238 
z
M 2522 4750 
Q 3503 4750 4090 4092 
Q 4678 3434 4678 2328 
Q 4678 1225 4090 567 
Q 3503 -91 2522 -91 
Q 1538 -91 948 565 
Q 359 1222 359 2328 
Q 359 3434 948 4092 
Q 1538 4750 2522 4750 
z
" transform="scale(0.015625)"/>
      <path id="DejaVuSans-70" d="M 1159 525 
L 1159 -1331 
L 581 -1331 
L 581 3500 
L 1159 3500 
L 1159 2969 
Q 1341 3281 1617 3432 
Q 1894 3584 2278 3584 
Q 2916 3584 3314 3078 
Q 3713 2572 3713 1747 
Q 3713 922 3314 415 
Q 2916 -91 2278 -91 
Q 1894 -91 1617 61 
Q 1341 213 1159 525 
z
M 3116 1747 
Q 3116 2381 2855 2742 
Q 2594 3103 2138 3103 
Q 1681 3103 1420 2742 
Q 1159 2381 1159 1747 
Q 1159 1113 1420 752 
Q 1681 391 2138 391 
Q 2594 391 2855 752 
Q 3116 1113 3116 1747 
z
" transform="scale(0.015625)"/>
     </defs>
     <use xlink:href="#DejaVuSans-4f"/>
     <use xlink:href="#DejaVuSans-70" x="78.710938"/>
     <use xlink:href="#DejaVuSans-65" x="142.1875"/>
     <use xlink:href="#DejaVuSans-72" x="203.710938"/>
     <use xlink:href="#DejaVuSans-61" x="244.824219"/>
     <use xlink:href="#DejaVuSans-74" x="306.103516"/>
     <use xlink:href="#DejaVuSans-69" x="345.3125"/>
     <use xlink:href="#DejaVuSans-6f" x="373.095703"/>
     <use xlink:href="#DejaVuSans-6e" x="434.277344"/>
    </g>
   </g>
   <g id="line2d_27">
    <path d="M 494.098216 244.028125 
L 516.098216 244.028125 
L 538.098216 244.028125 
" style="fill: none; stroke: #333333; stroke-width: 3; stroke-linecap: round"/>
   </g>
   <g id="text_18">
    <!-- alloc -->
    <g style="fill: #262626" transform="translate(555.698216 251.728125) scale(0.22 -0.22)">
     <use xlink:href="#DejaVuSans-61"/>
     <use xlink:href="#DejaVuSans-6c" x="61.279297"/>
     <use xlink:href="#DejaVuSans-6c" x="89.0625"/>
     <use xlink:href="#DejaVuSans-6f" x="116.845703"/>
     <use xlink:href="#DejaVuSans-63" x="178.027344"/>
    </g>
   </g>
   <g id="line2d_28">
    <path d="M 494.098216 276.32 
L 516.098216 276.32 
L 538.098216 276.32 
" style="fill: none; stroke-dasharray: 12,4.5; stroke-dashoffset: 0; stroke: #333333; stroke-width: 3"/>
   </g>
   <g id="text_19">
    <!-- free -->
    <g style="fill: #262626" transform="translate(555.698216 284.02) scale(0.22 -0.22)">
     <defs>
      <path id="DejaVuSans-66" d="M 2375 4863 
L 2375 4384 
L 1825 4384 
Q 1516 4384 1395 4259 
Q 1275 4134 1275 3809 
L 1275 3500 
L 2222 3500 
L 2222 3053 
L 1275 3053 
L 1275 0 
L 697 0 
L 697 3053 
L 147 3053 
L 147 3500 
L 697 3500 
L 697 3744 
Q 697 4328 969 4595 
Q 1241 4863 1831 4863 
L 2375 4863 
z
" transform="scale(0.015625)"/>
     </defs>
     <use xlink:href="#DejaVuSans-66"/>
     <use xlink:href="#DejaVuSans-72" x="35.205078"/>
     <use xlink:href="#DejaVuSans-65" x="74.068359"/>
     <use xlink:href="#DejaVuSans-65" x="135.591797"/>
    </g>
   </g>
  </g>
 </g>
 <defs>
  <clipPath id="pe44b92e524">
   <rect x="105.9175" y="7.2" width="386.635229" height="316.02"/>
  </clipPath>
 </defs>
</svg>
