<?xml version="1.0" encoding="utf-8" standalone="no"?>
<!DOCTYPE svg PUBLIC "-//W3C//DTD SVG 1.1//EN"
  "http://www.w3.org/Graphics/SVG/1.1/DTD/svg11.dtd">
<svg xmlns:xlink="http://www.w3.org/1999/xlink" width="680.225279pt" height="394.439375pt" viewBox="0 0 680.225279 394.439375" xmlns="http://www.w3.org/2000/svg" version="1.1">
 <metadata>
  <rdf:RDF xmlns:dc="http://purl.org/dc/elements/1.1/" xmlns:cc="http://creativecommons.org/ns#" xmlns:rdf="http://www.w3.org/1999/02/22-rdf-syntax-ns#">
   <cc:Work>
    <dc:type rdf:resource="http://purl.org/dc/dcmitype/StillImage"/>
    <dc:date>2023-12-14T13:36:54.649873</dc:date>
    <dc:format>image/svg+xml</dc:format>
    <dc:creator>
     <cc:Agent>
      <dc:title>Matplotlib v3.8.2, https://matplotlib.org/</dc:title>
     </cc:Agent>
    </dc:creator>
   </cc:Work>
  </rdf:RDF>
 </metadata>
 <defs>
  <style type="text/css">*{stroke-linejoin: round; stroke-linecap: butt}</style>
 </defs>
 <g id="figure_1">
  <g id="patch_1">
   <path d="M 0 394.439375 
L 680.225279 394.439375 
L 680.225279 0 
L 0 0 
z
" style="fill: #ffffff"/>
  </g>
  <g id="axes_1">
   <g id="patch_2">
    <path d="M 119.915 323.22 
L 487.791979 323.22 
L 487.791979 7.2 
L 119.915 7.2 
z
" style="fill: #ffffff"/>
   </g>
   <g id="matplotlib.axis_1">
    <g id="xtick_1">
     <g id="line2d_1">
      <path d="M 136.636681 323.22 
L 136.636681 7.2 
" clip-path="url(#p0f7f93bba4)" style="fill: none; stroke: #cccccc; stroke-width: 2; stroke-linecap: round"/>
     </g>
     <g id="text_1">
      <!-- 1 -->
      <g style="fill: #262626" transform="translate(129.637931 355.436562) scale(0.22 -0.22)">
       <defs>
        <path id="DejaVuSans-31" d="M 794 531 
L 1825 531 
L 1825 4091 
L 703 3866 
L 703 4441 
L 1819 4666 
L 2450 4666 
L 2450 531 
L 3481 531 
L 3481 0 
L 794 0 
L 794 531 
z
" transform="scale(0.015625)"/>
       </defs>
       <use xlink:href="#DejaVuSans-31"/>
      </g>
     </g>
    </g>
    <g id="xtick_2">
     <g id="line2d_2">
      <path d="M 230.278094 323.22 
L 230.278094 7.2 
" clip-path="url(#p0f7f93bba4)" style="fill: none; stroke: #cccccc; stroke-width: 2; stroke-linecap: round"/>
     </g>
     <g id="text_2">
      <!-- 8 -->
      <g style="fill: #262626" transform="translate(223.279344 355.436562) scale(0.22 -0.22)">
       <defs>
        <path id="DejaVuSans-38" d="M 2034 2216 
Q 1584 2216 1326 1975 
Q 1069 1734 1069 1313 
Q 1069 891 1326 650 
Q 1584 409 2034 409 
Q 2484 409 2743 651 
Q 3003 894 3003 1313 
Q 3003 1734 2745 1975 
Q 2488 2216 2034 2216 
z
M 1403 2484 
Q 997 2584 770 2862 
Q 544 3141 544 3541 
Q 544 4100 942 4425 
Q 1341 4750 2034 4750 
Q 2731 4750 3128 4425 
Q 3525 4100 3525 3541 
Q 3525 3141 3298 2862 
Q 3072 2584 2669 2484 
Q 3125 2378 3379 2068 
Q 3634 1759 3634 1313 
Q 3634 634 3220 271 
Q 2806 -91 2034 -91 
Q 1263 -91 848 271 
Q 434 634 434 1313 
Q 434 1759 690 2068 
Q 947 2378 1403 2484 
z
M 1172 3481 
Q 1172 3119 1398 2916 
Q 1625 2713 2034 2713 
Q 2441 2713 2670 2916 
Q 2900 3119 2900 3481 
Q 2900 3844 2670 4047 
Q 2441 4250 2034 4250 
Q 1625 4250 1398 4047 
Q 1172 3844 1172 3481 
z
" transform="scale(0.015625)"/>
       </defs>
       <use xlink:href="#DejaVuSans-38"/>
      </g>
     </g>
    </g>
    <g id="xtick_3">
     <g id="line2d_3">
      <path d="M 337.296851 323.22 
L 337.296851 7.2 
" clip-path="url(#p0f7f93bba4)" style="fill: none; stroke: #cccccc; stroke-width: 2; stroke-linecap: round"/>
     </g>
     <g id="text_3">
      <!-- 16 -->
      <g style="fill: #262626" transform="translate(323.299351 355.436562) scale(0.22 -0.22)">
       <defs>
        <path id="DejaVuSans-36" d="M 2113 2584 
Q 1688 2584 1439 2293 
Q 1191 2003 1191 1497 
Q 1191 994 1439 701 
Q 1688 409 2113 409 
Q 2538 409 2786 701 
Q 3034 994 3034 1497 
Q 3034 2003 2786 2293 
Q 2538 2584 2113 2584 
z
M 3366 4563 
L 3366 3988 
Q 3128 4100 2886 4159 
Q 2644 4219 2406 4219 
Q 1781 4219 1451 3797 
Q 1122 3375 1075 2522 
Q 1259 2794 1537 2939 
Q 1816 3084 2150 3084 
Q 2853 3084 3261 2657 
Q 3669 2231 3669 1497 
Q 3669 778 3244 343 
Q 2819 -91 2113 -91 
Q 1303 -91 875 529 
Q 447 1150 447 2328 
Q 447 3434 972 4092 
Q 1497 4750 2381 4750 
Q 2619 4750 2861 4703 
Q 3103 4656 3366 4563 
z
" transform="scale(0.015625)"/>
       </defs>
       <use xlink:href="#DejaVuSans-31"/>
       <use xlink:href="#DejaVuSans-36" x="63.623047"/>
      </g>
     </g>
    </g>
    <g id="xtick_4">
     <g id="line2d_4">
      <path d="M 444.315609 323.22 
L 444.315609 7.2 
" clip-path="url(#p0f7f93bba4)" style="fill: none; stroke: #cccccc; stroke-width: 2; stroke-linecap: round"/>
     </g>
    </g>
    <g id="xtick_5">
     <g id="line2d_5">
      <path d="M 471.070298 323.22 
L 471.070298 7.2 
" clip-path="url(#p0f7f93bba4)" style="fill: none; stroke: #cccccc; stroke-width: 2; stroke-linecap: round"/>
     </g>
     <g id="text_4">
      <!-- 26 -->
      <g style="fill: #262626" transform="translate(457.072798 355.436562) scale(0.22 -0.22)">
       <defs>
        <path id="DejaVuSans-32" d="M 1228 531 
L 3431 531 
L 3431 0 
L 469 0 
L 469 531 
Q 828 903 1448 1529 
Q 2069 2156 2228 2338 
Q 2531 2678 2651 2914 
Q 2772 3150 2772 3378 
Q 2772 3750 2511 3984 
Q 2250 4219 1831 4219 
Q 1534 4219 1204 4116 
Q 875 4013 500 3803 
L 500 4441 
Q 881 4594 1212 4672 
Q 1544 4750 1819 4750 
Q 2544 4750 2975 4387 
Q 3406 4025 3406 3419 
Q 3406 3131 3298 2873 
Q 3191 2616 2906 2266 
Q 2828 2175 2409 1742 
Q 1991 1309 1228 531 
z
" transform="scale(0.015625)"/>
       </defs>
       <use xlink:href="#DejaVuSans-32"/>
       <use xlink:href="#DejaVuSans-36" x="63.623047"/>
      </g>
     </g>
    </g>
    <g id="text_5">
     <!-- Cores -->
     <g style="fill: #262626" transform="translate(269.833489 382.248125) scale(0.24 -0.24)">
      <defs>
       <path id="DejaVuSans-43" d="M 4122 4306 
L 4122 3641 
Q 3803 3938 3442 4084 
Q 3081 4231 2675 4231 
Q 1875 4231 1450 3742 
Q 1025 3253 1025 2328 
Q 1025 1406 1450 917 
Q 1875 428 2675 428 
Q 3081 428 3442 575 
Q 3803 722 4122 1019 
L 4122 359 
Q 3791 134 3420 21 
Q 3050 -91 2638 -91 
Q 1578 -91 968 557 
Q 359 1206 359 2328 
Q 359 3453 968 4101 
Q 1578 4750 2638 4750 
Q 3056 4750 3426 4639 
Q 3797 4528 4122 4306 
z
" transform="scale(0.015625)"/>
       <path id="DejaVuSans-6f" d="M 1959 3097 
Q 1497 3097 1228 2736 
Q 959 2375 959 1747 
Q 959 1119 1226 758 
Q 1494 397 1959 397 
Q 2419 397 2687 759 
Q 2956 1122 2956 1747 
Q 2956 2369 2687 2733 
Q 2419 3097 1959 3097 
z
M 1959 3584 
Q 2709 3584 3137 3096 
Q 3566 2609 3566 1747 
Q 3566 888 3137 398 
Q 2709 -91 1959 -91 
Q 1206 -91 779 398 
Q 353 888 353 1747 
Q 353 2609 779 3096 
Q 1206 3584 1959 3584 
z
" transform="scale(0.015625)"/>
       <path id="DejaVuSans-72" d="M 2631 2963 
Q 2534 3019 2420 3045 
Q 2306 3072 2169 3072 
Q 1681 3072 1420 2755 
Q 1159 2438 1159 1844 
L 1159 0 
L 581 0 
L 581 3500 
L 1159 3500 
L 1159 2956 
Q 1341 3275 1631 3429 
Q 1922 3584 2338 3584 
Q 2397 3584 2469 3576 
Q 2541 3569 2628 3553 
L 2631 2963 
z
" transform="scale(0.015625)"/>
       <path id="DejaVuSans-65" d="M 3597 1894 
L 3597 1613 
L 953 1613 
Q 991 1019 1311 708 
Q 1631 397 2203 397 
Q 2534 397 2845 478 
Q 3156 559 3463 722 
L 3463 178 
Q 3153 47 2828 -22 
Q 2503 -91 2169 -91 
Q 1331 -91 842 396 
Q 353 884 353 1716 
Q 353 2575 817 3079 
Q 1281 3584 2069 3584 
Q 2775 3584 3186 3129 
Q 3597 2675 3597 1894 
z
M 3022 2063 
Q 3016 2534 2758 2815 
Q 2500 3097 2075 3097 
Q 1594 3097 1305 2825 
Q 1016 2553 972 2059 
L 3022 2063 
z
" transform="scale(0.015625)"/>
       <path id="DejaVuSans-73" d="M 2834 3397 
L 2834 2853 
Q 2591 2978 2328 3040 
Q 2066 3103 1784 3103 
Q 1356 3103 1142 2972 
Q 928 2841 928 2578 
Q 928 2378 1081 2264 
Q 1234 2150 1697 2047 
L 1894 2003 
Q 2506 1872 2764 1633 
Q 3022 1394 3022 966 
Q 3022 478 2636 193 
Q 2250 -91 1575 -91 
Q 1294 -91 989 -36 
Q 684 19 347 128 
L 347 722 
Q 666 556 975 473 
Q 1284 391 1588 391 
Q 1994 391 2212 530 
Q 2431 669 2431 922 
Q 2431 1156 2273 1281 
Q 2116 1406 1581 1522 
L 1381 1569 
Q 847 1681 609 1914 
Q 372 2147 372 2553 
Q 372 3047 722 3315 
Q 1072 3584 1716 3584 
Q 2034 3584 2315 3537 
Q 2597 3491 2834 3397 
z
" transform="scale(0.015625)"/>
      </defs>
      <use xlink:href="#DejaVuSans-43"/>
      <use xlink:href="#DejaVuSans-6f" x="69.824219"/>
      <use xlink:href="#DejaVuSans-72" x="131.005859"/>
      <use xlink:href="#DejaVuSans-65" x="169.869141"/>
      <use xlink:href="#DejaVuSans-73" x="231.392578"/>
     </g>
    </g>
   </g>
   <g id="matplotlib.axis_2">
    <g id="ytick_1">
     <g id="line2d_6">
      <path d="M 119.915 315.197406 
L 487.791979 315.197406 
" clip-path="url(#p0f7f93bba4)" style="fill: none; stroke: #cccccc; stroke-width: 2; stroke-linecap: round"/>
     </g>
     <g id="text_6">
      <!-- 0 -->
      <g style="fill: #262626" transform="translate(90.4175 323.555687) scale(0.22 -0.22)">
       <defs>
        <path id="DejaVuSans-30" d="M 2034 4250 
Q 1547 4250 1301 3770 
Q 1056 3291 1056 2328 
Q 1056 1369 1301 889 
Q 1547 409 2034 409 
Q 2525 409 2770 889 
Q 3016 1369 3016 2328 
Q 3016 3291 2770 3770 
Q 2525 4250 2034 4250 
z
M 2034 4750 
Q 2819 4750 3233 4129 
Q 3647 3509 3647 2328 
Q 3647 1150 3233 529 
Q 2819 -91 2034 -91 
Q 1250 -91 836 529 
Q 422 1150 422 2328 
Q 422 3509 836 4129 
Q 1250 4750 2034 4750 
z
" transform="scale(0.015625)"/>
       </defs>
       <use xlink:href="#DejaVuSans-30"/>
      </g>
     </g>
    </g>
    <g id="ytick_2">
     <g id="line2d_7">
      <path d="M 119.915 234.971468 
L 487.791979 234.971468 
" clip-path="url(#p0f7f93bba4)" style="fill: none; stroke: #cccccc; stroke-width: 2; stroke-linecap: round"/>
     </g>
     <g id="text_7">
      <!-- 20000 -->
      <g style="fill: #262626" transform="translate(34.4275 243.329749) scale(0.22 -0.22)">
       <use xlink:href="#DejaVuSans-32"/>
       <use xlink:href="#DejaVuSans-30" x="63.623047"/>
       <use xlink:href="#DejaVuSans-30" x="127.246094"/>
       <use xlink:href="#DejaVuSans-30" x="190.869141"/>
       <use xlink:href="#DejaVuSans-30" x="254.492188"/>
      </g>
     </g>
    </g>
    <g id="ytick_3">
     <g id="line2d_8">
      <path d="M 119.915 154.745529 
L 487.791979 154.745529 
" clip-path="url(#p0f7f93bba4)" style="fill: none; stroke: #cccccc; stroke-width: 2; stroke-linecap: round"/>
     </g>
     <g id="text_8">
      <!-- 40000 -->
      <g style="fill: #262626" transform="translate(34.4275 163.10381) scale(0.22 -0.22)">
       <defs>
        <path id="DejaVuSans-34" d="M 2419 4116 
L 825 1625 
L 2419 1625 
L 2419 4116 
z
M 2253 4666 
L 3047 4666 
L 3047 1625 
L 3713 1625 
L 3713 1100 
L 3047 1100 
L 3047 0 
L 2419 0 
L 2419 1100 
L 313 1100 
L 313 1709 
L 2253 4666 
z
" transform="scale(0.015625)"/>
       </defs>
       <use xlink:href="#DejaVuSans-34"/>
       <use xlink:href="#DejaVuSans-30" x="63.623047"/>
       <use xlink:href="#DejaVuSans-30" x="127.246094"/>
       <use xlink:href="#DejaVuSans-30" x="190.869141"/>
       <use xlink:href="#DejaVuSans-30" x="254.492188"/>
      </g>
     </g>
    </g>
    <g id="ytick_4">
     <g id="line2d_9">
      <path d="M 119.915 74.519591 
L 487.791979 74.519591 
" clip-path="url(#p0f7f93bba4)" style="fill: none; stroke: #cccccc; stroke-width: 2; stroke-linecap: round"/>
     </g>
     <g id="text_9">
      <!-- 60000 -->
      <g style="fill: #262626" transform="translate(34.4275 82.877872) scale(0.22 -0.22)">
       <use xlink:href="#DejaVuSans-36"/>
       <use xlink:href="#DejaVuSans-30" x="63.623047"/>
       <use xlink:href="#DejaVuSans-30" x="127.246094"/>
       <use xlink:href="#DejaVuSans-30" x="190.869141"/>
       <use xlink:href="#DejaVuSans-30" x="254.492188"/>
      </g>
     </g>
    </g>
    <g id="text_10">
     <!-- Avg. time (ns) -->
     <g style="fill: #262626" transform="translate(25.43625 249.20625) rotate(-90) scale(0.24 -0.24)">
      <defs>
       <path id="DejaVuSans-41" d="M 2188 4044 
L 1331 1722 
L 3047 1722 
L 2188 4044 
z
M 1831 4666 
L 2547 4666 
L 4325 0 
L 3669 0 
L 3244 1197 
L 1141 1197 
L 716 0 
L 50 0 
L 1831 4666 
z
" transform="scale(0.015625)"/>
       <path id="DejaVuSans-76" d="M 191 3500 
L 800 3500 
L 1894 563 
L 2988 3500 
L 3597 3500 
L 2284 0 
L 1503 0 
L 191 3500 
z
" transform="scale(0.015625)"/>
       <path id="DejaVuSans-67" d="M 2906 1791 
Q 2906 2416 2648 2759 
Q 2391 3103 1925 3103 
Q 1463 3103 1205 2759 
Q 947 2416 947 1791 
Q 947 1169 1205 825 
Q 1463 481 1925 481 
Q 2391 481 2648 825 
Q 2906 1169 2906 1791 
z
M 3481 434 
Q 3481 -459 3084 -895 
Q 2688 -1331 1869 -1331 
Q 1566 -1331 1297 -1286 
Q 1028 -1241 775 -1147 
L 775 -588 
Q 1028 -725 1275 -790 
Q 1522 -856 1778 -856 
Q 2344 -856 2625 -561 
Q 2906 -266 2906 331 
L 2906 616 
Q 2728 306 2450 153 
Q 2172 0 1784 0 
Q 1141 0 747 490 
Q 353 981 353 1791 
Q 353 2603 747 3093 
Q 1141 3584 1784 3584 
Q 2172 3584 2450 3431 
Q 2728 3278 2906 2969 
L 2906 3500 
L 3481 3500 
L 3481 434 
z
" transform="scale(0.015625)"/>
       <path id="DejaVuSans-2e" d="M 684 794 
L 1344 794 
L 1344 0 
L 684 0 
L 684 794 
z
" transform="scale(0.015625)"/>
       <path id="DejaVuSans-20" transform="scale(0.015625)"/>
       <path id="DejaVuSans-74" d="M 1172 4494 
L 1172 3500 
L 2356 3500 
L 2356 3053 
L 1172 3053 
L 1172 1153 
Q 1172 725 1289 603 
Q 1406 481 1766 481 
L 2356 481 
L 2356 0 
L 1766 0 
Q 1100 0 847 248 
Q 594 497 594 1153 
L 594 3053 
L 172 3053 
L 172 3500 
L 594 3500 
L 594 4494 
L 1172 4494 
z
" transform="scale(0.015625)"/>
       <path id="DejaVuSans-69" d="M 603 3500 
L 1178 3500 
L 1178 0 
L 603 0 
L 603 3500 
z
M 603 4863 
L 1178 4863 
L 1178 4134 
L 603 4134 
L 603 4863 
z
" transform="scale(0.015625)"/>
       <path id="DejaVuSans-6d" d="M 3328 2828 
Q 3544 3216 3844 3400 
Q 4144 3584 4550 3584 
Q 5097 3584 5394 3201 
Q 5691 2819 5691 2113 
L 5691 0 
L 5113 0 
L 5113 2094 
Q 5113 2597 4934 2840 
Q 4756 3084 4391 3084 
Q 3944 3084 3684 2787 
Q 3425 2491 3425 1978 
L 3425 0 
L 2847 0 
L 2847 2094 
Q 2847 2600 2669 2842 
Q 2491 3084 2119 3084 
Q 1678 3084 1418 2786 
Q 1159 2488 1159 1978 
L 1159 0 
L 581 0 
L 581 3500 
L 1159 3500 
L 1159 2956 
Q 1356 3278 1631 3431 
Q 1906 3584 2284 3584 
Q 2666 3584 2933 3390 
Q 3200 3197 3328 2828 
z
" transform="scale(0.015625)"/>
       <path id="DejaVuSans-28" d="M 1984 4856 
Q 1566 4138 1362 3434 
Q 1159 2731 1159 2009 
Q 1159 1288 1364 580 
Q 1569 -128 1984 -844 
L 1484 -844 
Q 1016 -109 783 600 
Q 550 1309 550 2009 
Q 550 2706 781 3412 
Q 1013 4119 1484 4856 
L 1984 4856 
z
" transform="scale(0.015625)"/>
       <path id="DejaVuSans-6e" d="M 3513 2113 
L 3513 0 
L 2938 0 
L 2938 2094 
Q 2938 2591 2744 2837 
Q 2550 3084 2163 3084 
Q 1697 3084 1428 2787 
Q 1159 2491 1159 1978 
L 1159 0 
L 581 0 
L 581 3500 
L 1159 3500 
L 1159 2956 
Q 1366 3272 1645 3428 
Q 1925 3584 2291 3584 
Q 2894 3584 3203 3211 
Q 3513 2838 3513 2113 
z
" transform="scale(0.015625)"/>
       <path id="DejaVuSans-29" d="M 513 4856 
L 1013 4856 
Q 1481 4119 1714 3412 
Q 1947 2706 1947 2009 
Q 1947 1309 1714 600 
Q 1481 -109 1013 -844 
L 513 -844 
Q 928 -128 1133 580 
Q 1338 1288 1338 2009 
Q 1338 2731 1133 3434 
Q 928 4138 513 4856 
z
" transform="scale(0.015625)"/>
      </defs>
      <use xlink:href="#DejaVuSans-41"/>
      <use xlink:href="#DejaVuSans-76" x="62.533203"/>
      <use xlink:href="#DejaVuSans-67" x="121.712891"/>
      <use xlink:href="#DejaVuSans-2e" x="185.189453"/>
      <use xlink:href="#DejaVuSans-20" x="216.976562"/>
      <use xlink:href="#DejaVuSans-74" x="248.763672"/>
      <use xlink:href="#DejaVuSans-69" x="287.972656"/>
      <use xlink:href="#DejaVuSans-6d" x="315.755859"/>
      <use xlink:href="#DejaVuSans-65" x="413.167969"/>
      <use xlink:href="#DejaVuSans-20" x="474.691406"/>
      <use xlink:href="#DejaVuSans-28" x="506.478516"/>
      <use xlink:href="#DejaVuSans-6e" x="545.492188"/>
      <use xlink:href="#DejaVuSans-73" x="608.871094"/>
      <use xlink:href="#DejaVuSans-29" x="660.970703"/>
     </g>
    </g>
   </g>
   <g id="PolyCollection_1">
    <defs>
     <path id="m887cffb903" d="M 136.636681 -80.43533 
L 136.636681 -80.23677 
L 150.014026 -80.316996 
L 163.39137 -80.498432 
L 176.768715 -80.636897 
L 190.14606 -80.639906 
L 203.523404 -80.788324 
L 216.900749 -81.012956 
L 230.278094 -81.160372 
L 243.655438 -81.355922 
L 257.032783 -81.529411 
L 270.410128 -81.662787 
L 283.787472 -81.867363 
L 297.164817 -82.039798 
L 310.542162 -82.256458 
L 323.919506 -82.427941 
L 337.296851 -82.631515 
L 350.674196 -82.834085 
L 364.051541 -83.059721 
L 377.428885 -83.267305 
L 390.80623 -83.475893 
L 404.183575 -83.634339 
L 417.560919 -83.794741 
L 430.938264 -84.047503 
L 444.315609 -84.264113 
L 457.692953 -84.467686 
L 471.070298 -84.695327 
L 471.070298 -84.725412 
L 471.070298 -84.725412 
L 457.692953 -84.51181 
L 444.315609 -84.317262 
L 430.938264 -84.08561 
L 417.560919 -83.889307 
L 404.183575 -83.672522 
L 390.80623 -83.501966 
L 377.428885 -83.310427 
L 364.051541 -83.08078 
L 350.674196 -82.866176 
L 337.296851 -82.677645 
L 323.919506 -82.473069 
L 310.542162 -82.288549 
L 297.164817 -82.08297 
L 283.787472 -81.897447 
L 270.410128 -81.698888 
L 257.032783 -81.536431 
L 243.655438 -81.382999 
L 230.278094 -81.215527 
L 216.900749 -81.041036 
L 203.523404 -80.880584 
L 190.14606 -80.750216 
L 176.768715 -80.668988 
L 163.39137 -80.547646 
L 150.014026 -80.34307 
L 136.636681 -80.43533 
z
" style="stroke: #0173b2; stroke-opacity: 0.2; stroke-width: 2"/>
    </defs>
    <g clip-path="url(#p0f7f93bba4)">
     <use xlink:href="#m887cffb903" x="0" y="394.439375" style="fill: #0173b2; fill-opacity: 0.2; stroke: #0173b2; stroke-opacity: 0.2; stroke-width: 2"/>
    </g>
   </g>
   <g id="PolyCollection_2">
    <defs>
     <path id="mc808133d45" d="M 136.636681 -80.93975 
L 136.636681 -80.804369 
L 150.014026 -80.995908 
L 163.39137 -81.02499 
L 176.768715 -81.041036 
L 190.14606 -81.03903 
L 203.523404 -81.051064 
L 216.900749 -81.065103 
L 230.278094 -81.074129 
L 243.655438 -81.08516 
L 257.032783 -81.088168 
L 270.410128 -81.09218 
L 283.787472 -81.093182 
L 297.164817 -81.100202 
L 310.542162 -81.112236 
L 323.919506 -81.11725 
L 337.296851 -81.129259 
L 350.674196 -81.143324 
L 364.051541 -81.160372 
L 377.428885 -81.154355 
L 390.80623 -81.185442 
L 404.183575 -81.197476 
L 417.560919 -81.212518 
L 430.938264 -81.229566 
L 444.315609 -81.259651 
L 457.692953 -81.28773 
L 471.070298 -81.316812 
L 471.070298 -81.361939 
L 471.070298 -81.361939 
L 457.692953 -81.314807 
L 444.315609 -81.289736 
L 430.938264 -81.267674 
L 417.560919 -81.218535 
L 404.183575 -81.22355 
L 390.80623 -81.190456 
L 377.428885 -81.17742 
L 364.051541 -81.181431 
L 350.674196 -81.175414 
L 337.296851 -81.165386 
L 323.919506 -81.159369 
L 310.542162 -81.133295 
L 297.164817 -81.106219 
L 283.787472 -81.126276 
L 270.410128 -81.116247 
L 257.032783 -81.091177 
L 243.655438 -81.093182 
L 230.278094 -81.101255 
L 216.900749 -81.074129 
L 203.523404 -81.07814 
L 190.14606 -81.068112 
L 176.768715 -81.07112 
L 163.39137 -81.057081 
L 150.014026 -80.998917 
L 136.636681 -80.93975 
z
" style="stroke: #0173b2; stroke-opacity: 0.2; stroke-width: 2"/>
    </defs>
    <g clip-path="url(#p0f7f93bba4)">
     <use xlink:href="#mc808133d45" x="0" y="394.439375" style="fill: #0173b2; fill-opacity: 0.2; stroke: #0173b2; stroke-opacity: 0.2; stroke-width: 2"/>
    </g>
   </g>
   <g id="PolyCollection_3">
    <defs>
     <path id="m4f1aee9f29" d="M 136.636681 -90.098544 
L 136.636681 -89.452725 
L 150.014026 -100.71043 
L 163.39137 -111.963121 
L 176.768715 -123.677111 
L 190.14606 -135.386086 
L 203.523404 -146.117308 
L 216.900749 -157.787174 
L 230.278094 -168.896461 
L 243.655438 -180.551284 
L 257.032783 -192.119864 
L 270.410128 -203.239179 
L 283.787472 -214.487859 
L 297.164817 -225.704448 
L 310.542162 -236.897972 
L 323.919506 -247.878897 
L 337.296851 -259.116546 
L 350.674196 -270.533699 
L 364.051541 -282.124342 
L 377.428885 -293.349956 
L 390.80623 -304.752068 
L 404.183575 -316.088996 
L 417.560919 -327.474059 
L 430.938264 -338.89723 
L 444.315609 -350.247195 
L 457.692953 -361.599165 
L 471.070298 -371.67454 
L 471.070298 -372.620203 
L 471.070298 -372.620203 
L 457.692953 -361.93812 
L 444.315609 -350.599186 
L 430.938264 -339.153953 
L 417.560919 -327.670613 
L 404.183575 -316.251453 
L 390.80623 -305.120104 
L 377.428885 -293.683897 
L 364.051541 -282.374045 
L 350.674196 -270.936835 
L 337.296851 -259.23889 
L 323.919506 -248.08949 
L 310.542162 -239.184411 
L 297.164817 -226.206863 
L 283.787472 -214.79372 
L 270.410128 -203.751623 
L 257.032783 -192.419709 
L 243.655438 -180.837089 
L 230.278094 -169.522223 
L 216.900749 -157.951637 
L 203.523404 -146.471305 
L 190.14606 -135.496397 
L 176.768715 -124.107322 
L 163.39137 -112.236892 
L 150.014026 -101.011277 
L 136.636681 -90.098544 
z
" style="stroke: #de8f05; stroke-opacity: 0.2; stroke-width: 2"/>
    </defs>
    <g clip-path="url(#p0f7f93bba4)">
     <use xlink:href="#m4f1aee9f29" x="0" y="394.439375" style="fill: #de8f05; fill-opacity: 0.2; stroke: #de8f05; stroke-opacity: 0.2; stroke-width: 2"/>
    </g>
   </g>
   <g id="PolyCollection_4">
    <defs>
     <path id="m47195c19ac" d="M 136.636681 -81.057081 
L 136.636681 -80.998917 
L 150.014026 -81.229566 
L 163.39137 -81.42612 
L 176.768715 -81.64273 
L 190.14606 -82.565328 
L 203.523404 -83.452828 
L 216.900749 -84.473703 
L 230.278094 -84.422559 
L 243.655438 -85.442281 
L 257.032783 -85.708179 
L 270.410128 -86.763151 
L 283.787472 -86.780199 
L 297.164817 -88.01267 
L 310.542162 -87.8813 
L 323.919506 -88.543164 
L 337.296851 -89.256172 
L 350.674196 -89.917033 
L 364.051541 -90.90682 
L 377.428885 -91.239758 
L 390.80623 -91.909645 
L 404.183575 -92.61122 
L 417.560919 -93.283514 
L 430.938264 -93.885208 
L 444.315609 -94.635321 
L 457.692953 -95.321253 
L 471.070298 -97.102268 
L 471.070298 -99.551165 
L 471.070298 -99.551165 
L 457.692953 -95.61508 
L 444.315609 -95.005363 
L 430.938264 -94.115858 
L 417.560919 -93.533217 
L 404.183575 -92.830237 
L 390.80623 -92.013086 
L 377.428885 -91.636876 
L 364.051541 -90.986043 
L 350.674196 -90.130634 
L 337.296851 -89.48281 
L 323.919506 -88.591299 
L 310.542162 -88.29346 
L 297.164817 -88.899166 
L 283.787472 -88.188164 
L 270.410128 -87.5975 
L 257.032783 -86.472332 
L 243.655438 -86.080227 
L 230.278094 -85.009211 
L 216.900749 -84.699338 
L 203.523404 -83.867997 
L 190.14606 -82.634523 
L 176.768715 -81.930541 
L 163.39137 -81.54345 
L 150.014026 -81.297759 
L 136.636681 -81.057081 
z
" style="stroke: #de8f05; stroke-opacity: 0.2; stroke-width: 2"/>
    </defs>
    <g clip-path="url(#p0f7f93bba4)">
     <use xlink:href="#m47195c19ac" x="0" y="394.439375" style="fill: #de8f05; fill-opacity: 0.2; stroke: #de8f05; stroke-opacity: 0.2; stroke-width: 2"/>
    </g>
   </g>
   <g id="line2d_10">
    <path d="M 136.636681 314.107336 
L 150.014026 314.109342 
L 163.39137 313.917802 
L 176.768715 313.789441 
L 190.14606 313.744314 
L 203.523404 313.601913 
L 216.900749 313.412379 
L 230.278094 313.256941 
L 243.655438 313.072422 
L 257.032783 312.905953 
L 270.410128 312.75954 
L 283.787472 312.55697 
L 297.164817 312.380473 
L 310.542162 312.164866 
L 323.919506 311.987366 
L 337.296851 311.783792 
L 350.674196 311.590247 
L 364.051541 311.368623 
L 377.428885 311.15101 
L 390.80623 310.950446 
L 404.183575 310.785982 
L 417.560919 310.602466 
L 430.938264 310.371816 
L 444.315609 310.142169 
L 457.692953 309.946618 
L 471.070298 309.728003 
" clip-path="url(#p0f7f93bba4)" style="fill: none; stroke: #0173b2; stroke-width: 3; stroke-linecap: round"/>
   </g>
   <g id="line2d_11">
    <path d="M 136.636681 313.581856 
L 150.014026 313.441461 
L 163.39137 313.400345 
L 176.768715 313.383297 
L 190.14606 313.387308 
L 203.523404 313.378283 
L 216.900749 313.369258 
L 230.278094 313.353212 
L 243.655438 313.351207 
L 257.032783 313.349201 
L 270.410128 313.33817 
L 283.787472 313.333156 
L 297.164817 313.336164 
L 310.542162 313.318114 
L 323.919506 313.301066 
L 337.296851 313.29204 
L 350.674196 313.280006 
L 364.051541 313.270981 
L 377.428885 313.270981 
L 390.80623 313.251927 
L 404.183575 313.232873 
L 417.560919 313.223848 
L 430.938264 313.192761 
L 444.315609 313.16769 
L 457.692953 313.141616 
L 471.070298 313.106518 
" clip-path="url(#p0f7f93bba4)" style="fill: none; stroke-dasharray: 12,4.5; stroke-dashoffset: 0; stroke: #0173b2; stroke-width: 3"/>
   </g>
   <g id="line2d_12">
    <path d="M 136.636681 304.706862 
L 150.014026 293.558465 
L 163.39137 282.325831 
L 176.768715 270.506544 
L 190.14606 259.000139 
L 203.523404 248.09944 
L 216.900749 236.569969 
L 230.278094 225.162844 
L 243.655438 213.77778 
L 257.032783 202.166079 
L 270.410128 190.997625 
L 283.787472 179.782039 
L 297.164817 168.544391 
L 310.542162 156.769228 
L 323.919506 146.457187 
L 337.296851 135.250626 
L 350.674196 123.716142 
L 364.051541 112.184666 
L 377.428885 100.898882 
L 390.80623 89.4717 
L 404.183575 78.26915 
L 417.560919 66.851997 
L 430.938264 55.40175 
L 444.315609 44.05379 
L 457.692953 32.670733 
L 471.070298 22.3617 
" clip-path="url(#p0f7f93bba4)" style="fill: none; stroke: #de8f05; stroke-width: 3; stroke-linecap: round"/>
   </g>
   <g id="line2d_13">
    <path d="M 136.636681 313.417393 
L 150.014026 313.175712 
L 163.39137 312.968128 
L 176.768715 312.689343 
L 190.14606 311.840953 
L 203.523404 310.750884 
L 216.900749 309.868398 
L 230.278094 309.809232 
L 243.655438 308.60484 
L 257.032783 308.469458 
L 270.410128 307.15275 
L 283.787472 307.148739 
L 297.164817 305.865124 
L 310.542162 306.374559 
L 323.919506 305.868132 
L 337.296851 305.069884 
L 350.674196 304.396989 
L 364.051541 303.493445 
L 377.428885 302.995041 
L 390.80623 302.488615 
L 404.183575 301.712429 
L 417.560919 301.05257 
L 430.938264 300.438842 
L 444.315609 299.648616 
L 457.692953 298.970707 
L 471.070298 295.923124 
" clip-path="url(#p0f7f93bba4)" style="fill: none; stroke-dasharray: 12,4.5; stroke-dashoffset: 0; stroke: #de8f05; stroke-width: 3"/>
   </g>
   <g id="line2d_14"/>
   <g id="line2d_15"/>
   <g id="line2d_16"/>
   <g id="line2d_17"/>
   <g id="line2d_18"/>
   <g id="line2d_19"/>
   <g id="patch_3">
    <path d="M 119.915 323.22 
L 119.915 7.2 
" style="fill: none; stroke: #cccccc; stroke-width: 2.5; stroke-linejoin: miter; stroke-linecap: square"/>
   </g>
   <g id="patch_4">
    <path d="M 119.915 323.22 
L 487.791979 323.22 
" style="fill: none; stroke: #cccccc; stroke-width: 2.5; stroke-linejoin: miter; stroke-linecap: square"/>
   </g>
  </g>
  <g id="legend_1">
   <g id="line2d_20">
    <path d="M 489.337466 114.860625 
L 511.337466 114.860625 
L 533.337466 114.860625 
" style="fill: none"/>
   </g>
   <g id="text_11">
    <!-- Allocator -->
    <g style="fill: #262626" transform="translate(550.937466 122.560625) scale(0.22 -0.22)">
     <defs>
      <path id="DejaVuSans-6c" d="M 603 4863 
L 1178 4863 
L 1178 0 
L 603 0 
L 603 4863 
z
" transform="scale(0.015625)"/>
      <path id="DejaVuSans-63" d="M 3122 3366 
L 3122 2828 
Q 2878 2963 2633 3030 
Q 2388 3097 2138 3097 
Q 1578 3097 1268 2742 
Q 959 2388 959 1747 
Q 959 1106 1268 751 
Q 1578 397 2138 397 
Q 2388 397 2633 464 
Q 2878 531 3122 666 
L 3122 134 
Q 2881 22 2623 -34 
Q 2366 -91 2075 -91 
Q 1284 -91 818 406 
Q 353 903 353 1747 
Q 353 2603 823 3093 
Q 1294 3584 2113 3584 
Q 2378 3584 2631 3529 
Q 2884 3475 3122 3366 
z
" transform="scale(0.015625)"/>
      <path id="DejaVuSans-61" d="M 2194 1759 
Q 1497 1759 1228 1600 
Q 959 1441 959 1056 
Q 959 750 1161 570 
Q 1363 391 1709 391 
Q 2188 391 2477 730 
Q 2766 1069 2766 1631 
L 2766 1759 
L 2194 1759 
z
M 3341 1997 
L 3341 0 
L 2766 0 
L 2766 531 
Q 2569 213 2275 61 
Q 1981 -91 1556 -91 
Q 1019 -91 701 211 
Q 384 513 384 1019 
Q 384 1609 779 1909 
Q 1175 2209 1959 2209 
L 2766 2209 
L 2766 2266 
Q 2766 2663 2505 2880 
Q 2244 3097 1772 3097 
Q 1472 3097 1187 3025 
Q 903 2953 641 2809 
L 641 3341 
Q 956 3463 1253 3523 
Q 1550 3584 1831 3584 
Q 2591 3584 2966 3190 
Q 3341 2797 3341 1997 
z
" transform="scale(0.015625)"/>
     </defs>
     <use xlink:href="#DejaVuSans-41"/>
     <use xlink:href="#DejaVuSans-6c" x="68.408203"/>
     <use xlink:href="#DejaVuSans-6c" x="96.191406"/>
     <use xlink:href="#DejaVuSans-6f" x="123.974609"/>
     <use xlink:href="#DejaVuSans-63" x="185.15625"/>
     <use xlink:href="#DejaVuSans-61" x="240.136719"/>
     <use xlink:href="#DejaVuSans-74" x="301.416016"/>
     <use xlink:href="#DejaVuSans-6f" x="340.625"/>
     <use xlink:href="#DejaVuSans-72" x="401.806641"/>
    </g>
   </g>
   <g id="line2d_21">
    <path d="M 489.337466 147.1525 
L 511.337466 147.1525 
L 533.337466 147.1525 
" style="fill: none; stroke: #0173b2; stroke-width: 3; stroke-linecap: round"/>
   </g>
   <g id="text_12">
    <!-- LLFree -->
    <g style="fill: #262626" transform="translate(550.937466 154.8525) scale(0.22 -0.22)">
     <defs>
      <path id="DejaVuSans-4c" d="M 628 4666 
L 1259 4666 
L 1259 531 
L 3531 531 
L 3531 0 
L 628 0 
L 628 4666 
z
" transform="scale(0.015625)"/>
      <path id="DejaVuSans-46" d="M 628 4666 
L 3309 4666 
L 3309 4134 
L 1259 4134 
L 1259 2759 
L 3109 2759 
L 3109 2228 
L 1259 2228 
L 1259 0 
L 628 0 
L 628 4666 
z
" transform="scale(0.015625)"/>
     </defs>
     <use xlink:href="#DejaVuSans-4c"/>
     <use xlink:href="#DejaVuSans-4c" x="55.712891"/>
     <use xlink:href="#DejaVuSans-46" x="111.425781"/>
     <use xlink:href="#DejaVuSans-72" x="161.695312"/>
     <use xlink:href="#DejaVuSans-65" x="200.558594"/>
     <use xlink:href="#DejaVuSans-65" x="262.082031"/>
    </g>
   </g>
   <g id="line2d_22">
    <path d="M 489.337466 179.444375 
L 511.337466 179.444375 
L 533.337466 179.444375 
" style="fill: none; stroke: #de8f05; stroke-width: 3; stroke-linecap: round"/>
   </g>
   <g id="text_13">
    <!-- Linux -->
    <g style="fill: #262626" transform="translate(550.937466 187.144375) scale(0.22 -0.22)">
     <defs>
      <path id="DejaVuSans-75" d="M 544 1381 
L 544 3500 
L 1119 3500 
L 1119 1403 
Q 1119 906 1312 657 
Q 1506 409 1894 409 
Q 2359 409 2629 706 
Q 2900 1003 2900 1516 
L 2900 3500 
L 3475 3500 
L 3475 0 
L 2900 0 
L 2900 538 
Q 2691 219 2414 64 
Q 2138 -91 1772 -91 
Q 1169 -91 856 284 
Q 544 659 544 1381 
z
M 1991 3584 
L 1991 3584 
z
" transform="scale(0.015625)"/>
      <path id="DejaVuSans-78" d="M 3513 3500 
L 2247 1797 
L 3578 0 
L 2900 0 
L 1881 1375 
L 863 0 
L 184 0 
L 1544 1831 
L 300 3500 
L 978 3500 
L 1906 2253 
L 2834 3500 
L 3513 3500 
z
" transform="scale(0.015625)"/>
     </defs>
     <use xlink:href="#DejaVuSans-4c"/>
     <use xlink:href="#DejaVuSans-69" x="55.712891"/>
     <use xlink:href="#DejaVuSans-6e" x="83.496094"/>
     <use xlink:href="#DejaVuSans-75" x="146.875"/>
     <use xlink:href="#DejaVuSans-78" x="210.253906"/>
    </g>
   </g>
   <g id="line2d_23">
    <path d="M 489.337466 211.73625 
L 511.337466 211.73625 
L 533.337466 211.73625 
" style="fill: none"/>
   </g>
   <g id="text_14">
    <!-- Operation -->
    <g style="fill: #262626" transform="translate(550.937466 219.43625) scale(0.22 -0.22)">
     <defs>
      <path id="DejaVuSans-4f" d="M 2522 4238 
Q 1834 4238 1429 3725 
Q 1025 3213 1025 2328 
Q 1025 1447 1429 934 
Q 1834 422 2522 422 
Q 3209 422 3611 934 
Q 4013 1447 4013 2328 
Q 4013 3213 3611 3725 
Q 3209 4238 2522 4238 
z
M 2522 4750 
Q 3503 4750 4090 4092 
Q 4678 3434 4678 2328 
Q 4678 1225 4090 567 
Q 3503 -91 2522 -91 
Q 1538 -91 948 565 
Q 359 1222 359 2328 
Q 359 3434 948 4092 
Q 1538 4750 2522 4750 
z
" transform="scale(0.015625)"/>
      <path id="DejaVuSans-70" d="M 1159 525 
L 1159 -1331 
L 581 -1331 
L 581 3500 
L 1159 3500 
L 1159 2969 
Q 1341 3281 1617 3432 
Q 1894 3584 2278 3584 
Q 2916 3584 3314 3078 
Q 3713 2572 3713 1747 
Q 3713 922 3314 415 
Q 2916 -91 2278 -91 
Q 1894 -91 1617 61 
Q 1341 213 1159 525 
z
M 3116 1747 
Q 3116 2381 2855 2742 
Q 2594 3103 2138 3103 
Q 1681 3103 1420 2742 
Q 1159 2381 1159 1747 
Q 1159 1113 1420 752 
Q 1681 391 2138 391 
Q 2594 391 2855 752 
Q 3116 1113 3116 1747 
z
" transform="scale(0.015625)"/>
     </defs>
     <use xlink:href="#DejaVuSans-4f"/>
     <use xlink:href="#DejaVuSans-70" x="78.710938"/>
     <use xlink:href="#DejaVuSans-65" x="142.1875"/>
     <use xlink:href="#DejaVuSans-72" x="203.710938"/>
     <use xlink:href="#DejaVuSans-61" x="244.824219"/>
     <use xlink:href="#DejaVuSans-74" x="306.103516"/>
     <use xlink:href="#DejaVuSans-69" x="345.3125"/>
     <use xlink:href="#DejaVuSans-6f" x="373.095703"/>
     <use xlink:href="#DejaVuSans-6e" x="434.277344"/>
    </g>
   </g>
   <g id="line2d_24">
    <path d="M 489.337466 244.028125 
L 511.337466 244.028125 
L 533.337466 244.028125 
" style="fill: none; stroke: #333333; stroke-width: 3; stroke-linecap: round"/>
   </g>
   <g id="text_15">
    <!-- alloc -->
    <g style="fill: #262626" transform="translate(550.937466 251.728125) scale(0.22 -0.22)">
     <use xlink:href="#DejaVuSans-61"/>
     <use xlink:href="#DejaVuSans-6c" x="61.279297"/>
     <use xlink:href="#DejaVuSans-6c" x="89.0625"/>
     <use xlink:href="#DejaVuSans-6f" x="116.845703"/>
     <use xlink:href="#DejaVuSans-63" x="178.027344"/>
    </g>
   </g>
   <g id="line2d_25">
    <path d="M 489.337466 276.32 
L 511.337466 276.32 
L 533.337466 276.32 
" style="fill: none; stroke-dasharray: 12,4.5; stroke-dashoffset: 0; stroke: #333333; stroke-width: 3"/>
   </g>
   <g id="text_16">
    <!-- free -->
    <g style="fill: #262626" transform="translate(550.937466 284.02) scale(0.22 -0.22)">
     <defs>
      <path id="DejaVuSans-66" d="M 2375 4863 
L 2375 4384 
L 1825 4384 
Q 1516 4384 1395 4259 
Q 1275 4134 1275 3809 
L 1275 3500 
L 2222 3500 
L 2222 3053 
L 1275 3053 
L 1275 0 
L 697 0 
L 697 3053 
L 147 3053 
L 147 3500 
L 697 3500 
L 697 3744 
Q 697 4328 969 4595 
Q 1241 4863 1831 4863 
L 2375 4863 
z
" transform="scale(0.015625)"/>
     </defs>
     <use xlink:href="#DejaVuSans-66"/>
     <use xlink:href="#DejaVuSans-72" x="35.205078"/>
     <use xlink:href="#DejaVuSans-65" x="74.068359"/>
     <use xlink:href="#DejaVuSans-65" x="135.591797"/>
    </g>
   </g>
  </g>
 </g>
 <defs>
  <clipPath id="p0f7f93bba4">
   <rect x="119.915" y="7.2" width="367.876979" height="316.02"/>
  </clipPath>
 </defs>
</svg>
