<?xml version="1.0" encoding="utf-8" standalone="no"?>
<!DOCTYPE svg PUBLIC "-//W3C//DTD SVG 1.1//EN"
  "http://www.w3.org/Graphics/SVG/1.1/DTD/svg11.dtd">
<svg xmlns:xlink="http://www.w3.org/1999/xlink" width="708.505029pt" height="402.797656pt" viewBox="0 0 708.505029 402.797656" xmlns="http://www.w3.org/2000/svg" version="1.1">
 <metadata>
  <rdf:RDF xmlns:dc="http://purl.org/dc/elements/1.1/" xmlns:cc="http://creativecommons.org/ns#" xmlns:rdf="http://www.w3.org/1999/02/22-rdf-syntax-ns#">
   <cc:Work>
    <dc:type rdf:resource="http://purl.org/dc/dcmitype/StillImage"/>
    <dc:date>2023-12-14T13:36:50.112464</dc:date>
    <dc:format>image/svg+xml</dc:format>
    <dc:creator>
     <cc:Agent>
      <dc:title>Matplotlib v3.8.2, https://matplotlib.org/</dc:title>
     </cc:Agent>
    </dc:creator>
   </cc:Work>
  </rdf:RDF>
 </metadata>
 <defs>
  <style type="text/css">*{stroke-linejoin: round; stroke-linecap: butt}</style>
 </defs>
 <g id="figure_1">
  <g id="patch_1">
   <path d="M -0 402.797656 
L 708.505029 402.797656 
L 708.505029 0 
L -0 0 
z
" style="fill: #ffffff"/>
  </g>
  <g id="axes_1">
   <g id="patch_2">
    <path d="M 91.92 331.578281 
L 493.561829 331.578281 
L 493.561829 15.558281 
L 91.92 15.558281 
z
" style="fill: #ffffff"/>
   </g>
   <g id="matplotlib.axis_1">
    <g id="xtick_1">
     <g id="line2d_1">
      <path d="M 110.176447 331.578281 
L 110.176447 15.558281 
" clip-path="url(#p206f4293c9)" style="fill: none; stroke: #cccccc; stroke-width: 2; stroke-linecap: round"/>
     </g>
     <g id="text_1">
      <!-- 1 -->
      <g style="fill: #262626" transform="translate(103.177697 363.794844) scale(0.22 -0.22)">
       <defs>
        <path id="DejaVuSans-31" d="M 794 531 
L 1825 531 
L 1825 4091 
L 703 3866 
L 703 4441 
L 1819 4666 
L 2450 4666 
L 2450 531 
L 3481 531 
L 3481 0 
L 794 0 
L 794 531 
z
" transform="scale(0.015625)"/>
       </defs>
       <use xlink:href="#DejaVuSans-31"/>
      </g>
     </g>
    </g>
    <g id="xtick_2">
     <g id="line2d_2">
      <path d="M 212.412549 331.578281 
L 212.412549 15.558281 
" clip-path="url(#p206f4293c9)" style="fill: none; stroke: #cccccc; stroke-width: 2; stroke-linecap: round"/>
     </g>
     <g id="text_2">
      <!-- 8 -->
      <g style="fill: #262626" transform="translate(205.413799 363.794844) scale(0.22 -0.22)">
       <defs>
        <path id="DejaVuSans-38" d="M 2034 2216 
Q 1584 2216 1326 1975 
Q 1069 1734 1069 1313 
Q 1069 891 1326 650 
Q 1584 409 2034 409 
Q 2484 409 2743 651 
Q 3003 894 3003 1313 
Q 3003 1734 2745 1975 
Q 2488 2216 2034 2216 
z
M 1403 2484 
Q 997 2584 770 2862 
Q 544 3141 544 3541 
Q 544 4100 942 4425 
Q 1341 4750 2034 4750 
Q 2731 4750 3128 4425 
Q 3525 4100 3525 3541 
Q 3525 3141 3298 2862 
Q 3072 2584 2669 2484 
Q 3125 2378 3379 2068 
Q 3634 1759 3634 1313 
Q 3634 634 3220 271 
Q 2806 -91 2034 -91 
Q 1263 -91 848 271 
Q 434 634 434 1313 
Q 434 1759 690 2068 
Q 947 2378 1403 2484 
z
M 1172 3481 
Q 1172 3119 1398 2916 
Q 1625 2713 2034 2713 
Q 2441 2713 2670 2916 
Q 2900 3119 2900 3481 
Q 2900 3844 2670 4047 
Q 2441 4250 2034 4250 
Q 1625 4250 1398 4047 
Q 1172 3844 1172 3481 
z
" transform="scale(0.015625)"/>
       </defs>
       <use xlink:href="#DejaVuSans-38"/>
      </g>
     </g>
    </g>
    <g id="xtick_3">
     <g id="line2d_3">
      <path d="M 329.253808 331.578281 
L 329.253808 15.558281 
" clip-path="url(#p206f4293c9)" style="fill: none; stroke: #cccccc; stroke-width: 2; stroke-linecap: round"/>
     </g>
     <g id="text_3">
      <!-- 16 -->
      <g style="fill: #262626" transform="translate(315.256308 363.794844) scale(0.22 -0.22)">
       <defs>
        <path id="DejaVuSans-36" d="M 2113 2584 
Q 1688 2584 1439 2293 
Q 1191 2003 1191 1497 
Q 1191 994 1439 701 
Q 1688 409 2113 409 
Q 2538 409 2786 701 
Q 3034 994 3034 1497 
Q 3034 2003 2786 2293 
Q 2538 2584 2113 2584 
z
M 3366 4563 
L 3366 3988 
Q 3128 4100 2886 4159 
Q 2644 4219 2406 4219 
Q 1781 4219 1451 3797 
Q 1122 3375 1075 2522 
Q 1259 2794 1537 2939 
Q 1816 3084 2150 3084 
Q 2853 3084 3261 2657 
Q 3669 2231 3669 1497 
Q 3669 778 3244 343 
Q 2819 -91 2113 -91 
Q 1303 -91 875 529 
Q 447 1150 447 2328 
Q 447 3434 972 4092 
Q 1497 4750 2381 4750 
Q 2619 4750 2861 4703 
Q 3103 4656 3366 4563 
z
" transform="scale(0.015625)"/>
       </defs>
       <use xlink:href="#DejaVuSans-31"/>
       <use xlink:href="#DejaVuSans-36" x="63.623047"/>
      </g>
     </g>
    </g>
    <g id="xtick_4">
     <g id="line2d_4">
      <path d="M 446.095067 331.578281 
L 446.095067 15.558281 
" clip-path="url(#p206f4293c9)" style="fill: none; stroke: #cccccc; stroke-width: 2; stroke-linecap: round"/>
     </g>
    </g>
    <g id="xtick_5">
     <g id="line2d_5">
      <path d="M 475.305382 331.578281 
L 475.305382 15.558281 
" clip-path="url(#p206f4293c9)" style="fill: none; stroke: #cccccc; stroke-width: 2; stroke-linecap: round"/>
     </g>
     <g id="text_4">
      <!-- 26 -->
      <g style="fill: #262626" transform="translate(461.307882 363.794844) scale(0.22 -0.22)">
       <defs>
        <path id="DejaVuSans-32" d="M 1228 531 
L 3431 531 
L 3431 0 
L 469 0 
L 469 531 
Q 828 903 1448 1529 
Q 2069 2156 2228 2338 
Q 2531 2678 2651 2914 
Q 2772 3150 2772 3378 
Q 2772 3750 2511 3984 
Q 2250 4219 1831 4219 
Q 1534 4219 1204 4116 
Q 875 4013 500 3803 
L 500 4441 
Q 881 4594 1212 4672 
Q 1544 4750 1819 4750 
Q 2544 4750 2975 4387 
Q 3406 4025 3406 3419 
Q 3406 3131 3298 2873 
Q 3191 2616 2906 2266 
Q 2828 2175 2409 1742 
Q 1991 1309 1228 531 
z
" transform="scale(0.015625)"/>
       </defs>
       <use xlink:href="#DejaVuSans-32"/>
       <use xlink:href="#DejaVuSans-36" x="63.623047"/>
      </g>
     </g>
    </g>
    <g id="text_5">
     <!-- Cores -->
     <g style="fill: #262626" transform="translate(258.720914 390.606406) scale(0.24 -0.24)">
      <defs>
       <path id="DejaVuSans-43" d="M 4122 4306 
L 4122 3641 
Q 3803 3938 3442 4084 
Q 3081 4231 2675 4231 
Q 1875 4231 1450 3742 
Q 1025 3253 1025 2328 
Q 1025 1406 1450 917 
Q 1875 428 2675 428 
Q 3081 428 3442 575 
Q 3803 722 4122 1019 
L 4122 359 
Q 3791 134 3420 21 
Q 3050 -91 2638 -91 
Q 1578 -91 968 557 
Q 359 1206 359 2328 
Q 359 3453 968 4101 
Q 1578 4750 2638 4750 
Q 3056 4750 3426 4639 
Q 3797 4528 4122 4306 
z
" transform="scale(0.015625)"/>
       <path id="DejaVuSans-6f" d="M 1959 3097 
Q 1497 3097 1228 2736 
Q 959 2375 959 1747 
Q 959 1119 1226 758 
Q 1494 397 1959 397 
Q 2419 397 2687 759 
Q 2956 1122 2956 1747 
Q 2956 2369 2687 2733 
Q 2419 3097 1959 3097 
z
M 1959 3584 
Q 2709 3584 3137 3096 
Q 3566 2609 3566 1747 
Q 3566 888 3137 398 
Q 2709 -91 1959 -91 
Q 1206 -91 779 398 
Q 353 888 353 1747 
Q 353 2609 779 3096 
Q 1206 3584 1959 3584 
z
" transform="scale(0.015625)"/>
       <path id="DejaVuSans-72" d="M 2631 2963 
Q 2534 3019 2420 3045 
Q 2306 3072 2169 3072 
Q 1681 3072 1420 2755 
Q 1159 2438 1159 1844 
L 1159 0 
L 581 0 
L 581 3500 
L 1159 3500 
L 1159 2956 
Q 1341 3275 1631 3429 
Q 1922 3584 2338 3584 
Q 2397 3584 2469 3576 
Q 2541 3569 2628 3553 
L 2631 2963 
z
" transform="scale(0.015625)"/>
       <path id="DejaVuSans-65" d="M 3597 1894 
L 3597 1613 
L 953 1613 
Q 991 1019 1311 708 
Q 1631 397 2203 397 
Q 2534 397 2845 478 
Q 3156 559 3463 722 
L 3463 178 
Q 3153 47 2828 -22 
Q 2503 -91 2169 -91 
Q 1331 -91 842 396 
Q 353 884 353 1716 
Q 353 2575 817 3079 
Q 1281 3584 2069 3584 
Q 2775 3584 3186 3129 
Q 3597 2675 3597 1894 
z
M 3022 2063 
Q 3016 2534 2758 2815 
Q 2500 3097 2075 3097 
Q 1594 3097 1305 2825 
Q 1016 2553 972 2059 
L 3022 2063 
z
" transform="scale(0.015625)"/>
       <path id="DejaVuSans-73" d="M 2834 3397 
L 2834 2853 
Q 2591 2978 2328 3040 
Q 2066 3103 1784 3103 
Q 1356 3103 1142 2972 
Q 928 2841 928 2578 
Q 928 2378 1081 2264 
Q 1234 2150 1697 2047 
L 1894 2003 
Q 2506 1872 2764 1633 
Q 3022 1394 3022 966 
Q 3022 478 2636 193 
Q 2250 -91 1575 -91 
Q 1294 -91 989 -36 
Q 684 19 347 128 
L 347 722 
Q 666 556 975 473 
Q 1284 391 1588 391 
Q 1994 391 2212 530 
Q 2431 669 2431 922 
Q 2431 1156 2273 1281 
Q 2116 1406 1581 1522 
L 1381 1569 
Q 847 1681 609 1914 
Q 372 2147 372 2553 
Q 372 3047 722 3315 
Q 1072 3584 1716 3584 
Q 2034 3584 2315 3537 
Q 2597 3491 2834 3397 
z
" transform="scale(0.015625)"/>
      </defs>
      <use xlink:href="#DejaVuSans-43"/>
      <use xlink:href="#DejaVuSans-6f" x="69.824219"/>
      <use xlink:href="#DejaVuSans-72" x="131.005859"/>
      <use xlink:href="#DejaVuSans-65" x="169.869141"/>
      <use xlink:href="#DejaVuSans-73" x="231.392578"/>
     </g>
    </g>
   </g>
   <g id="matplotlib.axis_2">
    <g id="ytick_1">
     <g id="line2d_6">
      <path d="M 91.92 331.578281 
L 493.561829 331.578281 
" clip-path="url(#p206f4293c9)" style="fill: none; stroke: #cccccc; stroke-width: 2; stroke-linecap: round"/>
     </g>
     <g id="text_6">
      <!-- 0 -->
      <g style="fill: #262626" transform="translate(62.4225 339.936562) scale(0.22 -0.22)">
       <defs>
        <path id="DejaVuSans-30" d="M 2034 4250 
Q 1547 4250 1301 3770 
Q 1056 3291 1056 2328 
Q 1056 1369 1301 889 
Q 1547 409 2034 409 
Q 2525 409 2770 889 
Q 3016 1369 3016 2328 
Q 3016 3291 2770 3770 
Q 2525 4250 2034 4250 
z
M 2034 4750 
Q 2819 4750 3233 4129 
Q 3647 3509 3647 2328 
Q 3647 1150 3233 529 
Q 2819 -91 2034 -91 
Q 1250 -91 836 529 
Q 422 1150 422 2328 
Q 422 3509 836 4129 
Q 1250 4750 2034 4750 
z
" transform="scale(0.015625)"/>
       </defs>
       <use xlink:href="#DejaVuSans-30"/>
      </g>
     </g>
    </g>
    <g id="ytick_2">
     <g id="line2d_7">
      <path d="M 91.92 268.374281 
L 493.561829 268.374281 
" clip-path="url(#p206f4293c9)" style="fill: none; stroke: #cccccc; stroke-width: 2; stroke-linecap: round"/>
     </g>
     <g id="text_7">
      <!-- 20 -->
      <g style="fill: #262626" transform="translate(48.425 276.732562) scale(0.22 -0.22)">
       <use xlink:href="#DejaVuSans-32"/>
       <use xlink:href="#DejaVuSans-30" x="63.623047"/>
      </g>
     </g>
    </g>
    <g id="ytick_3">
     <g id="line2d_8">
      <path d="M 91.92 205.170281 
L 493.561829 205.170281 
" clip-path="url(#p206f4293c9)" style="fill: none; stroke: #cccccc; stroke-width: 2; stroke-linecap: round"/>
     </g>
     <g id="text_8">
      <!-- 40 -->
      <g style="fill: #262626" transform="translate(48.425 213.528562) scale(0.22 -0.22)">
       <defs>
        <path id="DejaVuSans-34" d="M 2419 4116 
L 825 1625 
L 2419 1625 
L 2419 4116 
z
M 2253 4666 
L 3047 4666 
L 3047 1625 
L 3713 1625 
L 3713 1100 
L 3047 1100 
L 3047 0 
L 2419 0 
L 2419 1100 
L 313 1100 
L 313 1709 
L 2253 4666 
z
" transform="scale(0.015625)"/>
       </defs>
       <use xlink:href="#DejaVuSans-34"/>
       <use xlink:href="#DejaVuSans-30" x="63.623047"/>
      </g>
     </g>
    </g>
    <g id="ytick_4">
     <g id="line2d_9">
      <path d="M 91.92 141.966281 
L 493.561829 141.966281 
" clip-path="url(#p206f4293c9)" style="fill: none; stroke: #cccccc; stroke-width: 2; stroke-linecap: round"/>
     </g>
     <g id="text_9">
      <!-- 60 -->
      <g style="fill: #262626" transform="translate(48.425 150.324562) scale(0.22 -0.22)">
       <use xlink:href="#DejaVuSans-36"/>
       <use xlink:href="#DejaVuSans-30" x="63.623047"/>
      </g>
     </g>
    </g>
    <g id="ytick_5">
     <g id="line2d_10">
      <path d="M 91.92 78.762281 
L 493.561829 78.762281 
" clip-path="url(#p206f4293c9)" style="fill: none; stroke: #cccccc; stroke-width: 2; stroke-linecap: round"/>
     </g>
     <g id="text_10">
      <!-- 80 -->
      <g style="fill: #262626" transform="translate(48.425 87.120562) scale(0.22 -0.22)">
       <use xlink:href="#DejaVuSans-38"/>
       <use xlink:href="#DejaVuSans-30" x="63.623047"/>
      </g>
     </g>
    </g>
    <g id="ytick_6">
     <g id="line2d_11">
      <path d="M 91.92 15.558281 
L 493.561829 15.558281 
" clip-path="url(#p206f4293c9)" style="fill: none; stroke: #cccccc; stroke-width: 2; stroke-linecap: round"/>
     </g>
     <g id="text_11">
      <!-- 100 -->
      <g style="fill: #262626" transform="translate(34.4275 23.916562) scale(0.22 -0.22)">
       <use xlink:href="#DejaVuSans-31"/>
       <use xlink:href="#DejaVuSans-30" x="63.623047"/>
       <use xlink:href="#DejaVuSans-30" x="127.246094"/>
      </g>
     </g>
    </g>
    <g id="text_12">
     <!-- Avg. time (ns) -->
     <g style="fill: #262626" transform="translate(25.43625 257.564531) rotate(-90) scale(0.24 -0.24)">
      <defs>
       <path id="DejaVuSans-41" d="M 2188 4044 
L 1331 1722 
L 3047 1722 
L 2188 4044 
z
M 1831 4666 
L 2547 4666 
L 4325 0 
L 3669 0 
L 3244 1197 
L 1141 1197 
L 716 0 
L 50 0 
L 1831 4666 
z
" transform="scale(0.015625)"/>
       <path id="DejaVuSans-76" d="M 191 3500 
L 800 3500 
L 1894 563 
L 2988 3500 
L 3597 3500 
L 2284 0 
L 1503 0 
L 191 3500 
z
" transform="scale(0.015625)"/>
       <path id="DejaVuSans-67" d="M 2906 1791 
Q 2906 2416 2648 2759 
Q 2391 3103 1925 3103 
Q 1463 3103 1205 2759 
Q 947 2416 947 1791 
Q 947 1169 1205 825 
Q 1463 481 1925 481 
Q 2391 481 2648 825 
Q 2906 1169 2906 1791 
z
M 3481 434 
Q 3481 -459 3084 -895 
Q 2688 -1331 1869 -1331 
Q 1566 -1331 1297 -1286 
Q 1028 -1241 775 -1147 
L 775 -588 
Q 1028 -725 1275 -790 
Q 1522 -856 1778 -856 
Q 2344 -856 2625 -561 
Q 2906 -266 2906 331 
L 2906 616 
Q 2728 306 2450 153 
Q 2172 0 1784 0 
Q 1141 0 747 490 
Q 353 981 353 1791 
Q 353 2603 747 3093 
Q 1141 3584 1784 3584 
Q 2172 3584 2450 3431 
Q 2728 3278 2906 2969 
L 2906 3500 
L 3481 3500 
L 3481 434 
z
" transform="scale(0.015625)"/>
       <path id="DejaVuSans-2e" d="M 684 794 
L 1344 794 
L 1344 0 
L 684 0 
L 684 794 
z
" transform="scale(0.015625)"/>
       <path id="DejaVuSans-20" transform="scale(0.015625)"/>
       <path id="DejaVuSans-74" d="M 1172 4494 
L 1172 3500 
L 2356 3500 
L 2356 3053 
L 1172 3053 
L 1172 1153 
Q 1172 725 1289 603 
Q 1406 481 1766 481 
L 2356 481 
L 2356 0 
L 1766 0 
Q 1100 0 847 248 
Q 594 497 594 1153 
L 594 3053 
L 172 3053 
L 172 3500 
L 594 3500 
L 594 4494 
L 1172 4494 
z
" transform="scale(0.015625)"/>
       <path id="DejaVuSans-69" d="M 603 3500 
L 1178 3500 
L 1178 0 
L 603 0 
L 603 3500 
z
M 603 4863 
L 1178 4863 
L 1178 4134 
L 603 4134 
L 603 4863 
z
" transform="scale(0.015625)"/>
       <path id="DejaVuSans-6d" d="M 3328 2828 
Q 3544 3216 3844 3400 
Q 4144 3584 4550 3584 
Q 5097 3584 5394 3201 
Q 5691 2819 5691 2113 
L 5691 0 
L 5113 0 
L 5113 2094 
Q 5113 2597 4934 2840 
Q 4756 3084 4391 3084 
Q 3944 3084 3684 2787 
Q 3425 2491 3425 1978 
L 3425 0 
L 2847 0 
L 2847 2094 
Q 2847 2600 2669 2842 
Q 2491 3084 2119 3084 
Q 1678 3084 1418 2786 
Q 1159 2488 1159 1978 
L 1159 0 
L 581 0 
L 581 3500 
L 1159 3500 
L 1159 2956 
Q 1356 3278 1631 3431 
Q 1906 3584 2284 3584 
Q 2666 3584 2933 3390 
Q 3200 3197 3328 2828 
z
" transform="scale(0.015625)"/>
       <path id="DejaVuSans-28" d="M 1984 4856 
Q 1566 4138 1362 3434 
Q 1159 2731 1159 2009 
Q 1159 1288 1364 580 
Q 1569 -128 1984 -844 
L 1484 -844 
Q 1016 -109 783 600 
Q 550 1309 550 2009 
Q 550 2706 781 3412 
Q 1013 4119 1484 4856 
L 1984 4856 
z
" transform="scale(0.015625)"/>
       <path id="DejaVuSans-6e" d="M 3513 2113 
L 3513 0 
L 2938 0 
L 2938 2094 
Q 2938 2591 2744 2837 
Q 2550 3084 2163 3084 
Q 1697 3084 1428 2787 
Q 1159 2491 1159 1978 
L 1159 0 
L 581 0 
L 581 3500 
L 1159 3500 
L 1159 2956 
Q 1366 3272 1645 3428 
Q 1925 3584 2291 3584 
Q 2894 3584 3203 3211 
Q 3513 2838 3513 2113 
z
" transform="scale(0.015625)"/>
       <path id="DejaVuSans-29" d="M 513 4856 
L 1013 4856 
Q 1481 4119 1714 3412 
Q 1947 2706 1947 2009 
Q 1947 1309 1714 600 
Q 1481 -109 1013 -844 
L 513 -844 
Q 928 -128 1133 580 
Q 1338 1288 1338 2009 
Q 1338 2731 1133 3434 
Q 928 4138 513 4856 
z
" transform="scale(0.015625)"/>
      </defs>
      <use xlink:href="#DejaVuSans-41"/>
      <use xlink:href="#DejaVuSans-76" x="62.533203"/>
      <use xlink:href="#DejaVuSans-67" x="121.712891"/>
      <use xlink:href="#DejaVuSans-2e" x="185.189453"/>
      <use xlink:href="#DejaVuSans-20" x="216.976562"/>
      <use xlink:href="#DejaVuSans-74" x="248.763672"/>
      <use xlink:href="#DejaVuSans-69" x="287.972656"/>
      <use xlink:href="#DejaVuSans-6d" x="315.755859"/>
      <use xlink:href="#DejaVuSans-65" x="413.167969"/>
      <use xlink:href="#DejaVuSans-20" x="474.691406"/>
      <use xlink:href="#DejaVuSans-28" x="506.478516"/>
      <use xlink:href="#DejaVuSans-6e" x="545.492188"/>
      <use xlink:href="#DejaVuSans-73" x="608.871094"/>
      <use xlink:href="#DejaVuSans-29" x="660.970703"/>
     </g>
    </g>
   </g>
   <g id="PolyCollection_1">
    <defs>
     <path id="m70644c44cc" d="M 110.176447 -229.229375 
L 110.176447 -222.908975 
L 124.781604 -222.908975 
L 139.386762 -222.908975 
L 153.991919 -222.908975 
L 168.597076 -222.908975 
L 183.202234 -222.908975 
L 197.807391 -222.908975 
L 212.412549 -222.908975 
L 227.017706 -222.908975 
L 241.622863 -222.908975 
L 256.228021 -222.908975 
L 270.833178 -222.908975 
L 285.438336 -222.908975 
L 300.043493 -222.908975 
L 314.648651 -222.908975 
L 329.253808 -222.908975 
L 343.858965 -222.908975 
L 358.464123 -222.908975 
L 373.06928 -222.908975 
L 387.674438 -222.908975 
L 402.279595 -222.908975 
L 416.884752 -223.699025 
L 431.48991 -222.908975 
L 446.095067 -222.908975 
L 460.700225 -222.908975 
L 475.305382 -222.908975 
L 475.305382 -225.279125 
L 475.305382 -225.279125 
L 460.700225 -226.069175 
L 446.095067 -226.069175 
L 431.48991 -222.908975 
L 416.884752 -226.069175 
L 402.279595 -225.279125 
L 387.674438 -226.069175 
L 373.06928 -222.908975 
L 358.464123 -222.908975 
L 343.858965 -222.908975 
L 329.253808 -222.908975 
L 314.648651 -222.908975 
L 300.043493 -222.908975 
L 285.438336 -222.908975 
L 270.833178 -222.908975 
L 256.228021 -222.908975 
L 241.622863 -222.908975 
L 227.017706 -222.908975 
L 212.412549 -222.908975 
L 197.807391 -222.908975 
L 183.202234 -222.908975 
L 168.597076 -222.908975 
L 153.991919 -222.908975 
L 139.386762 -225.279125 
L 124.781604 -225.279125 
L 110.176447 -229.229375 
z
" style="stroke: #0173b2; stroke-opacity: 0.2; stroke-width: 2"/>
    </defs>
    <g clip-path="url(#p206f4293c9)">
     <use xlink:href="#m70644c44cc" x="0" y="402.797656" style="fill: #0173b2; fill-opacity: 0.2; stroke: #0173b2; stroke-opacity: 0.2; stroke-width: 2"/>
    </g>
   </g>
   <g id="PolyCollection_2">
    <defs>
     <path id="mcf099544f1" d="M 110.176447 -200.787575 
L 110.176447 -200.787575 
L 124.781604 -200.787575 
L 139.386762 -200.787575 
L 153.991919 -200.787575 
L 168.597076 -200.787575 
L 183.202234 -200.787575 
L 197.807391 -200.787575 
L 212.412549 -200.787575 
L 227.017706 -200.787575 
L 241.622863 -200.787575 
L 256.228021 -200.787575 
L 270.833178 -200.787575 
L 285.438336 -200.787575 
L 300.043493 -200.787575 
L 314.648651 -200.787575 
L 329.253808 -200.787575 
L 343.858965 -200.787575 
L 358.464123 -200.787575 
L 373.06928 -200.787575 
L 387.674438 -200.787575 
L 402.279595 -200.787575 
L 416.884752 -200.787575 
L 431.48991 -200.787575 
L 446.095067 -200.787575 
L 460.700225 -200.787575 
L 475.305382 -201.577625 
L 475.305382 -203.947775 
L 475.305382 -203.947775 
L 460.700225 -203.947775 
L 446.095067 -200.787575 
L 431.48991 -200.787575 
L 416.884752 -200.787575 
L 402.279595 -200.787575 
L 387.674438 -200.787575 
L 373.06928 -200.787575 
L 358.464123 -200.787575 
L 343.858965 -200.787575 
L 329.253808 -200.787575 
L 314.648651 -200.787575 
L 300.043493 -200.787575 
L 285.438336 -203.157725 
L 270.833178 -203.157725 
L 256.228021 -200.787575 
L 241.622863 -200.787575 
L 227.017706 -200.787575 
L 212.412549 -200.787575 
L 197.807391 -203.157725 
L 183.202234 -200.787575 
L 168.597076 -203.157725 
L 153.991919 -205.527875 
L 139.386762 -200.787575 
L 124.781604 -200.787575 
L 110.176447 -200.787575 
z
" style="stroke: #0173b2; stroke-opacity: 0.2; stroke-width: 2"/>
    </defs>
    <g clip-path="url(#p206f4293c9)">
     <use xlink:href="#mcf099544f1" x="0" y="402.797656" style="fill: #0173b2; fill-opacity: 0.2; stroke: #0173b2; stroke-opacity: 0.2; stroke-width: 2"/>
    </g>
   </g>
   <g id="PolyCollection_3">
    <defs>
     <path id="mab237b1a24" d="M 110.176447 -227.649275 
L 110.176447 -222.908975 
L 124.781604 -222.908975 
L 139.386762 -222.908975 
L 153.991919 -222.908975 
L 168.597076 -222.908975 
L 183.202234 -222.908975 
L 197.807391 -222.908975 
L 212.412549 -222.908975 
L 227.017706 -222.908975 
L 241.622863 -222.908975 
L 256.228021 -222.908975 
L 270.833178 -222.908975 
L 285.438336 -222.908975 
L 300.043493 -222.908975 
L 314.648651 -222.908975 
L 329.253808 -222.908975 
L 343.858965 -222.908975 
L 358.464123 -222.908975 
L 373.06928 -222.908975 
L 387.674438 -222.908975 
L 402.279595 -222.908975 
L 416.884752 -222.908975 
L 431.48991 -222.908975 
L 446.095067 -222.908975 
L 460.700225 -222.908975 
L 475.305382 -222.908975 
L 475.305382 -222.908975 
L 475.305382 -222.908975 
L 460.700225 -222.908975 
L 446.095067 -222.908975 
L 431.48991 -222.908975 
L 416.884752 -222.908975 
L 402.279595 -222.908975 
L 387.674438 -222.908975 
L 373.06928 -225.279125 
L 358.464123 -226.069175 
L 343.858965 -222.908975 
L 329.253808 -226.069175 
L 314.648651 -222.908975 
L 300.043493 -222.908975 
L 285.438336 -222.908975 
L 270.833178 -222.908975 
L 256.228021 -222.908975 
L 241.622863 -222.908975 
L 227.017706 -222.908975 
L 212.412549 -222.908975 
L 197.807391 -222.908975 
L 183.202234 -222.908975 
L 168.597076 -222.908975 
L 153.991919 -222.908975 
L 139.386762 -222.908975 
L 124.781604 -225.279125 
L 110.176447 -227.649275 
z
" style="stroke: #de8f05; stroke-opacity: 0.2; stroke-width: 2"/>
    </defs>
    <g clip-path="url(#p206f4293c9)">
     <use xlink:href="#mab237b1a24" x="0" y="402.797656" style="fill: #de8f05; fill-opacity: 0.2; stroke: #de8f05; stroke-opacity: 0.2; stroke-width: 2"/>
    </g>
   </g>
   <g id="PolyCollection_4">
    <defs>
     <path id="me9dd5e715f" d="M 110.176447 -200.787575 
L 110.176447 -200.787575 
L 124.781604 -200.787575 
L 139.386762 -200.787575 
L 153.991919 -200.787575 
L 168.597076 -200.787575 
L 183.202234 -200.787575 
L 197.807391 -200.787575 
L 212.412549 -200.787575 
L 227.017706 -200.787575 
L 241.622863 -200.787575 
L 256.228021 -200.787575 
L 270.833178 -200.787575 
L 285.438336 -200.787575 
L 300.043493 -200.787575 
L 314.648651 -200.787575 
L 329.253808 -200.787575 
L 343.858965 -200.787575 
L 358.464123 -200.787575 
L 373.06928 -200.787575 
L 387.674438 -200.787575 
L 402.279595 -200.787575 
L 416.884752 -200.787575 
L 431.48991 -200.787575 
L 446.095067 -203.947775 
L 460.700225 -200.787575 
L 475.305382 -200.787575 
L 475.305382 -203.947775 
L 475.305382 -203.947775 
L 460.700225 -203.947775 
L 446.095067 -203.947775 
L 431.48991 -203.947775 
L 416.884752 -200.787575 
L 402.279595 -200.787575 
L 387.674438 -200.787575 
L 373.06928 -200.787575 
L 358.464123 -200.787575 
L 343.858965 -203.157725 
L 329.253808 -200.787575 
L 314.648651 -200.787575 
L 300.043493 -200.787575 
L 285.438336 -200.787575 
L 270.833178 -200.787575 
L 256.228021 -200.787575 
L 241.622863 -200.787575 
L 227.017706 -200.787575 
L 212.412549 -203.157725 
L 197.807391 -203.947775 
L 183.202234 -200.787575 
L 168.597076 -205.527875 
L 153.991919 -200.787575 
L 139.386762 -200.787575 
L 124.781604 -200.787575 
L 110.176447 -200.787575 
z
" style="stroke: #de8f05; stroke-opacity: 0.2; stroke-width: 2"/>
    </defs>
    <g clip-path="url(#p206f4293c9)">
     <use xlink:href="#me9dd5e715f" x="0" y="402.797656" style="fill: #de8f05; fill-opacity: 0.2; stroke: #de8f05; stroke-opacity: 0.2; stroke-width: 2"/>
    </g>
   </g>
   <g id="line2d_12">
    <path d="M 110.176447 176.728481 
L 124.781604 179.098631 
L 139.386762 179.098631 
L 153.991919 179.888681 
L 168.597076 179.888681 
L 183.202234 179.888681 
L 197.807391 179.888681 
L 212.412549 179.888681 
L 227.017706 179.888681 
L 241.622863 179.888681 
L 256.228021 179.888681 
L 270.833178 179.888681 
L 285.438336 179.888681 
L 300.043493 179.888681 
L 314.648651 179.888681 
L 329.253808 179.888681 
L 343.858965 179.888681 
L 358.464123 179.888681 
L 373.06928 179.888681 
L 387.674438 178.308581 
L 402.279595 179.098631 
L 416.884752 177.518531 
L 431.48991 179.888681 
L 446.095067 178.308581 
L 460.700225 178.308581 
L 475.305382 179.098631 
" clip-path="url(#p206f4293c9)" style="fill: none; stroke: #0173b2; stroke-width: 3; stroke-linecap: round"/>
   </g>
   <g id="line2d_13">
    <path d="M 110.176447 202.010081 
L 124.781604 202.010081 
L 139.386762 202.010081 
L 153.991919 200.429981 
L 168.597076 201.220031 
L 183.202234 202.010081 
L 197.807391 201.220031 
L 212.412549 202.010081 
L 227.017706 202.010081 
L 241.622863 202.010081 
L 256.228021 202.010081 
L 270.833178 201.220031 
L 285.438336 201.220031 
L 300.043493 202.010081 
L 314.648651 202.010081 
L 329.253808 202.010081 
L 343.858965 202.010081 
L 358.464123 202.010081 
L 373.06928 202.010081 
L 387.674438 202.010081 
L 402.279595 202.010081 
L 416.884752 202.010081 
L 431.48991 202.010081 
L 446.095067 202.010081 
L 460.700225 200.429981 
L 475.305382 199.639931 
" clip-path="url(#p206f4293c9)" style="fill: none; stroke-dasharray: 12,4.5; stroke-dashoffset: 0; stroke: #0173b2; stroke-width: 3"/>
   </g>
   <g id="line2d_14">
    <path d="M 110.176447 177.518531 
L 124.781604 179.098631 
L 139.386762 179.888681 
L 153.991919 179.888681 
L 168.597076 179.888681 
L 183.202234 179.888681 
L 197.807391 179.888681 
L 212.412549 179.888681 
L 227.017706 179.888681 
L 241.622863 179.888681 
L 256.228021 179.888681 
L 270.833178 179.888681 
L 285.438336 179.888681 
L 300.043493 179.888681 
L 314.648651 179.888681 
L 329.253808 178.308581 
L 343.858965 179.888681 
L 358.464123 178.308581 
L 373.06928 179.098631 
L 387.674438 179.888681 
L 402.279595 179.888681 
L 416.884752 179.888681 
L 431.48991 179.888681 
L 446.095067 179.888681 
L 460.700225 179.888681 
L 475.305382 179.888681 
" clip-path="url(#p206f4293c9)" style="fill: none; stroke: #de8f05; stroke-width: 3; stroke-linecap: round"/>
   </g>
   <g id="line2d_15">
    <path d="M 110.176447 202.010081 
L 124.781604 202.010081 
L 139.386762 202.010081 
L 153.991919 202.010081 
L 168.597076 200.429981 
L 183.202234 202.010081 
L 197.807391 200.429981 
L 212.412549 201.220031 
L 227.017706 202.010081 
L 241.622863 202.010081 
L 256.228021 202.010081 
L 270.833178 202.010081 
L 285.438336 202.010081 
L 300.043493 202.010081 
L 314.648651 202.010081 
L 329.253808 202.010081 
L 343.858965 201.220031 
L 358.464123 202.010081 
L 373.06928 202.010081 
L 387.674438 202.010081 
L 402.279595 202.010081 
L 416.884752 202.010081 
L 431.48991 200.429981 
L 446.095067 198.849881 
L 460.700225 200.429981 
L 475.305382 200.429981 
" clip-path="url(#p206f4293c9)" style="fill: none; stroke-dasharray: 12,4.5; stroke-dashoffset: 0; stroke: #de8f05; stroke-width: 3"/>
   </g>
   <g id="line2d_16"/>
   <g id="line2d_17"/>
   <g id="line2d_18"/>
   <g id="line2d_19"/>
   <g id="line2d_20"/>
   <g id="line2d_21"/>
   <g id="patch_3">
    <path d="M 91.92 331.578281 
L 91.92 15.558281 
" style="fill: none; stroke: #cccccc; stroke-width: 2.5; stroke-linejoin: miter; stroke-linecap: square"/>
   </g>
   <g id="patch_4">
    <path d="M 91.92 331.578281 
L 493.561829 331.578281 
" style="fill: none; stroke: #cccccc; stroke-width: 2.5; stroke-linejoin: miter; stroke-linecap: square"/>
   </g>
  </g>
  <g id="legend_1">
   <g id="line2d_22">
    <path d="M 517.617216 119.039766 
L 539.617216 119.039766 
L 561.617216 119.039766 
" style="fill: none"/>
   </g>
   <g id="text_13">
    <!-- Memory -->
    <g style="fill: #262626" transform="translate(579.217216 126.739766) scale(0.22 -0.22)">
     <defs>
      <path id="DejaVuSans-4d" d="M 628 4666 
L 1569 4666 
L 2759 1491 
L 3956 4666 
L 4897 4666 
L 4897 0 
L 4281 0 
L 4281 4097 
L 3078 897 
L 2444 897 
L 1241 4097 
L 1241 0 
L 628 0 
L 628 4666 
z
" transform="scale(0.015625)"/>
      <path id="DejaVuSans-79" d="M 2059 -325 
Q 1816 -950 1584 -1140 
Q 1353 -1331 966 -1331 
L 506 -1331 
L 506 -850 
L 844 -850 
Q 1081 -850 1212 -737 
Q 1344 -625 1503 -206 
L 1606 56 
L 191 3500 
L 800 3500 
L 1894 763 
L 2988 3500 
L 3597 3500 
L 2059 -325 
z
" transform="scale(0.015625)"/>
     </defs>
     <use xlink:href="#DejaVuSans-4d"/>
     <use xlink:href="#DejaVuSans-65" x="86.279297"/>
     <use xlink:href="#DejaVuSans-6d" x="147.802734"/>
     <use xlink:href="#DejaVuSans-6f" x="245.214844"/>
     <use xlink:href="#DejaVuSans-72" x="306.396484"/>
     <use xlink:href="#DejaVuSans-79" x="347.509766"/>
    </g>
   </g>
   <g id="line2d_23">
    <path d="M 517.617216 151.331641 
L 539.617216 151.331641 
L 561.617216 151.331641 
" style="fill: none; stroke: #0173b2; stroke-width: 3; stroke-linecap: round"/>
   </g>
   <g id="text_14">
    <!-- Volatile -->
    <g style="fill: #262626" transform="translate(579.217216 159.031641) scale(0.22 -0.22)">
     <defs>
      <path id="DejaVuSans-56" d="M 1831 0 
L 50 4666 
L 709 4666 
L 2188 738 
L 3669 4666 
L 4325 4666 
L 2547 0 
L 1831 0 
z
" transform="scale(0.015625)"/>
      <path id="DejaVuSans-6c" d="M 603 4863 
L 1178 4863 
L 1178 0 
L 603 0 
L 603 4863 
z
" transform="scale(0.015625)"/>
      <path id="DejaVuSans-61" d="M 2194 1759 
Q 1497 1759 1228 1600 
Q 959 1441 959 1056 
Q 959 750 1161 570 
Q 1363 391 1709 391 
Q 2188 391 2477 730 
Q 2766 1069 2766 1631 
L 2766 1759 
L 2194 1759 
z
M 3341 1997 
L 3341 0 
L 2766 0 
L 2766 531 
Q 2569 213 2275 61 
Q 1981 -91 1556 -91 
Q 1019 -91 701 211 
Q 384 513 384 1019 
Q 384 1609 779 1909 
Q 1175 2209 1959 2209 
L 2766 2209 
L 2766 2266 
Q 2766 2663 2505 2880 
Q 2244 3097 1772 3097 
Q 1472 3097 1187 3025 
Q 903 2953 641 2809 
L 641 3341 
Q 956 3463 1253 3523 
Q 1550 3584 1831 3584 
Q 2591 3584 2966 3190 
Q 3341 2797 3341 1997 
z
" transform="scale(0.015625)"/>
     </defs>
     <use xlink:href="#DejaVuSans-56"/>
     <use xlink:href="#DejaVuSans-6f" x="60.658203"/>
     <use xlink:href="#DejaVuSans-6c" x="121.839844"/>
     <use xlink:href="#DejaVuSans-61" x="149.623047"/>
     <use xlink:href="#DejaVuSans-74" x="210.902344"/>
     <use xlink:href="#DejaVuSans-69" x="250.111328"/>
     <use xlink:href="#DejaVuSans-6c" x="277.894531"/>
     <use xlink:href="#DejaVuSans-65" x="305.677734"/>
    </g>
   </g>
   <g id="line2d_24">
    <path d="M 517.617216 183.623516 
L 539.617216 183.623516 
L 561.617216 183.623516 
" style="fill: none; stroke: #de8f05; stroke-width: 3; stroke-linecap: round"/>
   </g>
   <g id="text_15">
    <!-- Persistent -->
    <g style="fill: #262626" transform="translate(579.217216 191.323516) scale(0.22 -0.22)">
     <defs>
      <path id="DejaVuSans-50" d="M 1259 4147 
L 1259 2394 
L 2053 2394 
Q 2494 2394 2734 2622 
Q 2975 2850 2975 3272 
Q 2975 3691 2734 3919 
Q 2494 4147 2053 4147 
L 1259 4147 
z
M 628 4666 
L 2053 4666 
Q 2838 4666 3239 4311 
Q 3641 3956 3641 3272 
Q 3641 2581 3239 2228 
Q 2838 1875 2053 1875 
L 1259 1875 
L 1259 0 
L 628 0 
L 628 4666 
z
" transform="scale(0.015625)"/>
     </defs>
     <use xlink:href="#DejaVuSans-50"/>
     <use xlink:href="#DejaVuSans-65" x="56.677734"/>
     <use xlink:href="#DejaVuSans-72" x="118.201172"/>
     <use xlink:href="#DejaVuSans-73" x="159.314453"/>
     <use xlink:href="#DejaVuSans-69" x="211.414062"/>
     <use xlink:href="#DejaVuSans-73" x="239.197266"/>
     <use xlink:href="#DejaVuSans-74" x="291.296875"/>
     <use xlink:href="#DejaVuSans-65" x="330.505859"/>
     <use xlink:href="#DejaVuSans-6e" x="392.029297"/>
     <use xlink:href="#DejaVuSans-74" x="455.408203"/>
    </g>
   </g>
   <g id="line2d_25">
    <path d="M 517.617216 215.915391 
L 539.617216 215.915391 
L 561.617216 215.915391 
" style="fill: none"/>
   </g>
   <g id="text_16">
    <!-- Operation -->
    <g style="fill: #262626" transform="translate(579.217216 223.615391) scale(0.22 -0.22)">
     <defs>
      <path id="DejaVuSans-4f" d="M 2522 4238 
Q 1834 4238 1429 3725 
Q 1025 3213 1025 2328 
Q 1025 1447 1429 934 
Q 1834 422 2522 422 
Q 3209 422 3611 934 
Q 4013 1447 4013 2328 
Q 4013 3213 3611 3725 
Q 3209 4238 2522 4238 
z
M 2522 4750 
Q 3503 4750 4090 4092 
Q 4678 3434 4678 2328 
Q 4678 1225 4090 567 
Q 3503 -91 2522 -91 
Q 1538 -91 948 565 
Q 359 1222 359 2328 
Q 359 3434 948 4092 
Q 1538 4750 2522 4750 
z
" transform="scale(0.015625)"/>
      <path id="DejaVuSans-70" d="M 1159 525 
L 1159 -1331 
L 581 -1331 
L 581 3500 
L 1159 3500 
L 1159 2969 
Q 1341 3281 1617 3432 
Q 1894 3584 2278 3584 
Q 2916 3584 3314 3078 
Q 3713 2572 3713 1747 
Q 3713 922 3314 415 
Q 2916 -91 2278 -91 
Q 1894 -91 1617 61 
Q 1341 213 1159 525 
z
M 3116 1747 
Q 3116 2381 2855 2742 
Q 2594 3103 2138 3103 
Q 1681 3103 1420 2742 
Q 1159 2381 1159 1747 
Q 1159 1113 1420 752 
Q 1681 391 2138 391 
Q 2594 391 2855 752 
Q 3116 1113 3116 1747 
z
" transform="scale(0.015625)"/>
     </defs>
     <use xlink:href="#DejaVuSans-4f"/>
     <use xlink:href="#DejaVuSans-70" x="78.710938"/>
     <use xlink:href="#DejaVuSans-65" x="142.1875"/>
     <use xlink:href="#DejaVuSans-72" x="203.710938"/>
     <use xlink:href="#DejaVuSans-61" x="244.824219"/>
     <use xlink:href="#DejaVuSans-74" x="306.103516"/>
     <use xlink:href="#DejaVuSans-69" x="345.3125"/>
     <use xlink:href="#DejaVuSans-6f" x="373.095703"/>
     <use xlink:href="#DejaVuSans-6e" x="434.277344"/>
    </g>
   </g>
   <g id="line2d_26">
    <path d="M 517.617216 248.207266 
L 539.617216 248.207266 
L 561.617216 248.207266 
" style="fill: none; stroke: #333333; stroke-width: 3; stroke-linecap: round"/>
   </g>
   <g id="text_17">
    <!-- alloc -->
    <g style="fill: #262626" transform="translate(579.217216 255.907266) scale(0.22 -0.22)">
     <defs>
      <path id="DejaVuSans-63" d="M 3122 3366 
L 3122 2828 
Q 2878 2963 2633 3030 
Q 2388 3097 2138 3097 
Q 1578 3097 1268 2742 
Q 959 2388 959 1747 
Q 959 1106 1268 751 
Q 1578 397 2138 397 
Q 2388 397 2633 464 
Q 2878 531 3122 666 
L 3122 134 
Q 2881 22 2623 -34 
Q 2366 -91 2075 -91 
Q 1284 -91 818 406 
Q 353 903 353 1747 
Q 353 2603 823 3093 
Q 1294 3584 2113 3584 
Q 2378 3584 2631 3529 
Q 2884 3475 3122 3366 
z
" transform="scale(0.015625)"/>
     </defs>
     <use xlink:href="#DejaVuSans-61"/>
     <use xlink:href="#DejaVuSans-6c" x="61.279297"/>
     <use xlink:href="#DejaVuSans-6c" x="89.0625"/>
     <use xlink:href="#DejaVuSans-6f" x="116.845703"/>
     <use xlink:href="#DejaVuSans-63" x="178.027344"/>
    </g>
   </g>
   <g id="line2d_27">
    <path d="M 517.617216 280.499141 
L 539.617216 280.499141 
L 561.617216 280.499141 
" style="fill: none; stroke-dasharray: 12,4.5; stroke-dashoffset: 0; stroke: #333333; stroke-width: 3"/>
   </g>
   <g id="text_18">
    <!-- free -->
    <g style="fill: #262626" transform="translate(579.217216 288.199141) scale(0.22 -0.22)">
     <defs>
      <path id="DejaVuSans-66" d="M 2375 4863 
L 2375 4384 
L 1825 4384 
Q 1516 4384 1395 4259 
Q 1275 4134 1275 3809 
L 1275 3500 
L 2222 3500 
L 2222 3053 
L 1275 3053 
L 1275 0 
L 697 0 
L 697 3053 
L 147 3053 
L 147 3500 
L 697 3500 
L 697 3744 
Q 697 4328 969 4595 
Q 1241 4863 1831 4863 
L 2375 4863 
z
" transform="scale(0.015625)"/>
     </defs>
     <use xlink:href="#DejaVuSans-66"/>
     <use xlink:href="#DejaVuSans-72" x="35.205078"/>
     <use xlink:href="#DejaVuSans-65" x="74.068359"/>
     <use xlink:href="#DejaVuSans-65" x="135.591797"/>
    </g>
   </g>
  </g>
 </g>
 <defs>
  <clipPath id="p206f4293c9">
   <rect x="91.92" y="15.558281" width="401.641829" height="316.02"/>
  </clipPath>
 </defs>
</svg>
